<?xml version="1.0" encoding="UTF-8" standalone="no"?>
<!DOCTYPE svg PUBLIC "-//W3C//DTD SVG 1.1//EN"
 "http://www.w3.org/Graphics/SVG/1.1/DTD/svg11.dtd">
<!-- Generated by graphviz version 9.0.0 (20230911.1827)
 -->
<!-- Title: Tree Pages: 1 -->
<svg width="393pt" height="314pt"
 viewBox="0.00 0.00 393.00 314.00" xmlns="http://www.w3.org/2000/svg" xmlns:xlink="http://www.w3.org/1999/xlink">
<g id="graph0" class="graph" transform="scale(1 1) rotate(0) translate(4 310)">
<title>Tree</title>
<polygon fill="white" stroke="none" points="-4,4 -4,-310 389,-310 389,4 -4,4"/>
<!-- 0 -->
<g id="node1" class="node">
<title>0</title>
<path fill="#a3f3c4" stroke="black" d="M229.75,-306C229.75,-306 84.75,-306 84.75,-306 78.75,-306 72.75,-300 72.75,-294 72.75,-294 72.75,-235 72.75,-235 72.75,-229 78.75,-223 84.75,-223 84.75,-223 229.75,-223 229.75,-223 235.75,-223 241.75,-229 241.75,-235 241.75,-235 241.75,-294 241.75,-294 241.75,-300 235.75,-306 229.75,-306"/>
<text text-anchor="middle" x="157.25" y="-288.7" font-family="Helvetica,sans-Serif" font-size="14.00">reason &lt;= 1.5</text>
<text text-anchor="middle" x="157.25" y="-273.7" font-family="Helvetica,sans-Serif" font-size="14.00">gini = 0.55</text>
<text text-anchor="middle" x="157.25" y="-258.7" font-family="Helvetica,sans-Serif" font-size="14.00">samples = 4169</text>
<text text-anchor="middle" x="157.25" y="-243.7" font-family="Helvetica,sans-Serif" font-size="14.00">value = [1077, 2515, 577]</text>
<text text-anchor="middle" x="157.25" y="-228.7" font-family="Helvetica,sans-Serif" font-size="14.00">class = 2</text>
</g>
<!-- 1 -->
<g id="node2" class="node">
<title>1</title>
<path fill="#e89253" stroke="black" d="M134.5,-179.5C134.5,-179.5 12,-179.5 12,-179.5 6,-179.5 0,-173.5 0,-167.5 0,-167.5 0,-123.5 0,-123.5 0,-117.5 6,-111.5 12,-111.5 12,-111.5 134.5,-111.5 134.5,-111.5 140.5,-111.5 146.5,-117.5 146.5,-123.5 146.5,-123.5 146.5,-167.5 146.5,-167.5 146.5,-173.5 140.5,-179.5 134.5,-179.5"/>
<text text-anchor="middle" x="73.25" y="-162.2" font-family="Helvetica,sans-Serif" font-size="14.00">gini = 0.211</text>
<text text-anchor="middle" x="73.25" y="-147.2" font-family="Helvetica,sans-Serif" font-size="14.00">samples = 1111</text>
<text text-anchor="middle" x="73.25" y="-132.2" font-family="Helvetica,sans-Serif" font-size="14.00">value = [980, 112, 19]</text>
<text text-anchor="middle" x="73.25" y="-117.2" font-family="Helvetica,sans-Serif" font-size="14.00">class = 1</text>
</g>
<!-- 0&#45;&gt;1 -->
<g id="edge1" class="edge">
<title>0&#45;&gt;1</title>
<path fill="none" stroke="black" d="M127.87,-222.58C120.11,-211.77 111.72,-200.09 103.9,-189.19"/>
<polygon fill="black" stroke="black" points="106.76,-187.17 98.08,-181.09 101.07,-191.26 106.76,-187.17"/>
<text text-anchor="middle" x="93.15" y="-198.73" font-family="Helvetica,sans-Serif" font-size="14.00">True</text>
</g>
<!-- 2 -->
<g id="node3" class="node">
<title>2</title>
<path fill="#6deca2" stroke="black" d="M306.25,-187C306.25,-187 176.25,-187 176.25,-187 170.25,-187 164.25,-181 164.25,-175 164.25,-175 164.25,-116 164.25,-116 164.25,-110 170.25,-104 176.25,-104 176.25,-104 306.25,-104 306.25,-104 312.25,-104 318.25,-110 318.25,-116 318.25,-116 318.25,-175 318.25,-175 318.25,-181 312.25,-187 306.25,-187"/>
<text text-anchor="middle" x="241.25" y="-169.7" font-family="Helvetica,sans-Serif" font-size="14.00">harmful &lt;= 0.5</text>
<text text-anchor="middle" x="241.25" y="-154.7" font-family="Helvetica,sans-Serif" font-size="14.00">gini = 0.348</text>
<text text-anchor="middle" x="241.25" y="-139.7" font-family="Helvetica,sans-Serif" font-size="14.00">samples = 3058</text>
<text text-anchor="middle" x="241.25" y="-124.7" font-family="Helvetica,sans-Serif" font-size="14.00">value = [97, 2403, 558]</text>
<text text-anchor="middle" x="241.25" y="-109.7" font-family="Helvetica,sans-Serif" font-size="14.00">class = 2</text>
</g>
<!-- 0&#45;&gt;2 -->
<g id="edge2" class="edge">
<title>0&#45;&gt;2</title>
<path fill="none" stroke="black" d="M186.63,-222.58C192.67,-214.16 199.1,-205.2 205.35,-196.5"/>
<polygon fill="black" stroke="black" points="208.16,-198.59 211.15,-188.43 202.47,-194.51 208.16,-198.59"/>
<text text-anchor="middle" x="216.08" y="-206.07" font-family="Helvetica,sans-Serif" font-size="14.00">False</text>
</g>
<!-- 3 -->
<g id="node4" class="node">
<title>3</title>
<path fill="#46e789" stroke="black" d="M223.5,-68C223.5,-68 101,-68 101,-68 95,-68 89,-62 89,-56 89,-56 89,-12 89,-12 89,-6 95,0 101,0 101,0 223.5,0 223.5,0 229.5,0 235.5,-6 235.5,-12 235.5,-12 235.5,-56 235.5,-56 235.5,-62 229.5,-68 223.5,-68"/>
<text text-anchor="middle" x="162.25" y="-50.7" font-family="Helvetica,sans-Serif" font-size="14.00">gini = 0.12</text>
<text text-anchor="middle" x="162.25" y="-35.7" font-family="Helvetica,sans-Serif" font-size="14.00">samples = 2523</text>
<text text-anchor="middle" x="162.25" y="-20.7" font-family="Helvetica,sans-Serif" font-size="14.00">value = [96, 2364, 63]</text>
<text text-anchor="middle" x="162.25" y="-5.7" font-family="Helvetica,sans-Serif" font-size="14.00">class = 2</text>
</g>
<!-- 2&#45;&gt;3 -->
<g id="edge3" class="edge">
<title>2&#45;&gt;3</title>
<path fill="none" stroke="black" d="M211.83,-103.73C205.65,-95.15 199.11,-86.09 192.88,-77.46"/>
<polygon fill="black" stroke="black" points="195.85,-75.59 187.16,-69.53 190.17,-79.68 195.85,-75.59"/>
</g>
<!-- 4 -->
<g id="node5" class="node">
<title>4</title>
<path fill="#8b49e7" stroke="black" d="M373,-68C373,-68 265.5,-68 265.5,-68 259.5,-68 253.5,-62 253.5,-56 253.5,-56 253.5,-12 253.5,-12 253.5,-6 259.5,0 265.5,0 265.5,0 373,0 373,0 379,0 385,-6 385,-12 385,-12 385,-56 385,-56 385,-62 379,-68 373,-68"/>
<text text-anchor="middle" x="319.25" y="-50.7" font-family="Helvetica,sans-Serif" font-size="14.00">gini = 0.139</text>
<text text-anchor="middle" x="319.25" y="-35.7" font-family="Helvetica,sans-Serif" font-size="14.00">samples = 535</text>
<text text-anchor="middle" x="319.25" y="-20.7" font-family="Helvetica,sans-Serif" font-size="14.00">value = [1, 39, 495]</text>
<text text-anchor="middle" x="319.25" y="-5.7" font-family="Helvetica,sans-Serif" font-size="14.00">class = 3+</text>
</g>
<!-- 2&#45;&gt;4 -->
<g id="edge4" class="edge">
<title>2&#45;&gt;4</title>
<path fill="none" stroke="black" d="M270.29,-103.73C276.4,-95.15 282.86,-86.09 289.01,-77.46"/>
<polygon fill="black" stroke="black" points="291.7,-79.71 294.65,-69.53 286,-75.65 291.7,-79.71"/>
</g>
</g>
</svg>
