<?xml version="1.0" encoding="UTF-8" standalone="no"?>
<!DOCTYPE svg PUBLIC "-//W3C//DTD SVG 1.1//EN"
 "http://www.w3.org/Graphics/SVG/1.1/DTD/svg11.dtd">
<!-- Generated by graphviz version 2.43.0 (0)
 -->
<!-- Title: Tree Pages: 1 -->
<svg width="475pt" height="314pt"
 viewBox="0.00 0.00 475.00 314.00" xmlns="http://www.w3.org/2000/svg" xmlns:xlink="http://www.w3.org/1999/xlink">
<g id="graph0" class="graph" transform="scale(1 1) rotate(0) translate(4 310)">
<title>Tree</title>
<polygon fill="white" stroke="transparent" points="-4,4 -4,-310 471,-310 471,4 -4,4"/>
<!-- 0 -->
<g id="node1" class="node">
<title>0</title>
<path fill="#a3f3c4" stroke="black" d="M276.5,-306C276.5,-306 97.5,-306 97.5,-306 91.5,-306 85.5,-300 85.5,-294 85.5,-294 85.5,-235 85.5,-235 85.5,-229 91.5,-223 97.5,-223 97.5,-223 276.5,-223 276.5,-223 282.5,-223 288.5,-229 288.5,-235 288.5,-235 288.5,-294 288.5,-294 288.5,-300 282.5,-306 276.5,-306"/>
<text text-anchor="middle" x="187" y="-290.8" font-family="Helvetica,sans-Serif" font-size="14.00">reason &lt;= 1.5</text>
<text text-anchor="middle" x="187" y="-275.8" font-family="Helvetica,sans-Serif" font-size="14.00">gini = 0.55</text>
<text text-anchor="middle" x="187" y="-260.8" font-family="Helvetica,sans-Serif" font-size="14.00">samples = 4169</text>
<text text-anchor="middle" x="187" y="-245.8" font-family="Helvetica,sans-Serif" font-size="14.00">value = [1077, 2515, 577]</text>
<text text-anchor="middle" x="187" y="-230.8" font-family="Helvetica,sans-Serif" font-size="14.00">class = 2</text>
</g>
<!-- 1 -->
<g id="node2" class="node">
<title>1</title>
<path fill="#e89253" stroke="black" d="M164,-179.5C164,-179.5 12,-179.5 12,-179.5 6,-179.5 0,-173.5 0,-167.5 0,-167.5 0,-123.5 0,-123.5 0,-117.5 6,-111.5 12,-111.5 12,-111.5 164,-111.5 164,-111.5 170,-111.5 176,-117.5 176,-123.5 176,-123.5 176,-167.5 176,-167.5 176,-173.5 170,-179.5 164,-179.5"/>
<text text-anchor="middle" x="88" y="-164.3" font-family="Helvetica,sans-Serif" font-size="14.00">gini = 0.211</text>
<text text-anchor="middle" x="88" y="-149.3" font-family="Helvetica,sans-Serif" font-size="14.00">samples = 1111</text>
<text text-anchor="middle" x="88" y="-134.3" font-family="Helvetica,sans-Serif" font-size="14.00">value = [980, 112, 19]</text>
<text text-anchor="middle" x="88" y="-119.3" font-family="Helvetica,sans-Serif" font-size="14.00">class = 1</text>
</g>
<!-- 0&#45;&gt;1 -->
<g id="edge1" class="edge">
<title>0&#45;&gt;1</title>
<path fill="none" stroke="black" d="M152.65,-222.91C142.94,-211.43 132.37,-198.94 122.64,-187.44"/>
<polygon fill="black" stroke="black" points="125.2,-185.04 116.06,-179.67 119.85,-189.56 125.2,-185.04"/>
<text text-anchor="middle" x="113.99" y="-200.88" font-family="Helvetica,sans-Serif" font-size="14.00">True</text>
</g>
<!-- 2 -->
<g id="node3" class="node">
<title>2</title>
<path fill="#6deca2" stroke="black" d="M366.5,-187C366.5,-187 205.5,-187 205.5,-187 199.5,-187 193.5,-181 193.5,-175 193.5,-175 193.5,-116 193.5,-116 193.5,-110 199.5,-104 205.5,-104 205.5,-104 366.5,-104 366.5,-104 372.5,-104 378.5,-110 378.5,-116 378.5,-116 378.5,-175 378.5,-175 378.5,-181 372.5,-187 366.5,-187"/>
<text text-anchor="middle" x="286" y="-171.8" font-family="Helvetica,sans-Serif" font-size="14.00">harmful &lt;= 0.5</text>
<text text-anchor="middle" x="286" y="-156.8" font-family="Helvetica,sans-Serif" font-size="14.00">gini = 0.348</text>
<text text-anchor="middle" x="286" y="-141.8" font-family="Helvetica,sans-Serif" font-size="14.00">samples = 3058</text>
<text text-anchor="middle" x="286" y="-126.8" font-family="Helvetica,sans-Serif" font-size="14.00">value = [97, 2403, 558]</text>
<text text-anchor="middle" x="286" y="-111.8" font-family="Helvetica,sans-Serif" font-size="14.00">class = 2</text>
</g>
<!-- 0&#45;&gt;2 -->
<g id="edge2" class="edge">
<title>0&#45;&gt;2</title>
<path fill="none" stroke="black" d="M221.35,-222.91C229.03,-213.83 237.24,-204.12 245.16,-194.77"/>
<polygon fill="black" stroke="black" points="247.93,-196.92 251.71,-187.02 242.58,-192.39 247.93,-196.92"/>
<text text-anchor="middle" x="253.79" y="-208.23" font-family="Helvetica,sans-Serif" font-size="14.00">False</text>
</g>
<!-- 3 -->
<g id="node4" class="node">
<title>3</title>
<path fill="#46e789" stroke="black" d="M279,-68C279,-68 87,-68 87,-68 81,-68 75,-62 75,-56 75,-56 75,-12 75,-12 75,-6 81,0 87,0 87,0 279,0 279,0 285,0 291,-6 291,-12 291,-12 291,-56 291,-56 291,-62 285,-68 279,-68"/>
<text text-anchor="middle" x="183" y="-52.8" font-family="Helvetica,sans-Serif" font-size="14.00">gini = 0.12</text>
<text text-anchor="middle" x="183" y="-37.8" font-family="Helvetica,sans-Serif" font-size="14.00">samples = 2523</text>
<text text-anchor="middle" x="183" y="-22.8" font-family="Helvetica,sans-Serif" font-size="14.00">value = [96.0, 2364.0, 63.0]</text>
<text text-anchor="middle" x="183" y="-7.8" font-family="Helvetica,sans-Serif" font-size="14.00">class = 2</text>
</g>
<!-- 2&#45;&gt;3 -->
<g id="edge3" class="edge">
<title>2&#45;&gt;3</title>
<path fill="none" stroke="black" d="M247.65,-103.73C239.07,-94.61 229.97,-84.93 221.39,-75.81"/>
<polygon fill="black" stroke="black" points="223.72,-73.19 214.32,-68.3 218.63,-77.98 223.72,-73.19"/>
</g>
<!-- 4 -->
<g id="node5" class="node">
<title>4</title>
<path fill="#8b49e7" stroke="black" d="M455,-68C455,-68 321,-68 321,-68 315,-68 309,-62 309,-56 309,-56 309,-12 309,-12 309,-6 315,0 321,0 321,0 455,0 455,0 461,0 467,-6 467,-12 467,-12 467,-56 467,-56 467,-62 461,-68 455,-68"/>
<text text-anchor="middle" x="388" y="-52.8" font-family="Helvetica,sans-Serif" font-size="14.00">gini = 0.139</text>
<text text-anchor="middle" x="388" y="-37.8" font-family="Helvetica,sans-Serif" font-size="14.00">samples = 535</text>
<text text-anchor="middle" x="388" y="-22.8" font-family="Helvetica,sans-Serif" font-size="14.00">value = [1, 39, 495]</text>
<text text-anchor="middle" x="388" y="-7.8" font-family="Helvetica,sans-Serif" font-size="14.00">class = 3+</text>
</g>
<!-- 2&#45;&gt;4 -->
<g id="edge4" class="edge">
<title>2&#45;&gt;4</title>
<path fill="none" stroke="black" d="M323.98,-103.73C332.48,-94.61 341.49,-84.93 349.99,-75.81"/>
<polygon fill="black" stroke="black" points="352.73,-78 356.98,-68.3 347.6,-73.23 352.73,-78"/>
</g>
</g>
</svg>
