<?xml version="1.0" encoding="UTF-8" standalone="no"?>
<!DOCTYPE svg PUBLIC "-//W3C//DTD SVG 1.1//EN"
 "http://www.w3.org/Graphics/SVG/1.1/DTD/svg11.dtd">
<!-- Generated by graphviz version 2.43.0 (0)
 -->
<!-- Title: Tree Pages: 1 -->
<svg width="468pt" height="314pt"
 viewBox="0.00 0.00 468.00 314.00" xmlns="http://www.w3.org/2000/svg" xmlns:xlink="http://www.w3.org/1999/xlink">
<g id="graph0" class="graph" transform="scale(1 1) rotate(0) translate(4 310)">
<title>Tree</title>
<polygon fill="white" stroke="transparent" points="-4,4 -4,-310 464,-310 464,4 -4,4"/>
<!-- 0 -->
<g id="node1" class="node">
<title>0</title>
<path fill="#a3f3c4" stroke="black" d="M283,-306C283,-306 104,-306 104,-306 98,-306 92,-300 92,-294 92,-294 92,-235 92,-235 92,-229 98,-223 104,-223 104,-223 283,-223 283,-223 289,-223 295,-229 295,-235 295,-235 295,-294 295,-294 295,-300 289,-306 283,-306"/>
<text text-anchor="middle" x="193.5" y="-290.8" font-family="Helvetica,sans-Serif" font-size="14.00">critical &lt;= 3.5</text>
<text text-anchor="middle" x="193.5" y="-275.8" font-family="Helvetica,sans-Serif" font-size="14.00">gini = 0.55</text>
<text text-anchor="middle" x="193.5" y="-260.8" font-family="Helvetica,sans-Serif" font-size="14.00">samples = 4169</text>
<text text-anchor="middle" x="193.5" y="-245.8" font-family="Helvetica,sans-Serif" font-size="14.00">value = [1077, 2515, 577]</text>
<text text-anchor="middle" x="193.5" y="-230.8" font-family="Helvetica,sans-Serif" font-size="14.00">class = 2</text>
</g>
<!-- 1 -->
<g id="node2" class="node">
<title>1</title>
<path fill="#e99659" stroke="black" d="M173,-179.5C173,-179.5 12,-179.5 12,-179.5 6,-179.5 0,-173.5 0,-167.5 0,-167.5 0,-123.5 0,-123.5 0,-117.5 6,-111.5 12,-111.5 12,-111.5 173,-111.5 173,-111.5 179,-111.5 185,-117.5 185,-123.5 185,-123.5 185,-167.5 185,-167.5 185,-173.5 179,-179.5 173,-179.5"/>
<text text-anchor="middle" x="92.5" y="-164.3" font-family="Helvetica,sans-Serif" font-size="14.00">gini = 0.254</text>
<text text-anchor="middle" x="92.5" y="-149.3" font-family="Helvetica,sans-Serif" font-size="14.00">samples = 1174</text>
<text text-anchor="middle" x="92.5" y="-134.3" font-family="Helvetica,sans-Serif" font-size="14.00">value = [1004, 137, 33]</text>
<text text-anchor="middle" x="92.5" y="-119.3" font-family="Helvetica,sans-Serif" font-size="14.00">class = 1</text>
</g>
<!-- 0&#45;&gt;1 -->
<g id="edge1" class="edge">
<title>0&#45;&gt;1</title>
<path fill="none" stroke="black" d="M158.46,-222.91C148.55,-211.43 137.77,-198.94 127.84,-187.44"/>
<polygon fill="black" stroke="black" points="130.32,-184.95 121.13,-179.67 125.02,-189.52 130.32,-184.95"/>
<text text-anchor="middle" x="119.3" y="-200.9" font-family="Helvetica,sans-Serif" font-size="14.00">True</text>
</g>
<!-- 2 -->
<g id="node3" class="node">
<title>2</title>
<path fill="#6beca1" stroke="black" d="M376,-187C376,-187 215,-187 215,-187 209,-187 203,-181 203,-175 203,-175 203,-116 203,-116 203,-110 209,-104 215,-104 215,-104 376,-104 376,-104 382,-104 388,-110 388,-116 388,-116 388,-175 388,-175 388,-181 382,-187 376,-187"/>
<text text-anchor="middle" x="295.5" y="-171.8" font-family="Helvetica,sans-Serif" font-size="14.00">v3 &lt;= 0.5</text>
<text text-anchor="middle" x="295.5" y="-156.8" font-family="Helvetica,sans-Serif" font-size="14.00">gini = 0.336</text>
<text text-anchor="middle" x="295.5" y="-141.8" font-family="Helvetica,sans-Serif" font-size="14.00">samples = 2995</text>
<text text-anchor="middle" x="295.5" y="-126.8" font-family="Helvetica,sans-Serif" font-size="14.00">value = [73, 2378, 544]</text>
<text text-anchor="middle" x="295.5" y="-111.8" font-family="Helvetica,sans-Serif" font-size="14.00">class = 2</text>
</g>
<!-- 0&#45;&gt;2 -->
<g id="edge2" class="edge">
<title>0&#45;&gt;2</title>
<path fill="none" stroke="black" d="M228.89,-222.91C236.8,-213.83 245.27,-204.12 253.42,-194.77"/>
<polygon fill="black" stroke="black" points="256.24,-196.86 260.17,-187.02 250.96,-192.26 256.24,-196.86"/>
<text text-anchor="middle" x="261.88" y="-208.26" font-family="Helvetica,sans-Serif" font-size="14.00">False</text>
</g>
<!-- 3 -->
<g id="node4" class="node">
<title>3</title>
<path fill="#44e688" stroke="black" d="M281.5,-68C281.5,-68 129.5,-68 129.5,-68 123.5,-68 117.5,-62 117.5,-56 117.5,-56 117.5,-12 117.5,-12 117.5,-6 123.5,0 129.5,0 129.5,0 281.5,0 281.5,0 287.5,0 293.5,-6 293.5,-12 293.5,-12 293.5,-56 293.5,-56 293.5,-62 287.5,-68 281.5,-68"/>
<text text-anchor="middle" x="205.5" y="-52.8" font-family="Helvetica,sans-Serif" font-size="14.00">gini = 0.1</text>
<text text-anchor="middle" x="205.5" y="-37.8" font-family="Helvetica,sans-Serif" font-size="14.00">samples = 2506</text>
<text text-anchor="middle" x="205.5" y="-22.8" font-family="Helvetica,sans-Serif" font-size="14.00">value = [73, 2376, 57]</text>
<text text-anchor="middle" x="205.5" y="-7.8" font-family="Helvetica,sans-Serif" font-size="14.00">class = 2</text>
</g>
<!-- 2&#45;&gt;3 -->
<g id="edge3" class="edge">
<title>2&#45;&gt;3</title>
<path fill="none" stroke="black" d="M261.99,-103.73C254.57,-94.7 246.7,-85.12 239.27,-76.08"/>
<polygon fill="black" stroke="black" points="241.92,-73.8 232.87,-68.3 236.52,-78.25 241.92,-73.8"/>
</g>
<!-- 4 -->
<g id="node5" class="node">
<title>4</title>
<path fill="#823ae5" stroke="black" d="M448,-68C448,-68 323,-68 323,-68 317,-68 311,-62 311,-56 311,-56 311,-12 311,-12 311,-6 317,0 323,0 323,0 448,0 448,0 454,0 460,-6 460,-12 460,-12 460,-56 460,-56 460,-62 454,-68 448,-68"/>
<text text-anchor="middle" x="385.5" y="-52.8" font-family="Helvetica,sans-Serif" font-size="14.00">gini = 0.008</text>
<text text-anchor="middle" x="385.5" y="-37.8" font-family="Helvetica,sans-Serif" font-size="14.00">samples = 489</text>
<text text-anchor="middle" x="385.5" y="-22.8" font-family="Helvetica,sans-Serif" font-size="14.00">value = [0, 2, 487]</text>
<text text-anchor="middle" x="385.5" y="-7.8" font-family="Helvetica,sans-Serif" font-size="14.00">class = 3+</text>
</g>
<!-- 2&#45;&gt;4 -->
<g id="edge4" class="edge">
<title>2&#45;&gt;4</title>
<path fill="none" stroke="black" d="M329.01,-103.73C336.43,-94.7 344.3,-85.12 351.73,-76.08"/>
<polygon fill="black" stroke="black" points="354.48,-78.25 358.13,-68.3 349.08,-73.8 354.48,-78.25"/>
</g>
</g>
</svg>
