<?xml version="1.0" encoding="utf-8"?>
<!-- Generator: Adobe Illustrator 25.0.0, SVG Export Plug-In . SVG Version: 6.00 Build 0)  -->
<svg version="1.1" id="Layer_1" xmlns="http://www.w3.org/2000/svg" xmlns:xlink="http://www.w3.org/1999/xlink" x="0px" y="0px"
	 width="555px" height="267.6px" viewBox="0 0 555 267.6" style="enable-background:new 0 0 555 267.6;" xml:space="preserve">
<style type="text/css">
	.st0{fill:none;stroke:#D68828;stroke-width:1.3255;stroke-miterlimit:10;}
	.st1{fill:none;stroke:#484748;stroke-width:0.6627;stroke-linecap:round;stroke-linejoin:round;stroke-miterlimit:10;}
	.st2{fill:none;stroke:#307EB2;stroke-width:0.6627;stroke-linecap:round;stroke-linejoin:round;stroke-miterlimit:10;}
	.st3{fill:#307EB2;}
	.st4{fill:#FFFFFF;}
	.st5{fill:#FFFFFF;stroke:#307EB2;stroke-width:0.6627;stroke-linecap:round;stroke-linejoin:round;stroke-miterlimit:10;}
	.st6{fill:none;stroke:#307EB2;stroke-width:0.3314;stroke-miterlimit:10;}
	.st7{fill:none;stroke:#307EB2;stroke-width:0.9941;stroke-linecap:round;stroke-linejoin:round;stroke-miterlimit:10;}
</style>
<path class="st0" d="M81.8,235.1h276c1.1,0,2-0.9,2-2V32.7c0-1.1-0.9-2-2-2h-276c-1.1,0-2,0.9-2,2v200.4
	C79.8,234.2,80.7,235.1,81.8,235.1z"/>
<line class="st1" x1="459.8" y1="73.5" x2="435" y2="149.1"/>
<polyline class="st1" points="460.1,149.3 435,149.3 459.3,123.5 "/>
<line class="st1" x1="434.8" y1="71.3" x2="460.3" y2="71.3"/>
<polyline class="st1" points="460.3,147.5 434.7,71.3 459.9,94.6 "/>
<line class="st1" x1="473.7" y1="100.7" x2="498.8" y2="100.7"/>
<polyline class="st1" points="137.7,69.9 213.4,96.8 144.1,66 "/>
<polyline class="st1" points="137.5,81.4 213.4,96.8 144.3,76.9 "/>
<polyline class="st1" points="216.1,104.9 260.9,119.1 206.5,111.4 "/>
<polyline class="st1" points="206.4,125.5 260.9,119.1 216.5,118.8 "/>
<polyline class="st1" points="268,120.5 322.5,125.6 264.5,123.3 "/>
<polyline class="st1" points="268,127.1 322.5,125.6 264.7,129.4 "/>
<polyline class="st1" points="345.2,112.4 353,120.6 341.7,115 "/>
<polyline class="st1" points="345.6,118.8 353,120.6 341.8,121.4 "/>
<line class="st1" x1="406.1" y1="112.7" x2="428" y2="72.6"/>
<line class="st1" x1="379" y1="121.6" x2="427.9" y2="149.1"/>
<line class="st1" x1="516" y1="71.1" x2="521.6" y2="71.1"/>
<line class="st1" x1="516" y1="148.6" x2="521.6" y2="148.6"/>
<polyline class="st1" points="24.4,121.1 100.5,103.3 35.4,95 "/>
<polyline class="st1" points="24.3,101.4 100.5,103.3 35.5,114.5 "/>
<polyline class="st2" points="71.9,33.6 71.9,31.5 9.3,69.3 9.6,182.9 11.3,181.9 "/>
<polyline class="st2" points="70.2,32.2 70.2,30.6 7.6,68.4 7.9,182 9.5,180.9 "/>
<polygon class="st2" points="10.8,70.3 73.4,32.4 72.9,144.6 11.1,183.9 "/>
<g>
	<g>
		<path class="st3" d="M40.9,178.4h-1v-7.5h1V178.4z"/>
		<path class="st3" d="M43.4,173.1l0.1,2.5v2.8h-1v-7.5h1l1.8,5.7l0,0l-0.2-3v-2.7h1v7.5h-0.9l-1.8-5.8l0,0L43.4,173.1z"/>
		<path class="st3" d="M47.8,178.4v-7.5H49c0.9,0,2,0.1,2,2c0,1.5-0.6,2.2-2.2,2.2v3.3H47.8z M48.8,171.7v2.5
			c0.9,0.1,1.1-0.4,1.1-1.2c0-0.7-0.2-1.2-1-1.2h-0.1V171.7z"/>
		<path class="st3" d="M53.2,170.9v5.5c0,1,0.3,1.2,0.7,1.2c0.7,0,0.7-0.4,0.8-1.1v-5.6h1v5.3c0,1,0,2.3-1.7,2.3
			c-1.6,0-1.7-1.1-1.7-2.4v-5.2H53.2z"/>
		<path class="st3" d="M60,170.9v0.9h-1.1v6.7h-1v-6.7h-1.2v-0.9H60z"/>
	</g>
</g>
<g>
	<g>
		<g>
			<path class="st3" d="M59.1,105c-10.1,6.3-20.2,12.5-30.3,18.8c-0.7,0.5-1.4,0.1-1.9-1.1s-0.6-2.9-0.4-4.8
				c0.7-6.2,1.7-13,2.5-20.3c0.7-6.4,2.8-12.7,5.2-14.9c6.4-6.1,13.1-10.1,19.5-11.8c2.4-0.7,4.5,2.9,5.2,8.5
				c0.8,6.2,1.7,11.8,2.4,16.9c0.2,1.7,0.1,3.6-0.4,5.3C60.5,103.3,59.8,104.5,59.1,105z M44,79c-3.2,1.9-6.4,4.4-9.6,7.4
				c-1.8,1.7-3.4,6.5-3.9,11.4c-0.8,7.5-1.8,14.2-2.5,20.4c-0.1,0.5,0,1,0.1,1.4c0.2,0.4,0.4,0.5,0.7,0.4
				c10.1-6.3,20.2-12.5,30.3-18.8l0,0c0.3-0.2,0.5-0.6,0.7-1.2c0.1-0.5,0.2-1.1,0.1-1.6c-0.7-5-1.6-10.7-2.4-17
				c-0.5-4.3-2.2-7.1-3.9-6.6C50.4,75.6,47.2,77.1,44,79z"/>
		</g>
		<g>
			<path class="st3" d="M63.7,118.8c-13.2,8.3-26.3,16.6-39.5,24.8c-0.4,0.3-0.8-0.4-0.8-1.4c0-5.4,0-10.8,0-16.1
				c0-5.6,1.8-12.8,4.1-15.1c10.3-10.4,19.4-17.4,32.9-20.2c2.1-0.4,4.1,4.3,4.1,9.8c0,5.3,0,10.6-0.1,15.9
				C64.4,117.5,64.1,118.5,63.7,118.8z"/>
		</g>
		<g>
			<path class="st3" d="M31.8,157.5c-2.4,1.5-3.6,2.3-6.1,3.8c-0.4,0.3-0.8-0.4-0.8-1.4c0-5.3,0-7.9,0-13.2c3-1.9,4.6-2.9,7.6-4.8
				c0,5.2,0,7.9,0,13.1C32.5,156.2,32.2,157.3,31.8,157.5z"/>
		</g>
		<g>
			<path class="st3" d="M62.1,138.3c-2.4,1.5-3.6,2.3-6.1,3.8c-0.4,0.3-0.8-0.4-0.8-1.4c0-5.2,0-7.8,0-13c3-1.9,4.6-2.9,7.6-4.8
				c0,5.2,0,7.8-0.1,13C62.8,137,62.5,138,62.1,138.3z"/>
		</g>
		<g>
			<path class="st4" d="M30.2,119c1.3-0.8,2.3,1.1,2.3,4.2s-1,6.3-2.3,7c-1.3,0.8-2.3-1.1-2.3-4.2C27.9,122.9,29,119.7,30.2,119z"/>
		</g>
		<g>
			<path class="st4" d="M59.9,106.1c0,3.1-1,6.2-2.3,7s-2.3-1.1-2.3-4.2s1-6.2,2.3-7C58.9,101.2,59.9,103.1,59.9,106.1z"/>
		</g>
	</g>
</g>
<polygon class="st5" points="21.1,99.5 32.2,93.1 32.3,112.6 21.2,119.2 "/>
<polygon class="st5" points="22.7,100.4 33.9,94 34,113.5 22.8,120.1 "/>
<polygon class="st5" points="24.3,101.4 35.4,95 35.5,114.5 24.4,121.1 "/>
<polyline class="st2" points="24.4,121.1 100.5,103.3 35.4,95 "/>
<polyline class="st2" points="24.3,101.4 100.5,103.3 35.5,114.5 "/>
<polygon class="st2" points="99.4,102.1 101.7,100.7 101.9,104.3 99.6,105.4 "/>
<polygon class="st2" points="88,66.9 117.6,71.5 155.6,46.9 126.3,42.2 "/>
<polygon class="st2" points="88,66.9 88,150.1 117.3,155.1 117.6,71.5 "/>
<polygon class="st6" points="88,150.1 126.9,125.6 155.8,130.2 117.3,155.1 "/>
<polygon class="st2" points="126.3,42.2 126.9,125.6 155.8,130.2 155.6,46.9 "/>
<g>
	<g>
		<path class="st3" d="M99.2,171.9c-0.2-0.1-0.4-0.2-0.6-0.2c-1.4,0-1.4,2-1.4,3s0.1,2.9,1.4,2.9c0.2,0,0.4,0,0.6-0.1v0.9
			c-0.2,0.2-0.5,0.2-0.8,0.2c-2,0-2.3-2.2-2.3-3.7s0.2-4,2.2-4c0.3,0,0.6,0,0.9,0.2C99.2,171.1,99.2,171.9,99.2,171.9z"/>
		<path class="st3" d="M104.2,174.6c0,1.4,0,3.9-2,3.9c-1.9,0-2-2.5-2-3.9s0-3.9,2-3.9C104.2,170.8,104.2,173.3,104.2,174.6z
			 M101.4,174.6c0,1.6,0.1,2.9,0.9,2.9s0.9-1.3,0.9-2.9c0-1.6-0.1-2.9-0.9-2.9S101.4,173,101.4,174.6z"/>
		<path class="st3" d="M106.6,173.1l0.1,2.5v2.8h-1v-7.5h1l1.8,5.7l0,0l-0.2-3v-2.7h1v7.5h-0.9l-1.8-5.8l0,0V173.1z"/>
		<path class="st3" d="M111.5,170.9l0.9,5.7l0,0l0.1-0.5l0.4-2.5l0.5-2.7h0.9l-1.5,7.5H112l-1.5-7.5H111.5z"/>
		<path class="st3" d="M119.1,174.6c0,1.4,0,3.9-2,3.9c-1.9,0-2-2.5-2-3.9s0-3.9,2-3.9C119.1,170.8,119.1,173.3,119.1,174.6z
			 M116.2,174.6c0,1.6,0.1,2.9,0.9,2.9s0.9-1.3,0.9-2.9c0-1.6-0.1-2.9-0.9-2.9S116.2,173,116.2,174.6z"/>
		<path class="st3" d="M121.6,170.9v6.7h1.7v0.9h-2.7V171L121.6,170.9L121.6,170.9z"/>
		<path class="st3" d="M125.4,170.9v5.5c0,1,0.3,1.2,0.7,1.2c0.7,0,0.7-0.4,0.8-1.1v-5.6h1v5.3c0,1,0,2.3-1.7,2.3
			c-1.6,0-1.7-1.1-1.7-2.4v-5.2H125.4z"/>
		<path class="st3" d="M132.3,170.9v0.9h-1.1v6.7h-1v-6.7H129v-0.9H132.3z"/>
		<path class="st3" d="M134.3,178.4h-1v-7.5h1V178.4z"/>
		<path class="st3" d="M139.8,174.6c0,1.4,0,3.9-2,3.9s-2-2.5-2-3.9s0-3.9,2-3.9S139.8,173.3,139.8,174.6z M136.9,174.6
			c0,1.6,0.1,2.9,0.9,2.9s0.9-1.3,0.9-2.9c0-1.6-0.1-2.9-0.9-2.9S136.9,173,136.9,174.6z"/>
		<path class="st3" d="M142.2,173.1l0.1,2.5v2.8h-1v-7.5h1l1.8,5.7l0,0l-0.2-3v-2.7h1v7.5H144l-1.8-5.8l0,0L142.2,173.1z"/>
		<path class="st3" d="M110.1,185.3h0.7v2.2h1.7v0.7h-1.7v2.2h-0.7v-2.2h-1.7v-0.7h1.7V185.3z"/>
		<path class="st3" d="M116.7,182.9h1.2c0.7,0,1.9,0,1.9,1.9c0,0.7-0.2,1.8-1,1.9l1.4,3.7h-1l-1.4-3.7l0,0v3.7h-1L116.7,182.9
			L116.7,182.9z M118.7,185c0-0.7-0.1-1.3-0.8-1.3h-0.2v2.5C118.4,186.3,118.7,185.8,118.7,185z"/>
		<path class="st3" d="M124,182.9v0.9h-1.7v2.4h1.5v0.9h-1.5v2.6h1.7v0.9h-2.7v-7.5h2.7V182.9z"/>
		<path class="st3" d="M126.3,182.9v6.7h1.7v0.9h-2.7V183L126.3,182.9L126.3,182.9z"/>
		<path class="st3" d="M130.1,182.9v5.5c0,1,0.3,1.2,0.7,1.2c0.7,0,0.7-0.4,0.8-1.1v-5.6h1v5.3c0,1,0,2.3-1.7,2.3
			c-1.6,0-1.7-1.1-1.7-2.4v-5.2H130.1z"/>
	</g>
</g>
<polygon class="st2" points="137.7,69.9 144.3,66.2 144.5,76.8 137.7,81.4 "/>
<polyline class="st2" points="137.7,69.9 213.4,96.8 144.1,66 "/>
<polyline class="st2" points="137.5,81.4 213.4,96.8 144.3,76.9 "/>
<polygon class="st2" points="212.5,95 215.5,93.3 215.6,98.6 212.6,100.3 "/>
<polygon class="st2" points="172.8,91.8 192,79.7 221,84.1 201.7,96.6 "/>
<polygon class="st2" points="172.8,91.8 172.8,134 201.8,138.2 201.8,96.6 "/>
<polygon class="st2" points="221,84.1 221,126.4 201.8,138.2 201.8,96.6 "/>
<path class="st2" d="M192,79.7v41.8L172.8,134V91.8C172.8,91.8,192,79.3,192,79.7z"/>
<polygon class="st2" points="221,126.4 192,121.4 192,79.7 221,84.1 "/>
<g>
	<g>
		<path class="st3" d="M177.1,178.4v-7.5h1.2c0.9,0,2,0.1,2,2c0,1.5-0.6,2.2-2.2,2.2v3.3H177.1z M178.1,171.7v2.5
			c0.9,0.1,1.1-0.4,1.1-1.2c0-0.7-0.2-1.2-1-1.2h-0.1V171.7z"/>
		<path class="st3" d="M185.2,174.6c0,1.4,0,3.9-2,3.9s-2-2.5-2-3.9s0-3.9,2-3.9S185.2,173.3,185.2,174.6z M182.4,174.6
			c0,1.6,0.1,2.9,0.9,2.9s0.9-1.3,0.9-2.9c0-1.6-0.1-2.9-0.9-2.9S182.4,173,182.4,174.6z"/>
		<path class="st3" d="M190.5,174.6c0,1.4,0,3.9-2,3.9s-2-2.5-2-3.9s0-3.9,2-3.9S190.5,173.3,190.5,174.6z M187.6,174.6
			c0,1.6,0.1,2.9,0.9,2.9s0.9-1.3,0.9-2.9c0-1.6-0.1-2.9-0.9-2.9S187.6,173,187.6,174.6z"/>
		<path class="st3" d="M193,170.9v6.7h1.7v0.9H192V171L193,170.9L193,170.9z"/>
		<path class="st3" d="M196.8,178.4h-1v-7.5h1V178.4z"/>
		<path class="st3" d="M199.4,173.1l0.1,2.5v2.8h-1v-7.5h1l1.8,5.7l0,0l-0.2-3v-2.7h1v7.5h-0.9l-1.8-5.8l0,0L199.4,173.1z"/>
		<path class="st3" d="M207.4,174.4v0.1c0,1.4,0.2,4-1.8,4c-1.8,0-2-1.7-2-3.8s0.2-3.9,1.9-3.9c1.1,0,1.6,0.5,1.8,1.5l-0.9,0.4
			c-0.1-0.5-0.2-1-0.9-1c-0.8,0-0.9,1.1-0.9,2.9c0,2.6,0.4,2.9,0.9,2.9c0.4,0,0.9-0.1,0.9-1.9v-0.4h-0.8v-0.9L207.4,174.4
			L207.4,174.4z"/>
	</g>
</g>
<polygon class="st2" points="259.8,118 262,116.7 262.1,120.2 259.9,121.4 "/>
<path class="st2" d="M177.4,106.8l29,4.4v14.6l-29.3-4.6C177.1,121.2,177.5,106.7,177.4,106.8z"/>
<polygon class="st2" points="187.6,100.3 187.5,114.5 177.1,121.2 177.4,106.8 "/>
<polygon class="st2" points="216.5,105.1 206.4,111.3 206.4,125.8 216.7,119 "/>
<polygon class="st2" points="187.6,100.3 216.5,105.1 206.4,111.3 177.4,106.8 "/>
<polyline class="st2" points="216.1,104.9 260.9,119.1 206.5,111.4 "/>
<polyline class="st2" points="206.4,125.5 260.9,119.1 216.5,118.8 "/>
<polygon class="st2" points="187.5,114.5 216.7,119 216.5,105.1 187.6,100.3 "/>
<polygon class="st2" points="238.1,92.8 272.9,97.9 292.3,85.8 257,80.3 "/>
<polygon class="st2" points="238.1,92.8 238.1,134.8 273.1,140 273.1,97.9 "/>
<path class="st2" d="M292.3,127.6L273.1,140V97.9l19.2-12.1C292.3,85.8,291.8,127.6,292.3,127.6z"/>
<polygon class="st2" points="257.2,122.1 257.2,80.3 292.3,85.8 292.3,127.6 "/>
<polygon class="st2" points="238.1,134.8 257.2,122.1 292.3,127.6 273.1,140 "/>
<g>
	<g>
		<path class="st3" d="M244.1,171.9c-0.2-0.1-0.4-0.2-0.6-0.2c-1.4,0-1.4,2-1.4,3s0.1,2.9,1.4,2.9c0.2,0,0.4,0,0.6-0.1v0.9
			c-0.2,0.2-0.5,0.2-0.8,0.2c-2,0-2.3-2.2-2.3-3.7s0.2-4,2.2-4c0.3,0,0.6,0,0.9,0.2L244.1,171.9L244.1,171.9z"/>
		<path class="st3" d="M249.1,174.6c0,1.4,0,3.9-2,3.9c-1.9,0-2-2.5-2-3.9s0-3.9,2-3.9C249,170.8,249.1,173.3,249.1,174.6z
			 M246.2,174.6c0,1.6,0.1,2.9,0.9,2.9s0.9-1.3,0.9-2.9c0-1.6-0.1-2.9-0.9-2.9S246.2,173,246.2,174.6z"/>
		<path class="st3" d="M251.4,173.1l0.1,2.5v2.8h-1v-7.5h1l1.8,5.7l0,0l-0.2-3v-2.7h1v7.5h-0.9l-1.8-5.8l0,0L251.4,173.1z"/>
		<path class="st3" d="M256.3,170.9l0.9,5.7l0,0l0.1-0.5l0.4-2.5l0.5-2.7h0.9l-1.5,7.5h-0.8l-1.5-7.5H256.3z"/>
		<path class="st3" d="M263.9,174.6c0,1.4,0,3.9-2,3.9c-1.9,0-2-2.5-2-3.9s0-3.9,2-3.9C263.9,170.8,263.9,173.3,263.9,174.6z
			 M261,174.6c0,1.6,0.1,2.9,0.9,2.9s0.9-1.3,0.9-2.9c0-1.6-0.1-2.9-0.9-2.9S261,173,261,174.6z"/>
		<path class="st3" d="M266.4,170.9v6.7h1.7v0.9h-2.7V171L266.4,170.9L266.4,170.9z"/>
		<path class="st3" d="M270.2,170.9v5.5c0,1,0.3,1.2,0.7,1.2c0.7,0,0.7-0.4,0.8-1.1v-5.6h1v5.3c0,1,0,2.3-1.7,2.3
			c-1.6,0-1.7-1.1-1.7-2.4v-5.2H270.2z"/>
		<path class="st3" d="M277.1,170.9v0.9H276v6.7h-1v-6.7h-1.2v-0.9H277.1z"/>
		<path class="st3" d="M279.1,178.4h-1v-7.5h1V178.4z"/>
		<path class="st3" d="M284.6,174.6c0,1.4,0,3.9-2,3.9c-1.9,0-2-2.5-2-3.9s0-3.9,2-3.9C284.6,170.8,284.6,173.3,284.6,174.6z
			 M281.7,174.6c0,1.6,0.1,2.9,0.9,2.9s0.9-1.3,0.9-2.9c0-1.6-0.1-2.9-0.9-2.9C281.8,171.7,281.7,173,281.7,174.6z"/>
		<path class="st3" d="M287,173.1l0.2,2.5v2.8h-1v-7.5h1l1.8,5.7l0,0l-0.2-3v-2.7h1v7.5h-0.9l-1.8-5.8l0,0L287,173.1z"/>
		<path class="st3" d="M255,185.3h0.7v2.2h1.7v0.7h-1.7v2.2H255v-2.2h-1.7v-0.7h1.7V185.3z"/>
		<path class="st3" d="M261.5,182.9h1.2c0.7,0,1.9,0,1.9,1.9c0,0.7-0.2,1.8-1,1.9l1.4,3.7h-1l-1.4-3.7l0,0v3.7h-1v-7.5H261.5z
			 M263.5,185c0-0.7-0.1-1.3-0.8-1.3h-0.2v2.5C263.2,186.3,263.5,185.8,263.5,185z"/>
		<path class="st3" d="M268.8,182.9v0.9h-1.7v2.4h1.5v0.9h-1.5v2.6h1.7v0.9h-2.7v-7.5h2.7V182.9z"/>
		<path class="st3" d="M271.1,182.9v6.7h1.7v0.9h-2.7V183L271.1,182.9L271.1,182.9z"/>
		<path class="st3" d="M274.9,182.9v5.5c0,1,0.3,1.2,0.7,1.2c0.7,0,0.7-0.4,0.8-1.1v-5.6h1v5.3c0,1,0,2.3-1.7,2.3
			c-1.6,0-1.7-1.1-1.7-2.4v-5.2H274.9z"/>
	</g>
</g>
<polygon class="st2" points="264.3,123.2 268,120.8 268.5,126.9 264.5,129.5 "/>
<polyline class="st2" points="268,120.5 322.5,125.6 264.5,123.3 "/>
<polyline class="st2" points="268,127.1 322.5,125.6 264.7,129.4 "/>
<polygon class="st2" points="303.5,107.3 313.3,101 348.4,106.5 338.7,113 "/>
<polygon class="st2" points="303.5,107.3 303.5,128.4 338.8,133.7 338.8,113 "/>
<polygon class="st2" points="348.8,127.6 338.8,133.7 338.8,113 348.4,106.5 "/>
<polygon class="st2" points="303.5,128.4 313.3,122.2 348.8,127.6 338.8,133.7 "/>
<polygon class="st2" points="313.3,101 313.3,122.2 348.8,127.6 348.4,106.5 "/>
<g>
	<g>
		<path class="st3" d="M314.2,178.4v-7.5h1.2c0.9,0,2,0.1,2,2c0,1.5-0.6,2.2-2.2,2.2v3.3H314.2z M315.2,171.7v2.5
			c0.9,0.1,1.1-0.4,1.1-1.2c0-0.7-0.2-1.2-1-1.2h-0.1V171.7z"/>
		<path class="st3" d="M322.3,174.6c0,1.4,0,3.9-2,3.9c-1.9,0-2-2.5-2-3.9s0-3.9,2-3.9C322.2,170.8,322.3,173.3,322.3,174.6z
			 M319.4,174.6c0,1.6,0.1,2.9,0.9,2.9s0.9-1.3,0.9-2.9c0-1.6-0.1-2.9-0.9-2.9C319.5,171.7,319.4,173,319.4,174.6z"/>
		<path class="st3" d="M327.5,174.6c0,1.4,0,3.9-2,3.9c-1.9,0-2-2.5-2-3.9s0-3.9,2-3.9C327.5,170.8,327.5,173.3,327.5,174.6z
			 M324.7,174.6c0,1.6,0.1,2.9,0.9,2.9s0.9-1.3,0.9-2.9c0-1.6-0.1-2.9-0.9-2.9C324.8,171.7,324.7,173,324.7,174.6z"/>
		<path class="st3" d="M330.1,170.9v6.7h1.7v0.9h-2.7V171L330.1,170.9L330.1,170.9z"/>
		<path class="st3" d="M333.9,178.4h-1v-7.5h1V178.4z"/>
		<path class="st3" d="M336.4,173.1l0.2,2.5v2.8h-1v-7.5h1l1.8,5.7l0,0l-0.2-3v-2.7h1v7.5h-0.9l-1.8-5.8l0,0L336.4,173.1z"/>
		<path class="st3" d="M344.4,174.4v0.1c0,1.4,0.2,4-1.8,4c-1.8,0-2-1.7-2-3.8s0.2-3.9,1.9-3.9c1.1,0,1.6,0.5,1.8,1.5l-1,0.4
			c-0.1-0.5-0.2-1-0.9-1c-0.8,0-0.9,1.1-0.9,2.9c0,2.6,0.4,2.9,0.9,2.9c0.4,0,0.9-0.1,0.9-1.9v-0.4h-0.8v-0.9L344.4,174.4
			L344.4,174.4z"/>
	</g>
</g>
<polygon class="st2" points="352.1,119.9 354.2,118.4 354.2,121.8 352.1,123.2 "/>
<polygon class="st2" points="306.4,109.5 306.4,116.4 341.8,121.4 341.7,114.9 "/>
<polygon class="st2" points="310.2,113.2 306.4,116.4 341.8,121.4 345.7,118.7 "/>
<polygon class="st2" points="309.8,106.5 310.2,113.2 345.7,118.7 345.1,112.4 "/>
<polyline class="st2" points="345.2,112.4 353,120.6 341.7,115 "/>
<polyline class="st2" points="345.6,118.8 353,120.6 341.8,121.4 "/>
<polygon class="st2" points="306.4,109.5 341.7,114.9 345.1,112.4 309.8,106.5 "/>
<g>
	<circle class="st3" cx="355.5" cy="127.2" r="0.8"/>
	<circle class="st3" cx="358.9" cy="127.2" r="0.8"/>
	<circle class="st3" cx="362.3" cy="127.2" r="0.8"/>
</g>
<polygon class="st6" points="379.3,101.2 369.2,107.3 404.4,112.6 414.6,106.5 "/>
<polygon class="st2" points="369.2,107.3 369.2,128.4 404.8,133.7 404.8,112.6 "/>
<polygon class="st2" points="414.6,106.5 414.6,127.4 404.8,133.7 404.8,112.6 "/>
<polygon class="st2" points="379.3,101.2 379.3,121.6 369.2,128.4 369.2,107.3 "/>
<polygon class="st2" points="414.6,127.4 379.3,121.6 379.3,101.2 414.6,106.5 "/>
<rect x="424" y="67.8" class="st2" width="7.8" height="59.5"/>
<line class="st2" x1="423.9" y1="75.5" x2="431.8" y2="75.5"/>
<line class="st2" x1="423.9" y1="82.8" x2="431.8" y2="82.8"/>
<line class="st2" x1="423.9" y1="90.1" x2="431.8" y2="90.1"/>
<line class="st2" x1="423.9" y1="97.3" x2="431.8" y2="97.3"/>
<line class="st2" x1="423.9" y1="104.6" x2="431.8" y2="104.6"/>
<line class="st2" x1="423.9" y1="119.9" x2="431.8" y2="119.9"/>
<line class="st2" x1="423.9" y1="112.6" x2="431.8" y2="112.6"/>
<rect x="424.1" y="145.4" class="st2" width="7.8" height="7.7"/>
<g>
	<circle class="st3" cx="428.2" cy="132" r="0.8"/>
	<circle class="st3" cx="428.2" cy="135.4" r="0.8"/>
	<circle class="st3" cx="428.2" cy="138.8" r="0.8"/>
</g>
<polygon class="st2" points="404.7,115.6 406.1,114.6 406,112.6 404.8,113.1 "/>
<polygon class="st2" points="377.3,120.2 378.9,119.4 379.3,121.6 377.5,122.9 "/>
<g>
	<g>
		<path class="st3" d="M412.2,170.9v0.9h-1.7v2.4h1.5v0.9h-1.5v3.4h-1V171L412.2,170.9L412.2,170.9z"/>
		<path class="st3" d="M414.4,170.9v6.7h1.7v0.9h-2.7V171L414.4,170.9L414.4,170.9z"/>
		<path class="st3" d="M419,170.9l1.6,7.5h-1l-0.3-1.5h-1.5l-0.3,1.5h-1l1.6-7.5H419z M419,175.1l-0.4-2.7l0,0l-0.6,3.8h1.2
			L419,175.1z"/>
		<path class="st3" d="M424.1,170.9v0.9H423v6.7h-1v-6.7h-1.2v-0.9H424.1z"/>
		<path class="st3" d="M427.8,170.9v0.9h-1.1v6.7h-1v-6.7h-1.2v-0.9H427.8z"/>
		<path class="st3" d="M431.6,170.9v0.9h-1.7v2.4h1.5v0.9h-1.5v2.6h1.7v0.9h-2.7v-7.5h2.7V170.9z"/>
		<path class="st3" d="M433.7,173.1l0.2,2.5v2.8h-1v-7.5h1l1.8,5.7l0,0l-0.2-3v-2.7h1v7.5h-0.9l-1.8-5.8l0,0L433.7,173.1z"/>
	</g>
</g>
<line class="st2" x1="406.1" y1="112.7" x2="428" y2="72.6"/>
<line class="st2" x1="379" y1="121.6" x2="427.9" y2="149.1"/>
<rect x="463.5" y="67.7" class="st2" width="7.8" height="59.5"/>
<line class="st2" x1="463.4" y1="75.4" x2="471.4" y2="75.4"/>
<line class="st2" x1="463.4" y1="82.6" x2="471.4" y2="82.6"/>
<line class="st2" x1="463.4" y1="89.9" x2="471.4" y2="89.9"/>
<line class="st2" x1="463.4" y1="97.2" x2="471.4" y2="97.2"/>
<line class="st2" x1="463.4" y1="104.5" x2="471.4" y2="104.5"/>
<line class="st2" x1="463.4" y1="119.8" x2="471.4" y2="119.8"/>
<line class="st2" x1="463.4" y1="112.5" x2="471.4" y2="112.5"/>
<rect x="463.2" y="145.4" class="st2" width="7.8" height="7.7"/>
<g>
	<circle class="st3" cx="467.4" cy="132" r="0.8"/>
	<circle class="st3" cx="467.4" cy="135.4" r="0.8"/>
	<circle class="st3" cx="467.4" cy="138.8" r="0.8"/>
</g>
<g>
	<g>
		<path class="st3" d="M461.4,167.9v0.9h-1.7v2.4h1.5v0.9h-1.5v3.4h-1V168L461.4,167.9L461.4,167.9z"/>
		<path class="st3" d="M463.6,167.9v5.5c0,1,0.3,1.2,0.7,1.2c0.7,0,0.8-0.4,0.8-1.1v-5.6h1v5.3c0,1,0,2.3-1.7,2.3
			c-1.6,0-1.7-1.1-1.7-2.4v-5.2H463.6z"/>
		<path class="st3" d="M468.7,167.9v6.7h1.7v0.9h-2.7V168L468.7,167.9L468.7,167.9z"/>
		<path class="st3" d="M472.6,167.9v6.7h1.7v0.9h-2.7V168L472.6,167.9L472.6,167.9z"/>
		<path class="st3" d="M475.2,167.9l0.9,3.5l0,0l0.2-1l0.6-2.5h1.1l-1.4,4.3v3.2h-1v-3.2l-1.5-4.3H475.2z"/>
		<path class="st3" d="M451.3,180.9c-0.2-0.1-0.4-0.2-0.6-0.2c-1.4,0-1.4,2-1.4,3s0.1,2.9,1.4,2.9c0.2,0,0.4,0,0.6-0.1v0.9
			c-0.2,0.2-0.5,0.2-0.8,0.2c-2,0-2.3-2.2-2.3-3.7s0.2-4,2.2-4c0.3,0,0.6,0,0.9,0.2L451.3,180.9L451.3,180.9z"/>
		<path class="st3" d="M456.3,183.7c0,1.4,0,3.9-2,3.9c-1.9,0-2-2.5-2-3.9s0-3.9,2-3.9S456.3,182.3,456.3,183.7z M453.5,183.7
			c0,1.6,0.1,2.9,0.9,2.9s0.9-1.3,0.9-2.9c0-1.6-0.1-2.9-0.9-2.9C453.6,180.7,453.5,182.1,453.5,183.7z"/>
		<path class="st3" d="M458.7,182.1l0.2,2.5v2.8h-1v-7.5h1l1.8,5.7l0,0l-0.2-3v-2.7h1v7.5h-0.9l-1.8-5.8l0,0L458.7,182.1z"/>
		<path class="st3" d="M463.9,182.1l0.2,2.5v2.8h-1v-7.5h1l1.8,5.7l0,0l-0.2-3v-2.7h1v7.5h-0.9l-1.8-5.8l0,0L463.9,182.1z"/>
		<path class="st3" d="M471,179.9v0.9h-1.7v2.4h1.5v0.9h-1.5v2.6h1.7v0.9h-2.7v-7.5h2.7V179.9z"/>
		<path class="st3" d="M475.2,180.9c-0.2-0.1-0.4-0.2-0.6-0.2c-1.4,0-1.4,2-1.4,3s0.1,2.9,1.4,2.9c0.2,0,0.4,0,0.6-0.1v0.9
			c-0.2,0.2-0.5,0.2-0.8,0.2c-2,0-2.3-2.2-2.3-3.7s0.2-4,2.2-4c0.3,0,0.6,0,0.9,0.2L475.2,180.9L475.2,180.9z"/>
		<path class="st3" d="M479.1,179.9v0.9H478v6.7h-1v-6.7h-1.2v-0.9H479.1z"/>
		<path class="st3" d="M482.9,179.9v0.9h-1.7v2.4h1.5v0.9h-1.5v2.6h1.7v0.9h-2.7v-7.5h2.7V179.9z"/>
		<path class="st3" d="M485.3,179.9c1.2,0,2.5,0.1,2.5,3.9c0,3.5-1.2,3.6-2.9,3.6h-0.7v-7.5H485.3z M485.2,180.7v5.8
			c1.6,0,1.6-1.5,1.6-2.8C486.7,182.6,486.9,180.6,485.2,180.7z"/>
	</g>
</g>
<line class="st2" x1="459.8" y1="73.5" x2="435" y2="149.1"/>
<polyline class="st2" points="460.1,149.3 435,149.3 459.3,123.5 "/>
<line class="st2" x1="434.8" y1="71.3" x2="460.3" y2="71.3"/>
<polyline class="st2" points="460.3,147.5 434.7,71.3 459.9,94.6 "/>
<rect x="503" y="68" class="st2" width="7.8" height="59.5"/>
<line class="st2" x1="502.9" y1="75.6" x2="510.8" y2="75.6"/>
<line class="st2" x1="502.9" y1="82.9" x2="510.8" y2="82.9"/>
<line class="st2" x1="502.9" y1="90.2" x2="510.8" y2="90.2"/>
<line class="st2" x1="502.9" y1="97.5" x2="510.8" y2="97.5"/>
<line class="st2" x1="502.9" y1="104.7" x2="510.8" y2="104.7"/>
<line class="st2" x1="502.9" y1="120" x2="510.8" y2="120"/>
<line class="st2" x1="502.9" y1="112.7" x2="510.8" y2="112.7"/>
<rect x="503.1" y="145.4" class="st2" width="7.8" height="7.7"/>
<g>
	<circle class="st3" cx="507.4" cy="132" r="0.8"/>
	<circle class="st3" cx="507.4" cy="135.4" r="0.8"/>
	<circle class="st3" cx="507.4" cy="138.8" r="0.8"/>
</g>
<g>
	<g>
		<path class="st3" d="M498,172c-0.3-0.2-0.5-0.3-0.8-0.3c-0.5,0-0.9,0.5-0.9,1c0,0.3,0.1,0.6,0.3,0.8l0.8,0.8
			c0.7,0.7,1.1,1.2,1.1,2.2c0,1.1-0.7,2-1.8,2c-0.4,0-0.8-0.1-1.1-0.4v-1c0.3,0.2,0.6,0.4,1,0.4c0.6,0,0.9-0.5,0.9-1
			c0-1.5-2.1-1.8-2.1-3.8c0-1.1,0.6-1.9,1.7-1.9c0.4,0,0.7,0.1,1.1,0.2L498,172z"/>
		<path class="st3" d="M503.5,174.6c0,1.4,0,3.9-2,3.9c-1.9,0-2-2.5-2-3.9s0-3.9,2-3.9C503.5,170.8,503.5,173.3,503.5,174.6z
			 M500.6,174.6c0,1.6,0.1,2.9,0.9,2.9s0.9-1.3,0.9-2.9c0-1.6-0.1-2.9-0.9-2.9C500.7,171.7,500.6,173,500.6,174.6z"/>
		<path class="st3" d="M507.7,170.9v0.9H506v2.4h1.5v0.9H506v3.4h-1V171L507.7,170.9L507.7,170.9z"/>
		<path class="st3" d="M511.6,170.9v0.9h-1.1v6.7h-1v-6.7h-1.2v-0.9H511.6z"/>
		<path class="st3" d="M513.8,170.9l1.1,5.4l0,0V176l0.3-1.8l0.6-3.3h0.9l0.7,7.5h-1l-0.2-2.8l-0.1-1.4v-1l0,0l-0.2,1.1l-0.8,4.1
			h-0.7l-1-5.2l0,0l-0.3,5.2h-0.9l0.6-7.5H513.8z"/>
		<path class="st3" d="M520.6,170.9l1.6,7.5h-1l-0.3-1.5h-1.5l-0.3,1.5h-1l1.6-7.5H520.6z M520.6,175.1l-0.4-2.7l0,0l-0.6,3.8h1.2
			L520.6,175.1z"/>
		<path class="st3" d="M524.1,170.9l0.5,1.3c0.2,0.4,0.3,0.9,0.4,1.4l0,0l0.3-1l0.5-1.7h1l-1.4,3.7l1.4,3.8h-1l-0.5-1.3
			c-0.2-0.5-0.3-1-0.4-1.5l0,0c0,0.3-0.1,0.6-0.2,0.9l-0.6,1.9H523l1.4-3.8l-1.3-3.7L524.1,170.9L524.1,170.9z"/>
	</g>
</g>
<line class="st2" x1="473.7" y1="100.7" x2="498.8" y2="100.7"/>
<g>
	<circle class="st3" cx="528.3" cy="113.6" r="0.8"/>
	<circle class="st3" cx="528.3" cy="117" r="0.8"/>
	<circle class="st3" cx="528.3" cy="120.4" r="0.8"/>
</g>
<line class="st2" x1="516" y1="71.1" x2="521.6" y2="71.1"/>
<line class="st2" x1="516" y1="79.3" x2="521.6" y2="79.3"/>
<line class="st2" x1="516" y1="87.6" x2="521.6" y2="87.6"/>
<line class="st2" x1="516" y1="148.6" x2="521.6" y2="148.6"/>
<g>
	<g>
		<path class="st3" d="M527.8,64.1c-0.2-0.1-0.4-0.2-0.6-0.2c-1.4,0-1.4,2-1.4,3s0.1,2.9,1.4,2.9c0.2,0,0.4-0.1,0.6-0.1v0.9
			c-0.2,0.2-0.5,0.2-0.8,0.2c-2,0-2.3-2.2-2.3-3.7s0.2-4,2.2-4c0.3,0,0.6,0,0.9,0.2L527.8,64.1L527.8,64.1z"/>
		<path class="st3" d="M530.9,63l1.6,7.5h-1l-0.3-1.5h-1.5l-0.3,1.5h-1L530,63H530.9z M530.9,67.2l-0.4-2.7l0,0l-0.6,3.8h1.2
			L530.9,67.2z"/>
		<path class="st3" d="M533.7,63h1.2c0.7,0,1.9,0,1.9,1.9c0,0.7-0.2,1.8-1,1.9l1.4,3.7h-1l-1.4-3.7l0,0v3.7h-1V63H533.7z
			 M535.7,65.2c0-0.7-0.1-1.3-0.8-1.3h-0.2v2.5C535.5,66.4,535.7,65.9,535.7,65.2z"/>
	</g>
</g>
<g>
	<g>
		<path class="st3" d="M525.8,84.9l0.9,5.7l0,0v-0.5l0.4-2.5l0.5-2.7h0.9l-1.5,7.5h-0.8l-1.5-7.5H525.8z"/>
		<path class="st3" d="M531.2,84.9l1.6,7.5h-1l-0.3-1.5H530l-0.3,1.5h-1l1.6-7.5H531.2z M531.1,89.1l-0.4-2.7l0,0l-0.6,3.8h1.2
			L531.1,89.1z"/>
		<path class="st3" d="M534.8,87.2l0.2,2.5v2.8h-1V85h1l1.8,5.7l0,0l-0.2-3V85h1v7.5h-0.9l-1.8-5.8l0,0L534.8,87.2z"/>
	</g>
</g>
<g>
	<g>
		<path class="st3" d="M528,74v0.9h-1.1v6.7h-1v-6.7h-1.2V74H528z"/>
		<path class="st3" d="M529.1,74h1.2c0.7,0,1.9,0,1.9,1.9c0,0.7-0.2,1.8-1,1.9l1.4,3.7h-1l-1.4-3.7l0,0v3.7h-1V74H529.1z
			 M531.1,76.1c0-0.7-0.1-1.3-0.8-1.3h-0.2v2.5C530.9,77.4,531.1,76.9,531.1,76.1z"/>
		<path class="st3" d="M534.8,74v5.5c0,1,0.3,1.2,0.7,1.2c0.7,0,0.8-0.4,0.8-1.1V74h1v5.3c0,1,0,2.3-1.7,2.3c-1.6,0-1.7-1.1-1.7-2.4
			V74H534.8z"/>
		<path class="st3" d="M541.9,75c-0.2-0.1-0.4-0.2-0.6-0.2c-1.4,0-1.4,2-1.4,3s0.1,2.9,1.4,2.9c0.2,0,0.4-0.1,0.6-0.1v0.9
			c-0.2,0.2-0.5,0.2-0.8,0.2c-2,0-2.3-2.2-2.3-3.7s0.2-4,2.2-4c0.3,0,0.6,0,0.9,0.2L541.9,75L541.9,75z"/>
		<path class="st3" d="M544.1,74v3.6l1.4-3.6h1l-1.5,3.6l1.6,3.9h-1.1l-1.4-3.8v3.8h-1V74H544.1z"/>
	</g>
</g>
<g>
	<g>
		<path class="st3" d="M524.6,150.6v-7.5h1.2c1.4,0,1.7,0.8,1.7,2c0,0.7-0.1,1.5-0.9,1.7l0,0c0.9,0.3,1.1,0.9,1.1,1.8
			c0,1.4-0.5,2.1-1.9,2.1h-1.2V150.6z M525.7,143.9h-0.2v2.5c0.9,0,1.1-0.5,1.1-1.3C526.6,144.4,526.4,143.9,525.7,143.9z
			 M525.6,149.7c0.9,0,1.1-0.4,1.1-1.2s-0.2-1.3-1.1-1.3V149.7z"/>
		<path class="st3" d="M530.3,150.6h-1v-7.5h1V150.6z"/>
		<path class="st3" d="M534.9,144.1c-0.2-0.1-0.4-0.2-0.6-0.2c-1.4,0-1.4,2-1.4,3s0.1,2.9,1.4,2.9c0.2,0,0.4,0,0.6-0.1v0.9
			c-0.2,0.2-0.5,0.2-0.8,0.2c-2,0-2.3-2.2-2.3-3.7s0.2-4,2.2-4c0.3,0,0.6,0,0.9,0.2L534.9,144.1L534.9,144.1z"/>
		<path class="st3" d="M536.7,143.1l0.9,3.5l0,0l0.2-1l0.6-2.5h1.1l-1.4,4.3v3.2h-1v-3.2l-1.5-4.3H536.7z"/>
		<path class="st3" d="M543.6,144.1c-0.2-0.1-0.4-0.2-0.6-0.2c-1.4,0-1.4,2-1.4,3s0.1,2.9,1.4,2.9c0.2,0,0.4,0,0.6-0.1v0.9
			c-0.2,0.2-0.5,0.2-0.8,0.2c-2,0-2.3-2.2-2.3-3.7s0.2-4,2.2-4c0.3,0,0.6,0,0.9,0.2L543.6,144.1L543.6,144.1z"/>
		<path class="st3" d="M545.8,143.1v6.7h1.7v0.9h-2.7v-7.5L545.8,143.1L545.8,143.1z"/>
		<path class="st3" d="M551.3,143.1v0.9h-1.7v2.4h1.5v0.9h-1.5v2.6h1.7v0.9h-2.7v-7.5h2.7V143.1z"/>
	</g>
</g>
<g>
	<g>
		<path class="st3" d="M185,217.4v1.3h2.1v1.7H185v3h-2v-7.5h4.3v1.7H185V217.4z"/>
		<path class="st3" d="M191,217.4v1.3h2.2v1.7H191v1.3h2.3v1.7H189v-7.5h4.3v1.7H191V217.4z"/>
		<path class="st3" d="M197.1,221.9l-0.5,1.3h-2.1l2.9-7.5h2.1l2.8,7.5h-2.1l-0.5-1.3H197.1z M198.5,218L198.5,218l-0.8,2.4h1.6
			L198.5,218z"/>
		<path class="st3" d="M206,223.3h-2v-5.9h-1.6v-1.7h5.2v1.7H206V223.3z"/>
		<path class="st3" d="M215.5,215.7v4.2c0,1,0,1.9-0.8,2.7c-0.6,0.6-1.6,0.8-2.5,0.8s-1.9-0.2-2.5-0.8c-0.7-0.7-0.8-1.7-0.8-2.7
			v-4.2h2v4c0,1,0.1,2,1.3,2s1.3-1.1,1.3-2v-4H215.5z"/>
		<path class="st3" d="M223.6,223.3h-2.4l-1.8-2.9l0,0v2.9h-2v-7.5h2.9c1.5,0,2.6,0.7,2.6,2.3c0,1-0.6,1.9-1.6,2.1L223.6,223.3z
			 M219.3,219.1h0.2c0.6,0,1.4-0.1,1.4-0.9c0-0.8-0.7-0.9-1.4-0.9h-0.2V219.1z"/>
		<path class="st3" d="M226.7,217.4v1.3h2.2v1.7h-2.2v1.3h2.3v1.7h-4.3v-7.5h4.3v1.7h-2.3V217.4z"/>
		<path class="st3" d="M234.8,215.7h2.8c2.1,0,3.8,1.6,3.8,3.8c0,2.1-1.7,3.8-3.8,3.8h-2.8V215.7z M236.8,221.6h0.4
			c1.2,0,2.2-0.6,2.2-2.1c0-1.3-0.9-2.1-2.1-2.1h-0.5L236.8,221.6L236.8,221.6z"/>
		<path class="st3" d="M244.9,217.4v1.3h2.2v1.7h-2.2v1.3h2.3v1.7H243v-7.5h4.3v1.7h-2.4V217.4z"/>
		<path class="st3" d="M252,223.3h-2v-5.9h-1.6v-1.7h5.2v1.7H252V223.3z"/>
		<path class="st3" d="M256.9,217.4v1.3h2.2v1.7h-2.2v1.3h2.3v1.7H255v-7.5h4.3v1.7h-2.4V217.4z"/>
		<path class="st3" d="M266.5,218.2c-0.4-0.5-1-0.8-1.7-0.8c-1.2,0-2,0.9-2,2.1c0,1.2,0.8,2,2,2c0.6,0,1.3-0.3,1.7-0.8v2.3
			c-0.6,0.2-1.1,0.4-1.7,0.4c-1,0-2-0.4-2.8-1.1c-0.8-0.8-1.2-1.7-1.2-2.8c0-1,0.4-2,1.1-2.8s1.8-1.2,2.9-1.2c0.6,0,1.2,0.1,1.8,0.4
			L266.5,218.2L266.5,218.2z"/>
		<path class="st3" d="M271.3,223.3h-2v-5.9h-1.6v-1.7h5.2v1.7h-1.6V223.3z"/>
		<path class="st3" d="M276.2,223.3h-2v-7.5h2V223.3z"/>
		<path class="st3" d="M286,219.3c0,2.4-1.7,4.2-4.2,4.2s-4.2-1.7-4.2-4.2c0-2.3,2-3.9,4.2-3.9S286,217.1,286,219.3z M279.7,219.4
			c0,1.3,1,2.2,2.1,2.2c1.2,0,2.1-0.9,2.1-2.2c0-1-1-2-2.1-2S279.7,218.3,279.7,219.4z"/>
		<path class="st3" d="M287.5,215.7h2l3.6,4.6l0,0v-4.6h2v7.5h-2l-3.6-4.6l0,0v4.6h-2V215.7z"/>
	</g>
</g>
<path class="st7" d="M79.8,190.6L79.8,190.6c0,5.4,4.4,9.7,9.7,9.7H228c5.4,0,9.7,4.4,9.7,9.7v0.4"/>
<path class="st7" d="M395.7,190.6L395.7,190.6c0,5.4-4.4,9.7-9.7,9.7H247.5c-5.4,0-9.7,4.4-9.7,9.7v0.4"/>
<g>
	<g>
		<path class="st3" d="M434,218.2c-0.4-0.5-1-0.8-1.7-0.8c-1.2,0-2,0.9-2,2.1c0,1.2,0.8,2,2,2c0.6,0,1.3-0.3,1.7-0.8v2.3
			c-0.6,0.2-1.1,0.4-1.7,0.4c-1,0-2-0.4-2.8-1.1c-0.8-0.8-1.2-1.7-1.2-2.8c0-1,0.4-2,1.1-2.8s1.8-1.2,2.9-1.2c0.6,0,1.2,0.1,1.8,0.4
			L434,218.2L434,218.2z"/>
		<path class="st3" d="M437.7,221.6h2.3v1.7h-4.3v-7.5h2V221.6z"/>
		<path class="st3" d="M443.2,221.9l-0.5,1.3h-2.1l2.9-7.5h2.1l2.8,7.5h-2.1l-0.5-1.3H443.2z M444.6,218L444.6,218l-0.8,2.4h1.6
			L444.6,218z"/>
		<path class="st3" d="M453.9,217.7c-0.4-0.3-0.8-0.5-1.3-0.5c-0.4,0-0.8,0.2-0.8,0.6c0,0.4,0.5,0.6,0.9,0.7l0.5,0.1
			c1,0.3,1.9,0.8,1.9,2.1c0,0.8-0.2,1.5-0.8,2c-0.6,0.5-1.4,0.7-2.1,0.7c-0.9,0-1.9-0.3-2.6-0.9l0.8-1.6c0.5,0.4,1.1,0.8,1.7,0.8
			c0.5,0,0.9-0.2,0.9-0.8c0-0.5-0.8-0.7-1.2-0.9c-1.2-0.3-2-0.7-2-2.1c0-1.5,1.1-2.5,2.6-2.5c0.8,0,1.7,0.2,2.4,0.6L453.9,217.7z"/>
		<path class="st3" d="M460.6,217.7c-0.4-0.3-0.8-0.5-1.3-0.5c-0.4,0-0.8,0.2-0.8,0.6c0,0.4,0.5,0.6,0.9,0.7l0.5,0.1
			c1,0.3,1.9,0.8,1.9,2.1c0,0.8-0.2,1.5-0.8,2c-0.6,0.5-1.4,0.7-2.1,0.7c-0.9,0-1.9-0.3-2.6-0.9l0.8-1.6c0.5,0.4,1.1,0.8,1.7,0.8
			c0.5,0,0.9-0.2,0.9-0.8c0-0.5-0.8-0.7-1.2-0.9c-1.2-0.3-2-0.7-2-2.1c0-1.5,1.1-2.5,2.6-2.5c0.8,0,1.7,0.2,2.4,0.6L460.6,217.7z"/>
		<path class="st3" d="M465.2,223.3h-2v-7.5h2V223.3z"/>
		<path class="st3" d="M469.1,217.4v1.3h2.1v1.7h-2.1v3h-2v-7.5h4.3v1.7h-2.3V217.4z"/>
		<path class="st3" d="M475.1,223.3h-2v-7.5h2V223.3z"/>
		<path class="st3" d="M482.3,218.2c-0.4-0.5-1-0.8-1.7-0.8c-1.2,0-2,0.9-2,2.1c0,1.2,0.8,2,2,2c0.6,0,1.3-0.3,1.7-0.8v2.3
			c-0.6,0.2-1.1,0.4-1.7,0.4c-1,0-2-0.4-2.8-1.1c-0.8-0.8-1.2-1.7-1.2-2.8c0-1,0.4-2,1.1-2.8s1.8-1.2,2.9-1.2c0.6,0,1.2,0.1,1.8,0.4
			L482.3,218.2L482.3,218.2z"/>
		<path class="st3" d="M486.1,221.9l-0.5,1.3h-2.1l2.9-7.5h2.1l2.8,7.5h-2.1l-0.5-1.3H486.1z M487.4,218L487.4,218l-0.8,2.4h1.6
			L487.4,218z"/>
		<path class="st3" d="M495,223.3h-2v-5.9h-1.6v-1.7h5.2v1.7H495V223.3z"/>
		<path class="st3" d="M499.9,223.3h-2v-7.5h2V223.3z"/>
		<path class="st3" d="M509.7,219.3c0,2.4-1.7,4.2-4.2,4.2s-4.2-1.7-4.2-4.2c0-2.3,2-3.9,4.2-3.9S509.7,217.1,509.7,219.3z
			 M503.4,219.4c0,1.3,1,2.2,2.1,2.2c1.2,0,2.1-0.9,2.1-2.2c0-1-1-2-2.1-2S503.4,218.3,503.4,219.4z"/>
		<path class="st3" d="M511.2,215.7h2l3.6,4.6l0,0v-4.6h2v7.5h-2l-3.6-4.6l0,0v4.6h-2V215.7z"/>
	</g>
</g>
<path class="st7" d="M404.1,190.7L404.1,190.7c0,5.4,4.4,9.7,9.7,9.7h51c5.4,0,9.7,4.4,9.7,9.7v0.4"/>
<path class="st7" d="M543.6,190.7L543.6,190.7c0,5.4-4.4,9.7-9.7,9.7h-49.6c-5.4,0-9.7,4.4-9.7,9.7v0.4"/>
</svg>
