<?xml version="1.0" encoding="utf-8"?>
<!-- Generator: Adobe Illustrator 26.3.1, SVG Export Plug-In . SVG Version: 6.00 Build 0)  -->
<svg version="1.1" id="Layer_1" xmlns="http://www.w3.org/2000/svg" xmlns:xlink="http://www.w3.org/1999/xlink" x="0px" y="0px"
	 viewBox="0 0 1000 1000" style="enable-background:new 0 0 1000 1000;" xml:space="preserve">
<style type="text/css">
	.st0{fill:#BCBEC0;}
	.st1{fill:#FFFFFF;}
	.st2{fill:#D94827;}
	.st3{fill:#231F20;}
	.st4{fill:#FFE600;}
</style>
<g>
	<path class="st0" d="M675.3,60.6H315.9v346.6c0,14.5,8.9,27.8,23.1,34.3l156.6,71.3l156.5-70.8c14.2-6.4,23.2-19.7,23.2-34.3
		L675.3,60.6"/>
	<path class="st1" d="M667.3,155.5v252.1c0,11.7-7.3,22.5-18.7,27.7l-153,69.2l-153.1-69.7c-11.5-5.2-18.6-15.8-18.6-27.6V68.2
		h343.4V155.5"/>
	<path class="st2" d="M667.3,263.1L561,262.9l0-107.4H428.3v107.4H323.8v111.2h104.4v100.1l67.3,30.2l65.5-29.6V374.1l106.2,0.1
		L667.3,263.1"/>
	<path class="st3" d="M323.8,155.5h343.4V68.2H323.8V155.5"/>
	<path class="st0" d="M674,485.8L650.3,475c-5.7-2.6-12-3.9-18.4-3.9c-6.2,0-12.5,1.3-18.2,3.9l-118.1,53.5l-118.1-53.5
		c-11.6-5.2-25-5.2-36.6,0l-23.7,10.8c-0.8,0.3-1.3,1.1-1.3,1.9v62.6c0,4.9,4.4,8.5,9.2,8.5c1.4,0,2.7-0.3,4.1-0.9l11.7-5.3
		c5.7-2.6,12-3.9,18.3-3.9c6.2,0,12.5,1.3,18.3,3.9l108,48.9c6.4,2.9,13.9,2.9,20.3,0l108-48.8c5.7-2.6,11.9-3.9,18.2-3.9
		c6.3,0,12.6,1.3,18.3,3.9l11.7,5.3c1.3,0.6,2.7,0.9,4.1,0.9c4.8,0,9.2-3.6,9.2-8.5v-62.6C675.3,486.9,674.8,486.1,674,485.8"/>
	<path class="st1" d="M667.4,552.2l-13.6-6.2c-6.8-3.1-14.3-4.7-21.9-4.7c-7.5,0-14.9,1.6-21.7,4.7l-108,48.9
		c-4.2,1.9-9.1,1.9-13.3,0l-108-48.9c-6.8-3.1-14.2-4.6-21.7-4.6c-7.5,0-15.1,1.6-21.9,4.7l-13.6,6.2v-61.4l20.6-9.4
		c9.4-4.2,20.2-4.3,29.6,0l121.6,55l121.6-55c9.4-4.2,20.2-4.2,29.6,0l20.6,9.4L667.4,552.2"/>
	<path class="st3" d="M490.1,571.5c-2.9-0.1-7.8-0.4-10.9-0.1l-0.8-0.7c1-1.1,1.9-2.1,2-3.5c-0.2-3.3,0.1-6.4,0-9.6
		c-0.1-1-1.2-1.8-2.2-3.1l0.6-0.3c3.5-0.1,7.8,0.4,10.9,0.2c1.1-0.1,2.1-0.2,2.8,0.5c0,1.3,0.9,2.6,0.4,3.8c-1.6,0.4-1.6-1-2.3-1.7
		c-2-1.2-4.5-1.1-6.6-1c-0.4-0.2-0.6,0.3-0.3,0.8c-0.1,1.3-0.1,2.7-0.2,4.1c1.9,0.2,4.3,0.5,5.4-0.9c0.6-0.2,0.6-0.2,1-0.1
		c0.6,1.1-0.1,1.4,0.2,1.9c0.1,0.9,0.2,1.9-0.6,2.5c-0.9-0.3-1.1-2.2-2.8-1.9c-1,0.1-1.9-0.2-3.1,0.3c-0.3,1.8-0.6,3.9,0,6
		c1.4,1.4,5.4,1.5,7.1-0.3c0.8-0.7,1-2.4,2-2.5l0.6,1.2C492.8,568.8,492.2,571.3,490.1,571.5 M502.9,571.4c-1.2,0.1-2.3,0-3.4-0.3
		c-0.3-0.6,0.3-0.8,1-1c1.6-2.7,0.8-9.5,0.8-14.1c-0.9-0.3-3.2,0.2-4,0.9c-0.7,0.6-0.6,1.6-1.9,2.1c-1.3-0.5-0.2-2-0.5-2.5
		c0.3-0.9,0.1-1.4,0.2-1.8c0.3-0.8,11.2-0.3,15.3-0.2c1.5,0,0.9,1.6,1.1,2.2c0.1,1,0.6,2.1-0.6,2.7c-1.3-0.5-1-1.3-1.7-2
		c-0.5-1.1-2.5-1.3-3.6-1.2c-0.9-0.3-0.7,0.6-0.7,0.6c-0.4,3.6-0.5,8.7,0,12.2c0.1,0.9,1.5,1.4,1.6,2.3
		C505.7,571.9,504.3,571.5,502.9,571.4 M468.3,544.6c-1.4-0.1-2.9,1.5-3,2.8c-1.6,2.3-2.5,4-4.2,6.4c-1.7,2.9-2.8,6.5-6.3,7.4
		c-2,0.4-2.7,0.9-4,0.2c-4.6-0.5-11.5-4.3-11.8-8c-0.3-3.1,2.1-6,3.8-8.9c1.8-2.9,4.7-5.7,3.9-9.6c-0.6-0.7-1.2-0.7-0.5-1.3
		c0.1-0.6,1.4-0.5,1.9,0.2c1.3,0.8,3.9,1.6,5.1,2.4c0.6,0.7,2.6,0.9,1.8,2c-1.4,0.4-3.4,0.9-4.3,2c-3.1,4-5,8.1-6.8,12.2
		c-0.9,1.8,0.8,3.8,2,5.2c1.2,0.7,3.8,1.6,5.8,1.8c4.8-0.1,7.7-7.9,9.5-11.4c0.9-1.7,1.8-4.1,0.8-6.7c-0.6-0.7,0.1-0.6,0.1-0.6
		c2.6,0.9,4.5,1.7,7,2.5C469,544.1,468.9,544.6,468.3,544.6 M442.3,532.5c-3.6,2.1-6.2,6.1-7.9,9.7c-1.7,2.3-3.3,5.2-4.3,7.6
		c-0.8,0.5-0.9,1.1-1.6,1.6c-0.6-0.1-1.9-0.2-2.6-0.9c0,0-0.6-0.7-0.5-1.2c-0.5-1.3-0.5-6.3-0.6-10.7c-0.5-2.9-0.8-5.8-1-8.7
		c-0.6-0.7-0.3-2.5-1.1-2c-2.4,2.8-3.3,4.6-5.1,8.2c-0.9,2.4-2.6,5.3-2.2,7.1c0.6,0.7,1.1,1.4,0.4,1.9c-0.7,0.5-2-0.2-2.6-0.9
		c-1.3-0.9-2.8-1.5-4.4-1.8c0.2-1.2,0.8-1.1,1.5-1.6c2.7-0.4,3.9-4.6,5.5-6.3c1.8-3.5,2.5-4.6,4.3-7.5c0.7-0.5,1.5-1.7,1-2.4
		c-2-0.8-3.4,0.2-4.7,0.7c-0.7-0.1-1.4-0.1-0.7-0.7c0.1-0.6,0.9-1.1,2.3-1.6c1.4-0.5,3.5-1.5,5.5-0.7c1.8,0.8,3.8,1.7,3.7,2.9
		c2,5.2,2,10.7,2,16.3c0.5,1.3-0.2,1.9,0.2,3.1c2.4-2.8,3.4-5.8,5.1-8.7c0.3-2.5,2.1-5.4,0.2-7.4c0.1-0.6,0.7-0.5,0.7-0.5
		c3.2,0.9,5.8,2.4,8.3,4C443.5,532.7,442.9,532.6,442.3,532.5 M405.6,541c-2-0.8-5.1-2.4-7.6-3.3c-0.7-0.1-1.3-0.7-0.6-1.3
		c0.8-0.6,1.4,0.2,1.4,0.2c2.9-1.6,2.5-4.1,2.8-6.6c-2.4-1.4-4.9-2.7-7.5-3.9c-2.4,2.2-4,5.2-3.7,7.7c-0.8,1.1-1.9-0.2-2.7-0.3
		c-1.2-0.7-2.4-1.5-3.7-2.3c-0.6-0.1-1.3-0.1-1.9-0.8c0.8-1.1,1.9,0.2,3.5-0.8c5.9-4.4,10.4-8.8,15.1-13.3c0.7-0.5-2-0.8-3.2-0.9
		c-1.4-0.2-2.2,1-2.7,0.3l0.1-0.6c2.9-1.6,6.4-3,9.6-1.5c3.2,1.5,3.4,5.3,3,8.4l-1.8,14.6c-0.2,1.3,0.3,2.5,0.8,3.9
		C406.3,540.5,406.3,541.1,405.6,541L405.6,541z M401.3,526.9c-1.3-0.1-4.5-1.1-5.7-2.4c1.7-2.3,4.6-3.9,6.8-6.1
		C402.9,519.1,401.4,526.3,401.3,526.9 M391.3,511.1c-1.3-0.8-1.9-1.5-3.2-1c-1.5,1.1-3.3,4.6-4.2,6.4c-1.8,3.5-3.6,7-5.3,9.9
		c-0.1,0.6,1.1,2,0.3,3.1l-1.4-0.2c-1.7-1.3-3.6-2.3-5.7-3.1c-0.6-0.7-1.2-0.7-0.5-1.3c1.4-0.5,4.2-1.5,5.2-3.8
		c1.7-2.9,4.2-6.4,5.9-9.9l-0.6-0.1c-5.7,2.5-10.8,6.2-16.1,10.1c-0.7,0.5-1.3-0.1-1.3-0.1c-0.3-3.1,0-5,0.6-10.5
		c-0.6-0.7,0.2-6.8-0.5-7.4c-2.2,2.3-4,5.8-5.1,8.7c-1.5,1.7-3.3,4.6-1.5,7.2c0,0-0.1,0.7-0.7,0.6c-2.5-1.5-5.1-2.4-7.6-3.9l0.1-0.7
		c3.4-0.2,5.9-4.3,8.2-6.5c1.7-2.9,4.1-5.8,5.8-9.3c0.1-0.6-1.9-1.5-2.5-1.5c-1.2-0.7-2.8,0.4-4.1,0.8c-0.6-0.7-0.5-1.3,0.2-1.3
		c1.7-1.9,4.5-2.5,6.9-1.7c2.6,0.9,5,2.9,5.5,4.9c0,5-0.6,9.8-0.5,14.8l-0.1,0.6c5.9-3.7,11.1-8.1,16-9.5c3.4-0.2,4.6,0.5,5.2,1.2
		c1.3,0.7,1.9,1.4,1.8,2C392,510.5,391.3,510.4,391.3,511.1 M639.3,515.7c-3.6,1.7-9.7,4.1-13.2,6.4c-0.6,0.1-1.4-0.4-1.4-0.4
		c0.4-1.9,0.8-3.7-0.1-5.4c-2.5-3.9-4.3-7.8-6.8-11.6c-0.8-1.1-2.8-1.5-4.8-2.4c-0.1-0.6,0.5-0.7,0.5-0.7c4.2-2.2,9.7-4.2,13.2-6.3
		c1.2-0.7,2.4-1.5,3.7-1c0.9,1.6,3,2.6,3.2,4.3c-1.7,1.4-2.6-0.3-3.9-0.7c-3.2-0.2-6.2,1.3-8.6,2.8c-0.6,0.1-0.5,0.7,0.2,1.2
		c0.9,1.6,1.8,3.3,2.7,5c2.4-1,5.5-1.9,5.8-4.3c0.5-0.6,0.5-0.6,1.2-0.7c1.5,1.1,0.9,1.7,1.6,2.2c0.8,1.1,1.6,2.2,1.1,3.4
		c-1.3,0.2-2.9-2-4.6-0.6c-1.2,0.7-2.4,0.9-3.5,2.2c1,2.3,2.1,5.1,4.3,7.2c2.7,0.8,7.5-1.5,8.3-4.6c0.5-1.3-0.5-3.5,0.6-4.3
		c0.7-0.1,1.5,1.1,1.5,1.1C640.6,510.9,641.7,514.3,639.3,515.7 M613.8,527.3c-1.2,0.7-3,1.5-4.3,1.7c-0.7-0.5-0.2-1.1,0.4-1.8
		c0-4.2-5.6-11.7-8.9-17.3c-1.3,0.2-3.6,2.2-4.1,3.5c-0.5,1.2,0.3,2.3-0.7,3.6c-1.9,0.2-1.7-2.2-2.3-2.7c-0.2-1.2-0.9-1.7-1-2.3
		c-0.2-1.1,13.1-6.9,18-9.3c1.8-0.9,2.2,1.5,2.9,2c0.8,1.1,2.2,2.1,1.1,3.5c-1.9,0.2-2.1-1-3.4-1.4c-1.4-1-3.8-0.1-5.1,0.6
		c-1.2,0.2-0.5,1.2-0.5,1.2c2,4.5,5.4,10.6,8.5,14.4c0.8,1.1,2.7,0.8,3.5,1.9C617.5,526.2,615.6,526.5,613.8,527.3 M597.4,534.2
		c-6.9-3.4-13.3-7.3-20.2-10.6c2.7,5,4.1,10.2,9.1,13.7c0.2,1.2,1.9,0.4,1.5,1.6c-0.5,0.6-2.5,0.8-3,1.5c-1.9,0.2-2.9,2.2-3.8,0.5
		c1.2-4.8-2.7-9.1-4.6-13.6c-0.9-1.7-1.7-3.4-2.6-4.5c-2.5,0.3-3.3,3.4-3.7,5.2c-0.5,0.6-2-0.4-2.7-0.3c-0.8-1.1-2.2-2-4-1.2
		c-1.9,0.8-3.6,1.6-5.5,2.4c1,2.3,2,4.5,3.6,6.7c0.1,0.6,0.6-0.1,0.6-0.1c2.5-0.9,4.3-1.8,4.7-3.5l0.6-0.1c1.4,1,2.3,2.1,3.1,3.7
		c-1.3,0.2-2-0.3-2.6-0.3c-1.9,0.8-3.7,1-5.4,2.5c0.9,2.2,2.7,4.9,4.2,7.1c0.8,1.1,2.6,0.2,4.6,0c3.6-1.6,5-5.3,4.5-8.8
		c0.7-0.1,1.2-0.8,1.3-0.2c1.5,1.6,1.7,3.3,2.6,4.9c0.2,1.2,1,1.7-0.4,1.9c-4.7,2.4-8.4,4-13.2,6.4c-1.3,0.2-1.8,0.8-3,1.5
		c-0.7-0.5-0.6,0.1-0.7-0.5c-0.7,0.1-0.1-0.6-0.2-1.2c0.6-4.2-1.7-6.9-4.4-12.5c-0.8-1.1-3.5-6.1-5.4-5.8c-0.6,0.1-0.5,0.6-0.5,1.2
		l0.2,1.2c-0.7-0.6-1.9-0.4-3.1,0.4l0.1,0.6c0.3,2.3,1.3,4.5,2.9,6.7c2.3,3.2,3.7,7.9,7.9,10.3c0.7,0.5,0.1,0.6-0.5,1.2
		c-1.9,0.9-4.4,1.2-6.1,2.6c-1.5-1-0.3-2.3-0.5-3.5c-0.3-2.4-1.3-4-2.9-6.1c-0.9-2.6-2.1-5-3.6-7.3c-0.5,1.2-0.9,2.5-0.6,4.2
		c0,4.2-0.1,8.3,0.5,13c0,0-0.6,0.1-0.5,0.6c-0.6,0.1-1.3-0.4-1.4-1c-4.2-2.5-10.2-8.3-15-10.7c0,0,0.3,1.8,0.9,1.7
		c2.5,4.5,3.8,8.4,6.9,12.2c0.9,1.1,2.2,1.6,3.5,2c-0.6,0.1,0.1,0.6-0.5,0.6c-1.1,0.8-1.8,0.9-3,1.6c-1.2,0.2-2.9,2.1-3.7,1
		c1.5-3.1-1-6.9-2-9.2c-1.8-3.3-3.5-6.1-5.2-9.5l-0.7,0.1c-1.1,0.8-0.9,2.5-1.3,4.4c-0.5,0.6-0.5,0.6-1.3,0.7
		c-0.2-1.1-0.4-2.9,0.1-4.1c-0.3-1.9,0.8-3.7,2.6-4.5c1.8-0.8,4.8-1.7,6.4-0.2c4.3,3.1,7.3,6.2,11.5,8.7l0.5-0.6
		c-0.5-3.9-0.6-7.9-0.4-11.8c-0.4-2,0.6-4.1,2.5-5.1c0.6-0.7,2.5-0.9,3.9-0.5c0.5-0.6,1.6-2,2.2-2.1c4.8-2.3,9-4.6,13.9-6.4l0.6-0.1
		c0.8,1.1,1,2.3,2.3,2.1c0.4-1.3,0.3-2.4,1.3-3.8c1.7-1.9,5.4-3,8.2-1.6c4.7,1.2,13.3,7.3,16.6,8.1c-1.8-3.4-3.5-6.2-5.1-8.9
		c-1.5-1-3-3.2-5.1-3.5c-0.6,0.1-0.7-0.5-0.7-0.5c2.4-0.9,4.8-2.4,7.2-3.3c1.4,0.4-0.4,1.9-0.2,3c1.3,4.6,3.8,8.4,5.6,12.3
		c1.6,1.6,2.5,3.9,3.4,5.5C601,533.2,598,534.7,597.4,534.2"/>
	<path class="st1" d="M495.6,142.4h70v-12.7l9.3-5l-9.3-5v-10.6l9.3-5l-9.3-5V86c0,0-3.3-0.1-5.6,0.1c-2.2,0.2-4.6,0.8-4.6,0.8
		c-1.8,0.4-3.5,0.6-5.3,0.7c-14.1,0.8-20.8-8-33.1-8.2c-5-0.1-12.3,1.2-21.4,8.1c-9.1-6.9-16.4-8.2-21.4-8.1
		c-12.3,0.2-19,9-33.1,8.2c-1.8-0.1-3.6-0.3-5.3-0.7c0,0-2.3-0.6-4.6-0.8c-2.2-0.2-5.6-0.1-5.6-0.1v13.1l-9.4,5l9.3,5v10.6l-9.3,5
		l9.3,5v12.7L495.6,142.4"/>
	<path class="st3" d="M453.7,117.8c0,2.6-2.6,4.1-5.2,4.1c-1.9,0-3.8-0.8-5.1-2.2l0-0.4l1.3-1.3l0.5,0c1,0.8,2,1.3,3.3,1.3
		c1.3,0,2.3-0.6,2.3-1.6c0-2.4-7.1-1.7-7.1-6.2c0-2.4,2.2-3.9,4.7-3.9c1.9,0,3.4,0.7,4.6,1.8v0.4l-1.2,1.3l-0.4,0.1
		c-1.1-0.8-1.8-1.1-2.9-1.1c-1.2,0-1.9,0.6-1.9,1.4C446.6,114,453.8,113,453.7,117.8 M470.5,119.5v0.4c-1.4,1.3-3.3,2-5.2,2
		c-4.3,0-7.7-3.1-7.7-7.1c0-4,3.4-7.1,7.7-7.1c2.1,0,3.9,0.8,5.2,2v0.4l-1.4,1.4l-0.5,0c-0.9-0.8-2.1-1.2-3.4-1.2
		c-2.5,0-4.6,1.9-4.7,4.3c0,0,0,0.1,0,0.2c0,2.6,2.1,4.5,4.7,4.5c1.2,0,2.5-0.4,3.4-1.2l0.5,0L470.5,119.5 M475.3,107.8h2.3l0.3,0.3
		v13.2l-0.3,0.3h-2.3l-0.3-0.3v-13.2L475.3,107.8 M491.8,119.6v1.8l-0.3,0.3h-7.9l-0.3-0.3v-13.2l0.3-0.3h7.9l0.3,0.3v1.8l-0.3,0.3
		h-5.3v3.1h4.9l0.3,0.3v1.8l-0.3,0.3h-5v3.5h5.3L491.8,119.6 M509,108.1v13.2l-0.3,0.3H506l-0.4-0.2l-5.8-9.4v9.3l-0.3,0.3h-2.3
		l-0.3-0.3v-13.2l0.3-0.3h2.6l0.4,0.2l5.8,9.4v-9.3l0.3-0.3h2.3L509,108.1 M523.2,108.1v1.8l-0.3,0.3h-3.2v11.2l-0.3,0.3h-2.3
		l-0.3-0.3v-11.1h-3.3l-0.3-0.3v-1.8l0.3-0.3h9.4L523.2,108.1 M527.7,107.8h2.3l0.3,0.3v13.2l-0.3,0.3h-2.3l-0.3-0.3v-13.2
		L527.7,107.8 M547.5,121.6h-2.4l-0.4-0.2l-0.9-2.4h-5.6l-0.9,2.4l-0.4,0.2h-2.4l-0.3-0.3l5.2-13.3l0.4-0.2h2.1l0.4,0.2l5.2,13.3
		L547.5,121.6L547.5,121.6z M543,116.7l-2-5.4l-2,5.4H543"/>
	<path class="st4" d="M476.5,253.7c0.7,0,5.4,2.3,5.4,2.3c3.7-2.7,6.8-3.3,10.4-3.3c4.3,0,5.5-2,5.7-4.5c-6.3,1.2-9.5-1.3-17.1,4.1
		c2.7-2.6,4.8-4.1,10-4.6c3.7-0.7,6.5,0.4,8-1.8l-1,0.1c-2.5,0-4.7-1.2-7.7-1.2C485.7,244.8,479.6,246.6,476.5,253.7 M462.3,248.6
		c0.4,0.8,0.7,1.6,1.1,2.3c0.7,0.2,1.4,0.6,2.1,1.2c0.6-1.9,1.5-3.9,2.8-5.9l0.6-1.9c-2.4-2.9-7-6.4-11.8-6.4c1.1,1.8,2.2,4,3.2,6.1
		C461.3,245.7,461.9,247.2,462.3,248.6 M468.7,253.6l1.3-0.1l0.9,0.1l0.2,0l1.6,0.3c2.3-5.1,9.5-11.6,13.1-12.9c0,0-1.5-0.4-3.2-0.4
		c-5.6,0-9.5,3.2-11.9,6.7l-0.6,1.9C469.6,250.7,469.1,252.3,468.7,253.6L468.7,253.6 M446.6,272.7c0.5,0.7,0.9,1.4,1.3,2
		c1.3,2,2.6,3.6,3.9,5.3l1.3,0.6h0.1l0.2,0l0.2,0h0c0.5-0.2,1-0.5,1.2-1c1-1.2,0.1-1.5-0.8-2l-0.2-0.1l-0.3-0.2l-0.5-0.6l-0.4-0.4
		l-0.1-0.2l-0.1-0.2l-0.8-1.1l-1.1-0.4c-0.8,0-1.1-0.5-1.1-1.3c-0.1-0.7,0.2-0.9,0.9-1.7l0.7-0.3l0.4-0.1l0.4,0l0.2,0l0.5,0.3
		c0.8,0.7,1.2,1.7,1.3,2.5c0.1,0.8,0.9,1.5,1.7,2.2l0.6,0.1l0.2,0l1,0.2l0.7,0.2l0.2,0l0.5,0.1h0.1l0-0.9l0-0.2l0.3-1.2l0-0.5
		c-0.8,0.1-1.5,0.9-2.3,0.1c-1.1-0.8-2-1.7-2.6-2.8l0.2-0.4l0.4-0.3l1.7-1c0.7-0.8,3-1.6,3.7-3.3c-0.1-0.7,0.6-2.2,0.6-3
		c-0.1-0.9-0.9-0.8-0.9-0.8l-1.2-0.2c-0.6,2.4-1.8,3.5-3.4,4.3l-0.4-0.1l-0.2,0l-0.3-0.1l-0.2-0.1l-0.3-0.2L454,266l-0.1-0.1
		l-0.2-0.8v-0.3l0-0.6l0.1-0.3l0.1-0.5l0.1-0.4l0.2-0.4l0.2-0.5l0.2-0.3l0.3-0.5l0.1-0.2l0.4-0.6l0-0.1l0.5-0.6l0.1-0.1
		c-0.9-0.8-1.8-2.2-2.6-2.2c-0.7,0.8-1.4,1.5-2.3,1.6c-2.2,1-1.3,3.1-1.3,3.9c-0.4,2.1-1.4,4.3-2.2,6.5v0l-0.4,1.1
		C446.9,271.3,446.7,272,446.6,272.7"/>
	<path class="st4" d="M464.4,263.9l-1.9,0.1c-0.5,2.8-0.7,5.2-4.6,6.8c-1,0.4-0.4,1.2,0.1,1.5c0.8,0,1.5-0.4,2.2-0.5h0l0.2,0l0.1,0
		l1.1,0.3l0,0l0.6,0.4l1.5,1.2l0.9,0c1.5-0.9,0.9-0.8,0-2.2C462.1,268.5,465.2,264.5,464.4,263.9 M440.1,322.9L440.1,322.9
		L440.1,322.9h-0.3H440.1 M462.3,253.1c0,0-3.5-0.5-6.4-0.8l0,0l-1.2-0.1h-0.1l-1,0l-0.4,0l-0.9-1.2l-0.3-0.3l-0.5-0.5l-0.4-0.2
		l-0.5-0.2l-0.4-0.1l-0.5-0.1h-0.1c-0.7,0-2.2,0.4-2.4,0.8c-1.7,2.2-1,5.7,0.8,6.9l0.4,0.2l1.3,0c1.5-0.3,2.7-1.2,3.3-2.6l0-0.1
		l0.1-0.3l0,0l0.1-0.2l0.4,0.5c1.1,1.2,4,3.6,6.4,5.3h0c1.2,0.8,2.2,1.4,3,1.6c0.7-1.6,1.2-3.2,1.3-4.5v0
		C464.7,255.3,464.1,253.7,462.3,253.1 M462.3,280.4l-0.2-0.4l-0.1-0.1l-0.5-0.1l-0.1,0l-0.8,2.5l-1.9,6l-1.6-0.4l2.1-8.5l-1.4-0.2
		l0,0c-3.3,3-4.1,7.7-3.5,10.8c0.2,1.3,0.7,2.3,1.3,2.8l0.1,0.1l0.6,0.2l0.4,0l0.2,0l0.2,0l0.4-0.1l0.2-0.1l0.5-0.2l0.2-0.1l0.7-0.4
		l0.1-0.1l0.6-0.5l0.3-0.3l0.4-0.4l0.3-0.3l0.4-0.4l0.3-0.4l0.1-0.1v0C463.2,287,464.1,283.5,462.3,280.4"/>
	<path class="st4" d="M465.2,278.3l1.6,0.1h0l0.9-0.1l0.1,0l0.7-0.2l0.1,0l0.5-0.4l0-0.1l0.2-0.6c0.4-1,0.8-1.1,1.6-1.2l0.7-0.2
		l0.2,0l0.2,0l0.3,0.1l0.1,0.1l0.3,0.3l0.1,0.2c0.4,0.5,0.6,1.3,0.6,2c-0.7,1.5-2.8,1.2-3.7,1.2c-1.5,0.8-3,0.9-4.7,1
		c0.9,2.3,0,4.1,0.9,4.8l0.2-0.2c3.3-2.3,7.3-4.3,9.8-6.1l0.3-0.2l0.9-0.7l0.2-0.2l0.8-0.9c0.5-3.1,1.3-6.1,2.5-9
		c-1.5-1-2.4-3.6-2.5-4.4c-1.9,0.1-3.2,0.6-4,1l-0.6,0.4c0.2,2.1,1.4,4.5-0.9,5.3h-0.3l-0.2,0l-0.2,0l-0.3-0.1l-0.2-0.1l-0.3-0.2
		l-0.2-0.1l-0.3-0.3l-0.1-0.1l-0.4-0.5l0-0.1c-0.6-1.1-0.9-2.4-1-3.6l0-0.2c0,0-1.3-0.2-2-0.1c-1.3,3.1-0.5,6.5,1.2,8.6l0.1,0.8
		l-0.7,0.8l-0.5,0.5l-0.1,0.1l-0.5,0.3l0,0l-0.6,0.1h-0.1l-0.7-0.1c-1.5-0.2-2.2-2.6-2.9-1.8l0.1,1.1l0.1,1.9
		C462.6,277.8,463.8,278.1,465.2,278.3L465.2,278.3 M424.5,320c0.7,0.1,1.5,0.2,2.2,0.2c8.6,0,15.6-7.6,16.7-11.1
		c0.8-2.4,1.6-4.8,2.4-7.1c0.7-3.6,1.7-7.6,3.5-10.2l1-0.8c0.5-1,0.9-1.9,1.3-2.7c0-1.1,0.1-2.3,0.3-3.4c-0.3-0.7-0.5-1.4-0.5-2.1
		l-0.1,0c-0.6,1.1-1.6,1.9-2.9,2.1l-0.2,0c-0.6,0.1-1.2,0.3-1.7,0.5c-2.5,2.2-5.3,5.6-7.9,10.4c-2.7,5-6.7,11.9-15.1,17.3
		c0.7,0.1,1.4,0.2,2.1,0.2c10.3,0,15.1-11.1,17.3-16.4C441.8,307.7,436.1,313.7,424.5,320 M488,297.4c0.8,0-3.5-2-4-8.5
		c-0.5-5.8-1.5-9.1-3.2-11.5l0,0.2l-0.3,0.7c-1.2,2-4.1,3.7-7.4,5.6c-1.9,1.1-3.8,2.2-5.5,3.4c-0.5,0.3-1.1,0.5-1.7,0.5l-0.5-0.1
		c-0.2,0.6-0.5,1.2-0.8,1.8c0.8,4,0.1,8.2-0.5,12.2l-0.3,1.7c0,0.6,0,1.1,0.1,1.7c1.6,3.6,2.3,4.9,6.4,7.8c-2.4-7.1,0.9-11,1.7-17.3
		c0.2-1.7-0.2-4.3-1.1-6.9c3.3,3.2,0.8,11.8,5.9,15.7c4.6-7.1,1.1-16.4,1-22.5C480.5,294.9,485.5,296.7,488,297.4 M461.5,297.5
		c0.2-1.5,0.3-2.9,0.4-4.3c-1.4,1.3-3.1,2.3-5,2.3l-0.8-0.1c-0.9-0.1-2.4-0.6-3.4-2.6l-0.2,0.1h-0.1c-1.2,2.7-2.5,5.9-3.8,9.6
		c-0.4,1.9-0.7,3.6-1,4.8c-1.4,6.1-7.5,13.2-7.5,13.2c4.6-0.4,7.3-2.8,7.3-2.8l0.2-0.3c0.7,3.8,1.9,7.5,4.4,9.7
		c-1.9-11.8-0.9-23.1,1.6-27.3c0,0.3-1,14.8,1,19.6l0,0c0.9,2.7,2.7,4.5,5.4,4.8c-1.7-2.8-3.3-6.3-2.5-9.2l0.1-0.2
		c0.3,0,1.8,4,5.7,4l1.5-0.2c-4.7-4.2-4.4-9.6-3.6-15.2C461,301.4,461.3,299.4,461.5,297.5"/>
	<path class="st4" d="M470.5,255.8c-1.3-0.2-2.2,0.4-2.9,1.3h0l-0.2,0.3l-0.2,0.4c-0.7,1.3-1,3.1-1.3,4.9c1,0.5,2.4,0.5,3.8,0.3l0,0
		l0.3-0.1c0.6-0.1,1.2-0.2,1.8-0.3l0.3-0.1c0.9-0.2,1.7-0.4,2.5-0.6l1.5-0.4l0.4-0.1l1.1-0.1l0.9,0c1.7,0.8,1.3,2.3,1.9,3.4
		c1.1,1.9,2.7,1.1,3.9,0l0.1-0.1l0.4-0.4l0.1-0.1l0.4-0.4l0.3-0.4l0.1-0.1l0.2-0.2c0.7-1.5,0.7-2.5-0.2-3c-0.8-0.5-1.7-0.9-2.7-1.2
		l-0.1,0l-0.9-0.1H482l-0.4,0l-0.3,0l-0.4,0.1l-0.3,0.1l-1.4,0.7l-0.3-0.6l-0.2-0.2l-0.4-0.4l-0.3-0.2l-0.4-0.3l-0.3-0.2l-0.4-0.2
		l-0.4-0.2l-0.3-0.1c-0.7-0.3-1.4-0.6-2.1-0.8h0l-1.1-0.2l0,0L470.5,255.8 M519,290.6c3,0,6-0.3,8.9-1c18.2-5.1,31.8-10.8,46.8-10.8
		c1.5,0,3.1,0.1,4.7,0.2c8.1,0.8,17.7,7.1,13.6,16.3c-2.9,8.3-16.3,10.7-28.6,10.7c-3.8,0-7.4-0.2-10.7-0.6c0.6,1,1.6,2.6,2,3.1
		l0.8,0.9c3.4,0.4,7.1,0.6,10.8,0.6c6.3,0,12.3-0.6,16-1.9c5.6-2.2,15.2-6.3,15.2-19.1c0-6.7-2.6-19.1-17.1-23
		c2,2.9,2.9,4.3,2.6,8.1l-0.1,0c-0.9,0-5.3-7.3-14.6-7.3c-1.6,0-3.4,0.2-5.3,0.7c3.6,1.4,5.9,3.1,6.1,6.5c-0.8-1.4-9.9-4.4-14-4.4
		c1.7,6.4-5.9,8.7-11.9,11c-6.8,2.7-15.4,6-23.5,6c-11.5,0-14.1-4.3-14.1-8.2c0-8.2,8.2-13.9,13.8-13.9c10.6,0,13.4,9.7,25.9,9.7
		c0.6,0,1.2,0,1.8-0.1c-3-1-8-3.7-8-7.4c0-6.3,12.9-1.8,17.1-12.8c-2.1,0.4-4.2,0.5-6.3,0.6c-5.1,0-5.2-1.8-10-1.8
		c-5,0-8.1,3.9-10.6,6.9c1.7-5.8-0.6-12.9-9.9-12.9c-1.8,0-4.3,0.7-6.2,2.3c0.7,0.3,7.1,1,6.4,6.4c0,4.2-19.3,9.2-19.3,23.3
		C501.3,287.9,510.4,290.6,519,290.6 M444.8,283.4c1.5-1.3,2.9-2.2,4.3-2.7l-0.4-0.5c-1.6-2-3.1-4.2-4.5-6.4l-0.3-1.5
		c0.2-1,0.5-1.9,0.8-2.9c-2.9,0.1-5.6,1.1-7.8,2.8c-3.6,3.3-5.5,7.9-8.6,10.5c0.8,0.3,1.5,0.4,2.3,0.4c3.3,0,6.2-2.4,9.2-6
		c-1.4,3.2-3.7,2.4-3.7,11.3c0,5.4-5.2,10.7-9.3,13.9C437,300.1,437.5,287.2,444.8,283.4 M538.4,349.9c0-3.5,1.5-7.7,2.3-10.6
		c-3.1-2.9-6.3-6.4-10-10.5c-0.8-0.7-2.7-2.3-3.6-2.6c-0.6,0.1-1.9,0.6-4.9,2l-0.4,0.2c-5.7,2.5-14,5.4-20.7,7.2
		c-2,5.4-0.3,8.7,8.2,10.1c0.9,0.1,1.8,0.1,2.7,0.1c2.2,0,4.2-0.2,6.2-0.2c2.3,0,4.4,0.3,6.5,1.6c8,4.9,1.6,12-9.7,13.4
		c-1.8,0.2-3.9,0.5-5.9,0.5c-4.3,0-8.4-1.1-9.5-5.4c-0.3-0.7-0.8-0.9-1.6-1.4c-2.1-1.3-4.9-1.5-6.5-2.1c-3.2-0.7-2.5-4.2-5.6-4.2
		c-1.1,0.1-2.1,0.5-2.8,1.3c-0.6-0.6-1.4-0.9-2.2-0.9c-1.7,0-3.8,1.1-4.9,2.5c1.7,0,3.3,0.7,4.9,1.4l0.4,0.1l0.3,0l0.4,1.3
		c0.3,0.5,0.9,0.7,1.7,0.7c0.8,0,1.7-0.2,2.6-0.2l0.4,0c0.8,0,1.1,0.8,1.2,1.2c0.6,1.9,0.6,4-2.8,4c-0.7,0-1.3-0.5-1.9-1.5
		c-0.1-0.2-0.5-0.8-1.2-0.8h0c-1.5,0.1-2.4,1.2-3,2.5l-1.2-0.1c-2.4,0-5.2,1.2-5.8,3c0.8-0.3,1.7-0.5,2.6-0.5c0.8,0,1.6,0.1,2.5,0.4
		l1.2,0.4l0.2,0.1l0.1,1l0.6,1l0.6,0.3c0.8,0,1.5-1,2.6-1.3l1.5-0.3l0.9,0.1c2.7,0.5,2.5,4.3,1.1,5l-0.9,0.1c-1.5,0-2.2-1.1-3.3-1.1
		l-0.7,0.2c-1.2,0.8-1.5,2.1-1.2,3.3c-2.5,0.3-6,3-6,4.3c2.3-0.7,3.1-1.5,7.1-1.5h0.5c0.8,0.8,1.7,1.5,2.7,1.7l1.5,0.2
		c1.1,0,2.1-0.4,2.6-1c2.4-3.6,3.8-4.7,6.9-5.1l0.8,0c0.5,1.7-0.5,2.9-2.6,4.7l0.6,0.1c2.4,0,7.4-3,6.5-4.5c4,0.4,9,1.5,9,4.2
		c0,1.9-2.8,4.7-2.7,4.7c6.9,0,13.6-9.1,17.7-12l0.5-0.2l0.2,0.2c-0.4,0.5-2.8,7.3,0.1,10c1.5-3.2,9.4-12,14.3-13.5
		c-2.3,5-3.8,10.6,5,12.1c-6.4-6.4,0-12.1,3.2-13.5c0.8-0.4,1.2-1.1,1.2-1.7C549.2,355.9,538.4,354.7,538.4,349.9"/>
	<path class="st4" d="M439.1,322.8c-0.6-0.2-1.2-0.6-1.5-1.1c-0.5-0.8-0.4-1.8,0.2-2.6l0.2-0.2c-3.1,2.1-7,3.6-11.2,3.6
		c-0.9,0-1.8-0.1-2.7-0.2c-1.1-0.1-1.9-0.9-2.2-1.9c-0.2-1,0.3-2,1.2-2.4c1.7-0.9,3.2-1.8,4.6-2.7c-1.5,0.2-3,0.1-4.5-0.1
		c-1-0.1-1.9-0.8-2.2-1.8c-0.2-0.9,0.2-1.9,1-2.4c2.9-1.9,5.3-3.9,7.2-6.1l-0.5-0.7l-1.1,0.3l-0.6,0.1c-1,0-1.9-0.5-2.4-1.2
		c-0.6-1-0.3-2.2,0.6-2.9l0.4-0.3c-2.7-3.3-5.6-6.6-6.7-7.5c-1.4-1.3-3.5-0.9-5-2.3c-0.2-0.2-0.5-0.4-0.9-1.3
		c-2.7-6.7-2.5-21.2-2.1-22.4c0.8-2,2-3.2,3.3-4.3c1.2-1,0.1-2.4-0.7-2.9c-0.8-0.4-1.7-0.7-2.6-0.8c-0.8-2.5-3.1-3.7-5.8-4H405
		c-0.5,0-1,0.5-0.1,1.1c1.3,0.8,0.7,0.5,1.1,1.7c0.2,0.5,0.5,1,1.1,1.3l0.4,0.1c-1,0.3-1.7,0.8-1.7,1.7c0,0.8,4.3,1.3,1.5,3.9
		c-0.6,0.6-1.5,1-2.4,1.1h-0.2c-4.2-0.5-0.8-4.3-3-4.3c-1.1,0-2.4,0.3-3.7,0.8l0.1-0.2c-0.6-0.7-3.8-2.5-6.3-2.5l-0.6,0
		c-1.7,0.4,2.3,0.4,3.9,4.8l-0.7,1.4c0,2,5.1,0.2,4.9,4.3L399,271l-1.2,0.7c-0.9,0-1.8-0.8-2.9-0.8l-0.6,0.1l-1.1,0.4l-1,0.9l0-0.1
		c-3.8-0.7-4-2.9-4.8-2.9l-0.1,0c-1.3,0.7,1.4,5.8,3.6,5.8l0.2,0l0.2-0.2c0,0.7,0.3,1.4,1,1.9l0.8,0.2l0.8-0.1
		c1.1-0.2,2.3-0.4,3.3-0.4c1.6,0,2.9,0.5,3.8,2c1.3,3.4-0.9,5.4-4.3,5.4c-0.9,0-1.8-0.1-2.8-0.4c-0.8,2.5,3.8,2.7,6.5,2.8h0.1
		l1.2,0.3c1.3,0.8,1.9,2,1.9,3.2c0,4-3.1,12.6-8.9,12.6l-0.8,0c2.3,2,3.9,2.8,5.3,2.8c1.2,0,2.3-0.5,3.7-1.2
		c-1.4,3.4-2.3,3.7-5.2,5.7c0,0,1.2,0.7,3.1,0.7c1.4,0,3.2-0.4,5.2-1.8c-1,3.8-2.7,7.2-6.7,8.9c0,0,2.3,1.3,4.6,1.3
		c1.4,0,2.7-0.5,3.7-1.9h0c0.3,0,3.1,7.8-4.8,11.9c0.9,1.2,8.8,8,16.1,8c6,0,11.6-0.8,17-4.1C437.2,329.3,438.2,326.1,439.1,322.8"
		/>
	<path class="st4" d="M599.5,361.3l1.1,0.1c5.9,0,11.7-7.1,13.3-10.9c-4.7,2.2-7.9,3-10.1,3c-2.2,0-3.4-0.9-4-2.3l0.5,0.1
		c12.2-1.1,13.1-8.3,13.6-12.8c-4.6,3.1-7.1,4.3-10.1,4.3c-1.3,0-2.6-0.2-4.3-0.6c0,0-0.6-0.9-1.3-1.3l-0.6-0.9l-0.6-0.9
		c-0.6-0.6-1.5-0.9-2.4-0.9c-2.8,0-6.4,2.5-10.8,2.5c-1.5,0-3.2-0.3-4.9-1.1c-1.9-0.9-3.6-3.3-4.3-4.7c-1.3-2.8-1.5-5.6-3.1-8
		c-1.6-3.5-4.8-6.3-8-8.5c-3.8-2.2-7.1-5.3-9.9-8.6c-0.8-0.9-2.8-4.3-3.4-5.2c-2.3-3.2-7.2-6.7-11.6-6.7c-3.2,0.7-8.1,2.5-11.3,3.2
		c-11.3,2.1-19.5,3.4-29.9,5.6l-0.3,0c-2.5,0-4.3-4.3-6.5-8.4c-0.5,0.9-1.5,1.4-2.5,1.4l-0.8-0.1c-2.1-0.5-3.9-1.6-5.5-3
		c-0.1,3.1-0.9,6.2-2.7,9c-0.4,0.6-1.1,1.1-1.8,1.2l-0.5,0c-0.6,0-1.2-0.2-1.7-0.6c-1-0.7-1.7-1.6-2.3-2.5c-0.7,2.7-1,5.1,0.1,8.5
		c0.3,1-0.1,2.1-1.1,2.6l-1.5,0.4c-0.6,0-1.2-0.2-1.7-0.5c-2.7-1.9-4.2-3.3-5.3-5c0.1,2.8,1,5.2,3.3,7.3c0.7,0.6,0.9,1.5,0.7,2.3
		c-0.3,0.8-1,1.5-1.9,1.7c-1.4,0.4-2.9,0.4-4.4,0c0.3,0.7,0.7,1.4,1.2,2.2c0.5,0.8,0.4,1.8-0.2,2.5c-0.5,0.6-1.3,1-2.2,1l-0.4,0
		c-2.1-0.3-4-1.2-5.4-2.8c0.1,1,0.3,2,0.4,2.9c0.2,1-0.4,2-1.4,2.4l-1.2,0.3c-0.7,0-1.4-0.2-1.9-0.7c-1.9-1.7-3.3-4.1-4.3-7.3
		c-1,0.5-2.3,0.9-3.8,1.2c-1.6,6.6-5.8,19.8-13.6,23c-4.8,2.2,0.6,10.4-13.9,16.1c-2.3,0.8-5.2,1.8-8.3,1.8c-1.7,0-3.5-0.3-5.3-1.1
		c-1.2-0.6-2.4-1.2-3.6-1.9c-2.6-1.9-2.9-5.6-5.1-5.6c-0.6,0-1.2,0.4-1.9,1.1c-2.9,0-6.4,0.1-8.3,3.4c0.8-0.2,1.7-0.3,2.4-0.3
		c1.6,0,2.9,0.3,3.6,0.5l-0.4,1l0.2,1.1l1.1,0.4c1.1,0,2.4-0.9,3.5-0.9l0.6,0.1c1.7,0.7,1.7,4.9,0,5.6l-0.8,0.1
		c-1.6,0-2.4-1.6-4.1-1.6l-0.8,0.1c-0.6,0.3-1,1.3-1.1,2.6c-2,0.1-6,1.9-6.7,4.8c2.4-1.2,3.7-1.7,5.1-1.7c0.6,0,1.3,0.1,2,0.3h0.1
		l0.2,0c0.3,0.7,0.7,1.3,1.2,1.8l0.6,0.2l0.6-0.1c1.3-0.2,1.3-1.2,2-1.5c0.5-0.1,1-0.2,1.6-0.2c1.9,0,2.5,1.3,2.5,3
		c0,0.6,0,1.7-1.4,2.1l-0.6,0.1l-0.4,0l-0.9-0.5l-1-0.3c-1,0-1.3,1.2-1.3,1.6c0,0.4,0.3,1,0.8,1.6c-1.5,1.8-3,3-5.1,3.7
		c0.6,0.3,2,0.5,3.4,0.5c1.8,0,3.7-0.3,4.4-0.9l0.4-0.5c1,0.6,2,1,2.9,1l1.2-0.2c2.6-1.8,1.9-6.8,5.8-6.8c1,0,2,0.3,3,0.7
		c1.1,0.4,2.2,3,0.3,6.1c0.9-0.2,5.1-3.4,5.8-4.7c0.8-2.1-0.4-3.9,0.4-5.3c0-0.7,5.7-5.7,7.3-5.7c2,1,4.2,1.4,6.5,1.4
		c7.1,0,14.8-3.8,17.2-5.9l-1,0.1c-4.1,0-11.3-2.8-10.6-4.7c1.9,1.4,5.2,2.1,9,2.1c7.3,0,16.1-2.6,19.1-7.5
		c-1.2,0.3-2.5,0.4-3.7,0.4c-3,0-6.3-1-9.9-4.1c1.9,0.8,3.9,1.2,6,1.2c6.3,0,12.8-3.4,14.6-7.2h-0.1c-4.4,0-7.6-3.3-7.6-4.7
		c0.6,0.1,1.2,0.2,1.8,0.2c7.7,0,18.3-7.2,19.8-7.2l0.1,0c-1.6,4.2-3.1,5-4,7.1c6.7-0.6,16.9-6.4,21.8-13c0.2,4.5-3.4,6.9-7.6,9.9
		c4.7,0,19.6-4.5,29.2-8.7c1.4-0.7,5.3-2.5,6.5-2.5c1.8,0,5.4,3.3,5.6,3.4c12.6,13.9,18,19.6,35.1,20.8c1.6,0.3,3.2,0.3,5,0.3
		c2.1,0,4.2-0.1,6.2-0.1c5.1,0,9.8,0.6,11.6,5.1c2.3,5.7-2.4,14.2-8.9,14.2c-2.4,0-4.3-2.9-4.8-3.5c-1-1.4-1.2-3.5-3.3-3.5
		c-1,0.1-1.8,0.5-2.5,1.2c-0.7-0.4-1.5-0.6-2.3-0.6c-3.1,0-6.6,2.4-7.3,3.5c1.4-0.3,2.4-0.5,3.5-0.5c1.2,0,2.4,0.3,3.8,0.9
		c-1.3,3,2.3,2.3,3.6,3.5l0.8,1.3c0.9,1.8-1.2,3.4-3.1,3.4c-0.7,0-1.4-0.2-1.9-0.8l-0.9-0.4l-0.2,0c-0.7,0.1-1.1,0.7-1.4,1.5
		c-2.4,0-5,4.1-5.1,5.5c1.2-0.4,4.3-0.5,5.8-0.7l0.2,0.3l1.2,0.5l0.2,0c1.8-0.3,2.7-1.5,4-2.1l1.4-0.2c3.4,0,4.9,4,1.1,4l-0.8-0.1
		l-0.6,0l-0.7,0.2c-0.9,1-0.6,2.1-0.1,3.1l0.5,0.8c-1.5,0.6-3.4,0.7-5.2,0.7c0.4,1.2,2.5,1.7,4.6,1.7c1.5,0,2.9-0.3,3.8-0.7l1.6,0.1
		c1.6,0,3.2-0.5,3.8-1.8c0.1-0.2,0.7-1.4,0.3-2.2l-0.7-1.3c-0.1-0.3-0.2-0.8,0.1-1.3c0.6-1.2,1.7-2.3,3-2.9c1.6,1,2.1,2.2,3,4.9
		c2.7-2.2,1.6-4.7,1.1-5.8l0,0l0.8,0c4.2,0,8.4,1.3,10.6,1.6l0.8,0c3.3,0,6.9-2.3,7.7-4.8c-1.1,0.3-2.2,0.4-3.3,0.4
		c-3.5,0-7.2-1.2-7.8-2.8c1,0.2,1.9,0.2,2.7,0.2c6.4,0,10.5-4.5,13.3-8.1c-2.1,0.7-4.7,1.1-7,1.1
		C602.8,363.6,599.9,362.9,599.5,361.3 M434.9,270.6c2.6-2.4,6-4.2,11.1-4.5c0.4-1.1,0.8-2.1,1-3.1v0c-0.3-1.1-0.2-2.3,0.2-3.4
		l-0.7-0.3c-3-2-3.7-6.9-1.5-10c1.2-1.8,4.6-1.9,4.6-1.9h0.2c2.5,0,4,1.4,4.9,2.5c1.6,0.1,3.6,0.3,5.2,0.5l-0.2-1.1
		c-0.3-0.6-0.5-1.2-0.8-1.8l-1.1-2.4c-1.7-2.5-4.5-5-9.2-6.6c0.4,1.7,2.8,3.9,3.7,5.4c0,0-5-2.9-7.4-2.9c-3.1,0-4.3,0.8-6.2,1.5
		c5.4,0.5,8.1,2.7,8.2,2.7c-1.9-0.2-3.3-0.5-4.7-0.5c-2.3,0-4.4,0.6-8,2.7c1.7,0.9,3.2,1.6,4.7,1.9c-4.3,1.1-7.1,3.6-7.2,5.7
		c2.4-1.5,5.4-2.3,7.8-2.5c-2.4,2.6-5.3,4.9-8.5,6.7c0,0,1.2,0.5,2.8,0.5c1.1,0,2.4-0.2,3.7-0.8c-1.3,1.5-3.6,3-5.6,6.6
		c3.3-2.6,6.7-3.7,8.9-3.9c0,0-12.1,4.5-13.8,18.5C428.5,277.8,431,273.6,434.9,270.6 M494.6,295.1c0.6,0,0.9-0.2,0.7-0.6
		c-3-2.4-2.1-6.5-3-9.8c-0.5-2.1-0.9-7.4-5.5-13.4c2.3,1.2,4.2,4.6,4.6,5.5c2.4,4.9,2.2,16.3,7,17c-3.1-11.3-1.6-15.7-4-23.4
		c-1.4-2.5-4.2-4.1-7.2-4.2c0,0-0.1,0.3-1.6,0.8c-0.7,0.5-1.5,0.9-2.4,1.2l-0.1,0.8c-0.7,1.8-1.2,3.3-1.6,4.9
		c6.2,8.1,4,13.3,7.3,18.6C489.8,294,493,295.1,494.6,295.1 M485.3,257.3c0.6,0.3,1.2,0.6,1.8,1c1.5,0.9,2.1,2.4,1.7,4.3l-0.1,0.8
		c7.5,1.5,9,4.4,10.5,9.2c0.9-8.1-2.5-11.2-5.2-13.4c0.5,0.2,1.1,0.2,1.7,0.2c2.2,0,4.5-1,4.5-1.4c-2.3-1.7-5-2.6-7.9-2.6
		C489.8,255.4,487.4,256.1,485.3,257.3"/>
	<path class="st3" d="M567.4,369.5l-0.7,0l-0.1,0l-0.1,0c-1.1,0.2-2.1,0.9-2.7,1.8c-3.3,1.3-5.7,5.4-5.8,7.4l-0.2,3.7l3.9-1.4
		c0.4-0.1,2-0.2,2.9-0.3l0.9-0.1c0.7,0.4,1.5,0.7,2.4,0.7l0.7,0l0.9-0.2c-0.2,0.6-0.2,1.2-0.1,1.9c-0.6,0-1.1,0-1.7,0H564l1.1,3.1
		c0.8,2.1,3.4,3.4,7.1,3.4c0.8,0,2.6-0.1,4.2-0.7l1.1,0.1c2.9,0,5.3-1.2,6.3-3.2c0.5-1,0.8-2.1,0.6-3.2l0.1,0.2l1.2,3.6l3.1-2.5
		c1.8-1.4,2.6-3.1,2.6-5.1c1.7,0.2,3.4,0.5,4.8,0.8c1.1,0.2,2.1,0.4,2.9,0.5l1.1,0.1c4.4,0,9.1-3,10.3-6.5l1.4-4.3l-2.9,0.9
		c3-2.1,5-4.6,6.1-6.1l4.8-6.1l-7.9,2.6c-1.2,0.4-2.6,0.7-4.1,0.8c4.1-2.7,7.1-7.1,8.3-9.9l2.4-5.7l-5.5,2.6c2.6-3.2,3-7,3.3-9.4
		l0.6-5.5l-4.9,3.4c-4.3,2.9-6.3,3.9-8.5,3.9c-0.7,0-1.6-0.1-2.6-0.3l-0.9-0.9l-0.1-0.2l-1.1-1.5l-0.1-0.1l-0.1-0.1
		c-1.2-1-2.7-1.6-4.3-1.6c-1.7,0-3.4,0.6-5.2,1.2c-1.8,0.6-3.7,1.3-5.6,1.3c-1.3,0-2.5-0.3-3.7-0.8c-1.1-0.5-2.5-2.2-3.1-3.6
		c-0.5-1-0.9-2.1-1.2-3.2c-0.5-1.6-1-3.3-2-4.9c-1.5-3.3-4.4-6.4-8.8-9.3l-0.1,0l-0.1,0c-2.1-1.3-4.1-2.9-5.9-4.6
		c2.7,0.2,5.4,0.4,8.3,0.4c4.1,0,11.9-0.3,17-2.1c5.1-2,16.9-6.5,16.9-21.3c0-4.7-1.4-20.5-18.9-25.3l-6.7-1.8l3.5,5.1
		c-2.9-1.7-6.2-2.5-9.6-2.5c-2.1,0-4.1,0.3-6.1,0.8l-6.9,1.9l0.5,0.2l-0.8,0h-3.4l0.8,2.9c0.3,1.3,0.2,2.3-0.5,3.2l-4-1.2
		c-2.6-0.8-6.2-3-6.2-5.2c0-0.8,0.2-1.1,3.8-2.1c4.1-1.1,10.3-2.7,13.1-10l1.4-3.8l-4.4,0.7c-2.4,0.4-4.3,0.5-5.8,0.5
		c-1.4,0-2.9-0.2-4.2-0.8c-1.8-0.7-3.8-1.1-5.8-1.1c-2.8,0-5.6,1-7.8,2.7c-0.4-1.7-1.2-3.4-2.4-4.7c-1.6-1.8-4.7-4-10.3-4
		c-2.2,0-5.5,0.8-8.1,2.9l-2.8,2.4l3.5,1.4l0.9,0.3c3.1,0.7,4.2,1.7,3.9,3.7l0,0.1v0c-0.4,0.7-2.8,2.3-4.5,3.4
		c-3.6,2.4-8.4,5.5-11.5,10c-0.2-3.5-1.2-6-2.5-7.8c1.8-0.6,3.5-1.5,3.5-3.2c0-0.7-0.4-1.4-1-1.8c-1.4-1-2.8-1.8-4.5-2.3
		c1.9-1.1,3-3,3.1-5.5l0-0.5l0.5-0.6l0.5-1.4c0-1.3-1.2-2.3-2.6-2.4h-0.1l-0.3,0l-0.6,0c-0.8,0-1.7-0.2-2.8-0.5
		c-1.6-0.5-3.3-0.7-5-0.7c-0.7,0-1.6,0-2.6,0.2c0.5-0.4,0.8-1.1,0.8-1.7c-0.1-1-0.8-1.9-1.8-2.2c-1.3-0.3-2.6-0.5-4-0.5
		c-4.9,0-8.7,2-11.6,4.8c-3-3.5-8.3-7.3-13.9-7.3c-0.9,0-1.8,0.4-2.3,1.2c-0.4,0.5-0.5,1.2-0.3,1.8c-1.6-0.9-3.2-1.7-5-2.3l-0.9-0.2
		c-0.6,0-1.2,0.2-1.8,0.6c-0.6,0.5-1,1.2-0.9,2l-1-0.1c-3.2,0-4.9,0.7-6.4,1.3l-0.9,0.4c-1.1,0.4-1.7,1.4-1.6,2.5l0.3,0.7
		c-1.3,0.5-2.5,1.2-3.7,1.9c-0.7,0.4-1.2,1.2-1.2,2c0,0.8,0.5,1.5,1.2,2l0,0c-2.3,1.5-3.7,3.5-3.8,5.5c0,0.8,0.4,1.5,1,1.9l-0.5,0.3
		c-0.8,0.4-1.3,1.3-1.3,2.1c0.1,0.9,0.7,1.6,1.6,2c0.1,0.1,0.6,0.2,1.4,0.4c-0.6,0.8-1.2,1.7-1.7,2.6c-0.4,0.8-0.3,1.7,0.2,2.4
		c-2.5,3.1-4.7,7.3-5.4,12.9c-0.1,1,0.5,2,1.5,2.4l-0.1,1.2c0.2,0.8,0.8,1.5,1.7,1.7c1.1,0.4,2.2,0.5,3.3,0.5c1,0,2-0.2,3-0.4
		c-0.1,1-0.1,2.1-0.1,3.3c0,3.8-3.3,7.7-6.1,10.2c-2.1-2.6-4.3-5.1-6.7-7.4c-1.2-1.1-2.6-1.5-3.7-1.8c-0.7-0.2-1.2-0.3-1.4-0.5
		l-0.3-0.5c-2.4-5.9-2.3-19.1-2-20.9c0.6-1.4,1.3-2.3,2.6-3.3c1-0.8,1.5-2,1.3-3.2c-0.3-1.4-1.1-2.6-2.4-3.3
		c-0.6-0.4-1.4-0.7-2.1-0.8c-1.4-2.5-4-4-7.4-4.3l-0.1,0H405c-1.3,0-2.6,0.7-3.1,1.9c-0.4,0.9-0.2,2.3,1.3,3.4l0.1,0l0.2,0.5
		l0.2,0.4l-0.3,0.5c-0.5-0.2-1.1-0.3-1.6-0.3c-0.9,0-1.9,0.1-2.8,0.4c-1.8-1.1-4.6-2.2-7-2.2l-1,0.1l-0.2,0l-0.2,0.1
		c-1.8,0.5-2.2,1.6-2.3,2.2c-0.2,1.6,1.3,2.4,1.8,2.7c0.6,0.3,1.5,0.8,2.2,2l-0.4,1l-0.1,0.3v0.3c0,1.7,1.1,2.5,2.2,3l-0.6,0.1
		c-0.6,0.1-1.1,0.3-1.6,0.6l-0.3,0.1c-0.7-0.3-1-0.7-1.3-1c-0.4-0.5-1.3-1.6-2.9-1.6l-1,0.1l-0.2,0.1l-0.2,0.1
		c-0.7,0.4-2.3,1.5-1.4,4.3c0.6,1.9,2.3,4.7,4.7,5.6l1.3,1.4c0.7,0.5,1.6,0.8,2.5,0.8l1.5-0.2c0.9-0.2,1.8-0.4,2.6-0.4
		c0.8,0,1,0.1,1.3,0.6c0.2,0.7,0.2,1.3,0,1.6c-0.3,0.4-1,0.6-1.9,0.6c-0.7,0-1.3-0.1-2-0.3l-2.6-0.8l-0.8,2.4
		c-0.4,1.2-0.2,2.5,0.7,3.5c1.7,1.9,5.1,2.3,8.2,2.3l0.6,1.2c0,3.4-2.7,10.2-6.2,10.2l-0.4,0l-8.3-1.1l6,5.1
		c1.5,1.3,3.1,2.5,4.9,3.1l0,0l-0.8,0.5l-2.9,2l3.1,1.8c0.3,0.2,2,1.1,4.6,1.1l0.6,0c-0.8,1.1-1.9,2.1-3.2,2.6l-4.1,1.8l3.8,2.3
		c0.3,0.2,3.1,1.8,6.1,1.8c0.6,0,1.2-0.1,1.7-0.2c-0.1,1.9-1,4.2-4.2,5.8l-2.4,1.3l1.5,2c1.2,1.6,9.7,9.1,18.4,9.1
		c4.9,0,10-0.5,15.3-2.8c-1.9,3.4-4.2,6.3-7,7.4c-3,1.3-3.6,3.8-4.1,6c-0.8,3.2-1.8,6.9-9.8,10.1c-2.1,0.7-4.6,1.6-7.2,1.6
		c-1.4,0-2.9-0.3-4.2-0.8c-1-0.5-2.1-1-3.1-1.6c-0.7-0.5-1.3-1.5-1.8-2.5c-0.9-1.5-2.1-3.7-4.9-3.7c-1.1,0-2.2,0.4-3,1.1
		c-2.9,0.1-7.1,0.6-9.5,4.6l-2.8,4.8l5.9-1.5c0.6-0.1,1.1-0.2,1.7-0.2l0.5,0c0.1,0.6,0.3,1.3,0.9,1.8l0.2,0.2
		c-1.1,0.6-1.8,1.6-2.1,2.7c-3,0.9-6.3,3.2-7,6.3l-1.2,5.1l5.1-2.6c2.2-1.2,3.1-1.4,3.7-1.4l0.5,0l1.1,1.3l0.1,0.1l0.1,0l1.3,0.7
		c-0.3,0.6-0.5,1.2-0.5,1.8l0.3,1.4c-0.8,0.8-1.7,1.4-2.8,1.7l-6.1,1.8l5.7,2.5c1.4,0.6,3.5,0.7,4.6,0.7c1.6,0,3.7-0.2,5.2-0.9
		c0.8,0.3,1.6,0.4,2.4,0.4c0.8,0,1.6-0.2,2.4-0.5l0.3-0.1l0.2-0.2c1.7-1.2,2.4-2.9,3-4.3c0.3-0.6,0.7-1.8,1-2l0.1,0
		c0.2,0,0.7,0,1.5,0.3c0.1,0.4,0.3,1.5-0.6,2.9l-3.1,5l6.2-1.6c1.9-0.5,6.5-4.2,7.5-6l0.1-0.1l0-0.1c0.6-1.5,0.4-2.9,0.3-3.9
		l-0.1-1.1l0.2-0.3c0.8-0.9,3.3-3.1,4.6-3.9c2,0.8,4.2,1.1,6.5,1.1c8.2,0,16.5-4.3,19.1-6.6l2.9-2.5c5.8-1.2,11.5-3.8,14.1-8
		l2.8-4.6l-1.3,0.3c2.5-1.5,4.5-3.4,5.5-5.5l1.5-3.3l-4,0c-0.6,0-1.3-0.1-1.9-0.3c3.4-0.7,6.8-2.2,9.8-3.6l-0.4,0.7l-1.6,3.6
		l4.4-0.4c3-0.3,6.3-1.4,9.7-3h4.2c1.6,0,4-0.4,6.8-1.1c-0.7,2.7-0.6,4.9,0.6,6.8c1.6,2.5,4.9,4.1,10.1,4.9c1.1,0.1,2.1,0.2,3.2,0.2
		c1.2,0,2.3-0.1,3.4-0.1c0.9-0.1,1.9-0.1,2.8-0.1c2.2,0,3.7,0.3,5,1.2c1.9,1.1,2.7,2.3,2.3,3.5c-0.6,2.1-4.6,4.8-10.9,5.6
		c-1.8,0.3-3.7,0.4-5.5,0.5c-5.3,0-6.4-1.8-6.9-3.6l0-0.1l-0.1-0.1c-0.4-1-1.2-1.9-2.3-2.4l-0.3-0.2c-1.7-1-3.5-1.5-5-1.8
		c-0.6-0.1-1.2-0.3-1.8-0.5l-0.3-0.1l-0.3-0.1c-0.4-0.1-0.5-0.2-1.1-1.1c-0.7-1.1-2-3.2-5.1-3.2c-1,0-2,0.3-2.9,0.7
		c-0.7-0.2-1.4-0.3-2.2-0.3c-2.6,0-5.5,1.4-7.1,3.5l-2.9,3.7h5.1c0.9,0,2,0.4,3.3,0.9l0.4,0.7l0.2,0.3c-1,0.4-1.9,1.1-2.5,2
		c-3.1,0.1-6.9,1.8-7.9,4.6l-1.9,5.2l5.6-2.3l1.4-0.3c0.4,0,0.9,0.1,1.5,0.2c0.2,0.8,0.7,1.5,1.4,2.1l0.8,0.5
		c-0.6,0.7-0.9,1.5-1.1,2.4c-2.9,1.2-5.9,3.8-5.9,6v3.2l3.5-1c0.7-0.2,1.2-0.4,1.7-0.6c1.1-0.4,1.9-0.7,3.9-0.8
		c1.5,1.2,3.4,1.9,5.3,1.9c2,0,3.7-0.7,4.7-2l0-0.1l2,0.6l1.4,0.2c2.6,0,6.7-2.1,8.4-4.2c3.8,0.6,4.4,1.5,4.4,1.5
		c0,0.2-0.2,0.9-1.8,2.9c-0.5,0.6-1.3,1.6-0.6,2.9l0.7,1.3h1.6c5.5,0,10.4-4.2,14.4-8c0.1,2,0.6,3.9,2.1,5.3l2.8,2.6l1.6-3.3
		c0.9-1.8,4.1-5.7,7.4-8.6c-0.1,1.5,0.3,3,1,4.3c1.4,2.3,4.1,3.7,7.9,4.4l7.6,1.3l-5.1-5.1c-1.7-1.7-2.3-3.3-2-5
		c0.5-2.3,2.8-4.2,4.4-4.8l0.1,0l0.1-0.1c1.4-0.7,2.4-2.2,2.4-3.7c0-3.5-3.4-5.3-6.5-6.9c-2-1.1-4.3-2.3-4.3-3.5
		c0-2.5,0.9-5.6,1.7-8.1l0.2-0.5c6.4,5.4,13.1,8.3,24.5,9.2c1.5,0.2,3.2,0.4,5.3,0.4c1.1,0,2.1,0,3.2-0.1c1,0,2,0,3,0
		c5.6,0,8,0.9,9.1,3.6c1,2.4,0.3,5.9-1.7,8.4c-1.4,1.7-3.1,2.7-4.7,2.7c0,0-0.9-0.1-2.5-2.4l-0.5-1c-0.6-1.3-1.8-3.7-5-3.7
		c-1,0-2,0.3-2.9,0.8c-0.6-0.2-1.3-0.2-1.9-0.2c-4,0-8.5,2.9-9.6,4.8l-2.9,4.8l5.9-1.4c1.2-0.3,2.1-0.4,2.8-0.4l0.9,0.1l0.4,1.2
		c0.4,0.8,1.1,1.4,1.9,1.7L567.4,369.5L567.4,369.5z M520.6,255.7c0.7-5.4-5.7-6.1-6.4-6.4c1.9-1.6,4.4-2.3,6.2-2.3
		c9.3,0,11.5,7.1,9.9,12.9c2.5-3,5.6-6.9,10.6-6.9c4.8,0,4.8,1.8,10,1.8c1.5,0,3.6-0.2,6.3-0.6c-4.2,11-17.1,6.5-17.1,12.8
		c0,3.7,5,6.4,8,7.4c-0.6,0-1.2,0.1-1.8,0.1c-12.5,0-15.3-9.7-25.9-9.7c-5.6,0-13.8,5.6-13.8,13.9c0,3.9,2.6,8.2,14.1,8.2
		c8.1,0,16.7-3.4,23.5-6c6-2.4,13.7-4.7,11.9-11c4,0,13.2,3,14,4.4c-0.2-3.5-2.5-5.1-6.1-6.5c2-0.5,3.7-0.7,5.4-0.7
		c9.3,0,13.7,7.3,14.6,7.3l0.1,0c0.3-3.8-0.6-5.2-2.6-8.1c14.5,4,17.1,16.3,17.1,23c0,12.8-9.6,16.9-15.2,19.1
		c-3.7,1.3-9.8,1.9-16,1.9c-3.7,0-7.5-0.2-10.8-0.6l-0.8-0.9c-0.4-0.4-1.4-2-2-3.1c3.2,0.4,6.9,0.6,10.7,0.6
		c12.3,0,25.7-2.4,28.6-10.7c4-9.2-5.6-15.6-13.6-16.3c-1.6-0.1-3.1-0.2-4.7-0.2c-14.9,0-28.6,5.7-46.8,10.8c-2.9,0.6-5.9,1-8.9,1
		c-8.6,0-17.7-2.8-17.7-11.6C501.3,264.9,520.6,259.9,520.6,255.7L520.6,255.7z M547.7,276.8c-0.9,0.4-1.9,0.8-3.1,1.2l-1.5,0.6
		c-6.6,2.6-14.9,5.8-22.4,5.8c-11.5,0-11.5-4.4-11.5-5.8c0-7.1,7.2-11.5,11.1-11.5c4.2,0,6.9,1.9,10.1,4.1c3.9,2.6,8.3,5.7,15.7,5.7
		L547.7,276.8z M519,293c3.2,0,6.6-0.4,9.5-1l0.1,0l0.1,0c4.6-1.3,8.9-2.6,13-3.9c11.9-3.7,22.2-6.9,33-6.9c1.5,0,3,0.1,4.4,0.2
		c3.7,0.4,8.5,2.2,10.8,5.7c1.6,2.2,1.7,4.8,0.6,7.5l0,0.1l0,0.1c-2.9,8.1-19.2,9-26.1,9c-4.6,0-8.9-0.3-12.4-0.8
		c-2.9-3.7-8.2-7.2-13.4-7.2h-0.3l-0.3,0.1c-1.7,0.4-3.8,1-5.8,1.6c-2,0.6-4,1.2-5.5,1.5c-3.4,0.6-6.7,1.2-9.7,1.8
		c-6.5,1.2-12.7,2.3-19.7,3.7c-0.9-0.7-2.4-3.5-3.2-5.2l-1-1.9c0.5,0.1,1.1,0.2,1.7,0.2c1.8,0,2.6-0.8,3-1.3l0,0l0.4,0.1l0.4,0
		c0.7,0,1.4-0.3,2-0.8c0.6-0.6,0.8-1.4,0.6-2.1c-1.1-4-1.8-8.2-2.2-12.4C499.8,288.5,507.2,293,519,293z M476.7,304.5
		c-5.1-3.9-2.5-12.5-5.9-15.7c0.8,2.6,1.3,5.2,1.1,6.9c-0.8,6.3-4,10.2-1.7,17.3c-4-2.8-4.8-4.2-6.4-7.8c-0.1-0.6-0.1-1.1-0.1-1.7
		l0.3-1.7c0.7-4,1.3-8.2,0.5-12.2c0.3-0.6,0.6-1.2,0.8-1.8l0.5,0.1c0.6,0,1.2-0.2,1.7-0.5c1.7-1.2,3.6-2.3,5.5-3.4
		c3.3-1.9,6.2-3.6,7.4-5.6l0.3-0.7l0-0.2c1.7,2.4,2.8,5.7,3.2,11.5c0.5,6.5,4.8,8.5,4,8.5c-2.5-0.7-7.5-2.5-10.2-15.4
		C477.8,288,481.3,297.3,476.7,304.5L476.7,304.5z M464.6,318.6l-1.5,0.2c-3.9,0-5.4-4-5.7-4l-0.1,0.2c-0.8,2.8,0.8,6.4,2.5,9.2
		c-2.7-0.3-4.5-2.1-5.4-4.8l0,0c-2-4.7-1-19.3-1-19.6c-2.5,4.2-3.5,15.4-1.6,27.3c-2.5-2.2-3.8-5.9-4.4-9.7l-0.2,0.3
		c0,0-2.6,2.5-7.3,2.8c0,0,6.1-7.2,7.5-13.2c0.3-1.2,0.6-3,1-4.8c1.3-3.6,2.6-6.9,3.8-9.6h0.1l0.2-0.1c1,1.9,2.5,2.5,3.4,2.6
		l0.8,0.1c1.8,0,3.6-1,5-2.3c-0.1,1.4-0.2,2.9-0.4,4.3c-0.3,2-0.4,3.9-0.4,5.9C460.2,309.1,459.9,314.4,464.6,318.6z M425.7,313.1
		c-0.7,0-1.4-0.1-2.1-0.2c8.4-5.4,12.4-12.3,15.1-17.3c2.6-4.8,5.4-8.2,7.9-10.4c0.5-0.2,1.1-0.4,1.7-0.5l0.2,0
		c1.2-0.3,2.3-1,2.9-2.1l0.1,0c0,1,0.2,1.6,0.5,2.1c-0.2,1.2-0.4,2.3-0.3,3.4c-0.4,0.8-0.8,1.7-1.3,2.7l-1,0.8
		c-1.8,2.6-2.8,6.7-3.5,10.3c-0.8,2.3-1.6,4.7-2.4,7.1c-1.1,3.6-8.1,11.1-16.7,11.1c-0.7,0-1.5-0.1-2.2-0.2
		c11.6-6.3,17.3-12.3,18.5-23.3C440.8,301.9,436,313.1,425.7,313.1L425.7,313.1z M464.7,271.4c0.9,1.4,1.5,1.3,0,2.2l-0.9,0
		l-1.5-1.2l-0.6-0.4l-1.1-0.3l-0.1,0l-0.2,0l0,0c-0.7,0.1-1.4,0.4-2.2,0.5c-0.5-0.3-1.1-1.1-0.1-1.5c3.9-1.6,4.1-4,4.6-6.8l1.9-0.1
		C465.2,264.5,462.1,268.5,464.7,271.4z M464.5,257.2c-0.1,1.3-0.6,2.9-1.3,4.5c-0.7-0.2-1.8-0.8-3-1.6c-2.3-1.6-4.4-3.4-6.4-5.3
		l-0.4-0.5l-0.1,0.2l0,0l-0.1,0.3l0,0.1c-0.6,1.4-1.8,2.3-3.3,2.6l-1.3,0l-0.4-0.2c-1.8-1.2-2.5-4.7-0.8-6.9
		c0.3-0.4,1.8-0.8,2.4-0.8h0.1l0.5,0.1l0.4,0.1l0.5,0.2l0.4,0.2l0.5,0.5l0.3,0.3l0.8,1.2l0.4,0h0l1,0h0.1l1.2,0.1h0
		c2.8,0.2,6.4,0.8,6.4,0.8C464.1,253.7,464.7,255.3,464.5,257.2L464.5,257.2L464.5,257.2z M447.5,269.6c0.8-2.2,1.8-4.4,2.2-6.5
		c-0.1-0.7-1-2.9,1.3-3.9c0.9-0.1,1.6-0.8,2.3-1.6c0.8,0,1.7,1.4,2.6,2.2l-0.1,0.1l-0.5,0.6l0,0.1l-0.4,0.6l-0.1,0.2l-0.3,0.5
		l-0.2,0.3l-0.2,0.5l-0.2,0.4l-0.1,0.4l-0.1,0.5l-0.1,0.3l0,0.6v0.3l0.2,0.8l0.1,0.1l0.1,0.1l0.3,0.2l0.2,0.1l0.3,0.1l0.2,0l0.4,0.1
		c1.6-0.8,2.8-2,3.4-4.3l1.2,0.2c0,0,0.8,0,0.9,0.8c0.1,0.7-0.6,2.3-0.6,3c-0.8,1.6-3,2.5-3.7,3.3l-1.7,1l-0.4,0.3l-0.2,0.4
		c0.9,1.4,1.7,2.1,2.6,2.8c0.8,0.8,1.5-0.1,2.3-0.1l0,0.5l-0.3,1.2l0,0.2l0,0.9h-0.1l-0.4-0.1l-0.2,0l-0.7-0.2l-1-0.2l-0.2,0
		l-0.6-0.1c-0.8-0.7-1.6-1.4-1.7-2.2c-0.1-0.9-0.6-1.8-1.3-2.5l-0.5-0.2l-0.2,0l-0.4,0l-0.4,0.1l-0.7,0.3c-0.7,0.8-1,0.9-0.9,1.7
		c0.1,0.7,0.4,1.3,1.1,1.3l1.1,0.4h0l0.8,1.1l0.1,0.2l0.1,0.2l0.4,0.4l0.5,0.6l0.3,0.2l0.2,0.1c0.9,0.6,1.8,0.9,0.8,2
		c-0.3,0.5-0.7,0.8-1.3,1l-0.2,0l-0.2,0h-0.1l-1.3-0.6c-1.3-1.7-2.6-3.3-3.9-5.3c-0.4-0.7-0.9-1.3-1.3-2c0.1-0.7,0.3-1.3,0.5-2
		L447.5,269.6L447.5,269.6L447.5,269.6z M440.2,322.9L440.2,322.9l-0.3,0L440.2,322.9L440.2,322.9z M461.5,289.6l-0.1,0.1l-0.3,0.4
		l-0.4,0.5l-0.3,0.3l-0.4,0.4l-0.3,0.3l-0.6,0.5l-0.1,0.1l-0.7,0.5l-0.2,0.1l-0.5,0.2l-0.2,0.1l-0.4,0.1l-0.2,0l-0.2,0l-0.4,0
		l-0.6-0.2l-0.1-0.1c-0.6-0.5-1.1-1.5-1.3-2.8c-0.6-3.1,0.2-7.7,3.5-10.8v0l1.4,0.2l-2.1,8.5l1.6,0.4l1.9-6l0.8-2.5l0.1,0l0.5,0.1
		l0.1,0.1l0.2,0.4C464.1,283.5,463.2,287,461.5,289.6L461.5,289.6L461.5,289.6L461.5,289.6z M462.2,277.5l-0.1-1.9l-0.1-1.1
		c0.7-0.8,1.4,1.6,2.9,1.8l0.7,0.1h0.1l0.6-0.1l0,0l0.4-0.3l0.1-0.1l0.5-0.5l0.7-0.8l-0.1-0.8c-1.9-2.5-2.4-5.7-1.2-8.6
		c0.8,0,2,0.1,2,0.1l0,0.2c0.2,1.7,0.6,2.8,1,3.6l0,0.1l0.4,0.5l0.1,0.1l0.4,0.3l0.2,0.1l0.3,0.2l0.2,0.1l0.3,0.1l0.2,0l0.2,0h0.3
		c2.4-0.9,1.1-3.2,0.9-5.4l0.6-0.4c0.8-0.5,2.1-0.9,4-1c0,0.7,1,3.4,2.5,4.4c-1,2.4-1.6,4.5-2.1,6.7c-0.2,0.7-0.3,1.5-0.5,2.3
		l-0.8,0.9l-0.2,0.2l-0.9,0.7l-0.3,0.2c-2.5,1.8-6.5,3.8-9.8,6.1l-0.2,0.2c-0.8-0.7,0.1-2.5-0.9-4.8c1.6-0.1,3.2-0.2,4.7-1
		c0.9,0,3,0.3,3.7-1.2c0-0.7-0.3-1.4-0.6-2l-0.1-0.2l-0.3-0.3l-0.1-0.1l-0.3-0.1l-0.2,0l-0.3,0l-0.6,0.2c-0.8,0-1.2,0.2-1.6,1.2
		l-0.2,0.6l0,0.1l-0.5,0.4l-0.1,0l-0.7,0.2l-0.1,0l-0.9,0.1l-1.6-0.1l-0.1,0C463.8,278.1,462.6,277.8,462.2,277.5L462.2,277.5z
		 M474,256.5L474,256.5c0.7,0.2,1.4,0.4,2.1,0.8l0.3,0.1l0.4,0.2l0.4,0.2l0.3,0.2l0.4,0.3l0.3,0.2l0.4,0.4l0.2,0.2l0.4,0.6l1.4-0.7
		l0.3-0.1l0.4-0.1l0.3,0l0.4,0l0.1,0l0.9,0.1l0.1,0c0.7,0.2,1.6,0.5,2.7,1.2c0.9,0.5,0.9,1.5,0.2,3l-0.2,0.2l-0.1,0.1l-0.3,0.4
		l-0.4,0.4l-0.1,0.1l-0.4,0.3l-0.1,0.1c-1.2,1-2.8,1.8-3.9,0c-0.6-1.1-0.2-2.7-1.9-3.4l-0.9,0l-1.1,0.1l-0.4,0.1l-1.5,0.4
		c-0.8,0.2-1.6,0.4-2.5,0.6l-0.3,0.1c-0.6,0.1-1.2,0.3-1.8,0.3l-0.3,0.1l0,0c-1.4,0.2-2.8,0.2-3.8-0.3c0.3-1.8,0.7-3.6,1.3-4.9
		l0.2-0.4l0.2-0.3h0c0.7-1,1.6-1.5,2.9-1.3l2.4,0.5l0,0L474,256.5L474,256.5z M481.5,273.8c0.4-1.5,0.9-3.1,1.6-4.9l0.1-0.8
		c0.9-0.2,1.7-0.6,2.4-1.2c1.5-0.4,1.6-0.8,1.6-0.8c3,0.1,5.7,1.7,7.2,4.2c2.4,7.8,0.9,12.1,4,23.4c-4.8-0.7-4.6-12.1-7-17
		c-0.4-0.9-2.3-4.3-4.6-5.5c4.6,6,5,11.3,5.5,13.4c0.9,3.3,0,7.4,3,9.8c0.2,0.4-0.1,0.6-0.7,0.6c-1.5,0-4.8-1.1-5.8-2.7
		C485.5,287,487.7,281.8,481.5,273.8L481.5,273.8z M500.2,258c0,0.4-2.3,1.4-4.5,1.4c-0.6,0-1.1-0.1-1.7-0.2c2.6,2.3,6,5.3,5.2,13.4
		c-1.5-4.9-3-7.8-10.5-9.3l0.1-0.8c0.4-1.9-0.1-3.3-1.7-4.3c-0.6-0.4-1.2-0.7-1.8-1c2.1-1.2,4.5-1.9,7.1-1.9
		C495,255.4,497.8,256.2,500.2,258L500.2,258z M490.2,244.8c3.1,0,5.2,1.2,7.7,1.2l1-0.1c-1.6,2.2-4.3,1.1-8,1.8
		c-5.2,0.6-7.3,2-10,4.6c7.5-5.3,10.8-2.8,17.1-4.1c-0.1,2.5-1.3,4.5-5.7,4.5c-3.7,0-6.7,0.6-10.4,3.3c0,0-4.7-2.3-5.4-2.3
		C479.6,246.6,485.7,244.8,490.2,244.8L490.2,244.8z M470.7,247.3c2.4-3.6,6.2-6.7,11.9-6.7c1.6,0,3.1,0.4,3.1,0.4
		c-3.6,1.2-10.8,7.8-13.1,12.8l-1.6-0.3l-0.2,0l-0.9-0.1l-1.3,0.1v0c0.4-1.2,0.9-2.8,1.4-4.4L470.7,247.3L470.7,247.3z M468.9,244.4
		l-0.6,1.9c-1.3,1.9-2.2,3.9-2.8,5.9c-0.6-0.5-1.3-1-2.1-1.2c-0.4-0.8-0.7-1.5-1.1-2.3c-0.4-1.6-1.1-3.1-2-4.5
		c-0.9-2.1-2-4.1-3.1-6.1C461.9,238,466.5,241.6,468.9,244.4z M426.9,280c1.7-14,13.8-18.5,13.8-18.5c-2.2,0.2-5.5,1.3-8.9,3.9
		c2-3.5,4.3-5.1,5.6-6.6c-1.1,0.6-2.4,0.8-3.7,0.8c-1,0-1.9-0.1-2.8-0.5c2.9-1.6,6.3-4.3,8.5-6.7c-2.4,0.3-5.4,1-7.8,2.5
		c0.1-2,2.9-4.6,7.2-5.7c-1.6-0.4-3.2-1.1-4.7-1.9c3.6-2.1,5.8-2.7,8-2.7c1.4,0,2.9,0.2,4.7,0.5c0,0-2.8-2.2-8.2-2.7
		c1.9-0.7,3.1-1.5,6.2-1.5c2.3,0,7.4,2.9,7.4,2.9c-0.9-1.5-3.3-3.7-3.7-5.4c4.7,1.6,7.6,4.1,9.2,6.6l1.1,2.4l0.8,1.8l0.2,1.1
		c-1.7-0.2-3.4-0.4-5.2-0.5c-0.9-1.2-2.5-2.5-4.9-2.5h-0.2c0,0-3.4,0.2-4.6,1.9c-2.3,3.1-1.6,8,1.5,10l0.7,0.3
		c-0.4,1.1-0.5,2.3-0.2,3.4v0c-0.3,1-0.6,2.1-1,3.1c-5.1,0.3-8.5,2.1-11.1,4.5C431,273.6,428.5,277.8,426.9,280L426.9,280z
		 M436.2,288.4c0-8.8,2.4-8,3.7-11.3c-3.1,3.6-5.9,6-9.2,6c-0.8,0-1.6-0.1-2.4-0.4c3.1-2.6,5-7.2,8.6-10.5c2.2-1.7,5-2.7,7.8-2.8
		c-0.3,1-0.6,2-0.8,2.9l0.3,1.5c1.6,2.5,3.1,4.5,4.5,6.4l0.4,0.5c-1.4,0.5-2.8,1.4-4.3,2.7c-7.3,3.8-7.8,16.7-17.9,18.9
		C430.9,299.1,436.2,293.8,436.2,288.4L436.2,288.4z M426.3,299.5l-0.7,0.6L426.3,299.5z M418.8,336.5c-7.4,0-15.2-6.8-16.1-8
		c7.9-4.2,5.1-12,4.8-12l0,0c-0.8,1.2-2.2,2-3.7,1.9c-2.3,0-4.6-1.4-4.6-1.4c4-1.7,5.7-5.1,6.7-8.9c-2,1.4-3.8,1.8-5.2,1.8
		c-1.9,0-3.1-0.7-3.1-0.7c2.9-2,3.8-2.3,5.2-5.7c-1.4,0.8-2.6,1.2-3.7,1.2c-1.5,0-3-0.8-5.3-2.8l0.8,0.1c5.8,0,8.9-8.5,8.9-12.6
		c0-1.3-0.7-2.5-1.9-3.2l-1.2-0.3h-0.1c-2.6,0-7.3-0.2-6.4-2.8c1,0.3,1.9,0.4,2.8,0.4c3.4,0,5.7-2.1,4.3-5.4c-0.8-1.5-2.2-2-3.8-2
		c-1,0-2.2,0.2-3.3,0.4l-0.7,0.1l-0.8-0.2c-0.6-0.5-1-1.1-1-1.9l-0.2,0.2h-0.2c-2.3,0-4.9-5.1-3.6-5.8l0.1,0c0.8,0,1,2.2,4.8,2.9
		l0,0.1l1-0.9l1.1-0.4l0.6-0.1c1.1,0,2,0.8,2.9,0.8l1.2-0.7l0.4-1.1c0.2-4.1-4.9-2.3-4.9-4.3l0.7-1.4c-1.6-4.4-5.5-4.3-3.9-4.7
		l0.6,0c2.5,0,5.7,1.7,6.3,2.5l-0.1,0.2c1.2-0.5,2.6-0.8,3.7-0.8c2.2,0-1.2,3.8,3,4.3l0.2,0c0.9-0.1,1.8-0.5,2.4-1.1
		c2.8-2.6-1.6-3.1-1.5-3.9c0-0.9,0.7-1.4,1.7-1.7l-0.4-0.1c-0.6-0.3-0.9-0.8-1.1-1.3c-0.5-1.2,0.2-0.8-1.1-1.7
		c-0.9-0.6-0.3-1.1,0.2-1.1h0.1c2.7,0.2,4.9,1.5,5.8,4c1.1,0.1,2.1,0.4,2.6,0.8c0.9,0.4,1.9,1.9,0.7,2.9c-1.3,1.1-2.5,2.3-3.3,4.3
		c-0.5,1.2-0.6,15.7,2.1,22.4c0.4,0.9,0.7,1.1,0.9,1.3c1.5,1.3,3.6,0.9,5,2.3c1.1,0.9,4,4.2,6.7,7.5l-0.4,0.3
		c-0.9,0.7-1.1,1.9-0.6,2.9c0.5,0.8,1.4,1.3,2.4,1.2l0.6-0.1l1.1-0.3l0.5,0.7c-2.1,2.3-4.5,4.4-7.2,6.1c-0.9,0.5-1.3,1.5-1,2.4
		c0.3,0.9,1.1,1.6,2.2,1.8c1.5,0.2,3,0.2,4.5,0.1c-1.4,0.9-2.9,1.8-4.6,2.7c-0.9,0.5-1.4,1.5-1.2,2.4c0.2,1,1.1,1.7,2.2,1.9
		c0.9,0.1,1.8,0.2,2.7,0.2c4.3,0,8.1-1.5,11.3-3.6l-0.2,0.2c-0.6,0.7-0.7,1.8-0.2,2.6c0.3,0.5,0.9,0.9,1.5,1.1
		c-0.8,3.3-1.9,6.5-3.3,9.7C430.4,335.7,424.8,336.5,418.8,336.5z M549.2,360.3c0,0.7-0.4,1.3-1.2,1.7c-3.2,1.4-9.6,7.1-3.2,13.5
		c-8.8-1.5-7.4-7.1-5-12.1c-4.9,1.5-12.8,10.3-14.3,13.5c-2.9-2.6-0.4-9.5-0.1-10l-0.2-0.2l-0.5,0.2c-4,2.9-10.8,12-17.7,12
		c-0.2,0,2.7-2.8,2.7-4.7c0-2.7-5-3.7-9-4.2c0.9,1.4-4.1,4.5-6.5,4.5l-0.6-0.1c2-1.8,3.1-3,2.6-4.7l-0.8,0c-3.1,0.4-4.4,1.5-6.9,5.1
		c-0.5,0.6-1.4,1-2.6,1l-1.5-0.2c-1.1-0.3-2-0.9-2.7-1.7h-0.5c-4,0-4.8,0.8-7.1,1.5c0-1.3,3.5-4,6-4.3c-0.3-1.3-0.1-2.5,1.2-3.3
		l0.7-0.2c1,0,1.8,1,3.3,1l0.9-0.1c1.4-0.7,1.5-4.5-1.1-5l-0.9-0.1l-1.5,0.3c-1.2,0.4-1.9,1.3-2.6,1.3l-0.6-0.2l-0.6-1l-0.1-1
		l-0.2-0.1l-1.2-0.4c-0.8-0.2-1.7-0.3-2.5-0.4c-0.9,0-1.8,0.2-2.6,0.5c0.6-1.8,3.5-3,5.8-3l1.2,0.1c0.5-1.3,1.5-2.4,3-2.5h0
		c0.7,0,1.1,0.6,1.2,0.8c0.6,1,1.3,1.5,1.9,1.5c3.4,0,3.4-2.1,2.8-4c-0.1-0.3-0.4-1.1-1.2-1.2l-0.4,0c-0.8,0-1.8,0.2-2.6,0.2
		c-0.7,0-1.4-0.2-1.7-0.7l-0.4-1.3l-0.3,0l-0.4-0.1c-1.7-0.7-3.3-1.4-4.9-1.4c1.2-1.5,3-2.4,4.9-2.5c0.9,0,1.7,0.3,2.2,0.9
		c0.8-0.7,1.8-1.2,2.8-1.3c3.1,0,2.4,3.5,5.6,4.2c1.6,0.7,4.4,0.9,6.5,2.1c0.8,0.5,1.3,0.7,1.6,1.4c1,4.3,5.2,5.4,9.5,5.4
		c2,0,4.1-0.2,5.9-0.5c11.3-1.4,17.7-8.5,9.7-13.4c-2.1-1.3-4.3-1.6-6.5-1.6c-2,0-4.1,0.2-6.2,0.2c-0.9,0-1.8,0-2.7-0.2
		c-8.5-1.3-10.3-4.7-8.2-10.1c7.1-1.9,14-4.3,20.7-7.2l0.4-0.2c3-1.4,4.3-1.9,4.9-2c0.9,0.3,2.9,1.9,3.6,2.6
		c3.7,4.1,6.9,7.6,10,10.5c-0.8,2.9-2.3,7.1-2.3,10.6C538.4,354.7,549.2,355.9,549.2,360.3L549.2,360.3z M599.7,370.7
		c-0.9,0-1.8-0.1-2.7-0.2c0.6,1.6,4.3,2.8,7.8,2.8c1.2,0,2.3-0.1,3.3-0.4c-0.8,2.5-4.4,4.8-7.7,4.8l-0.8,0
		c-2.2-0.3-6.4-1.6-10.6-1.6l-0.8,0l0,0c0.5,1.1,1.6,3.6-1.1,5.8c-0.9-2.7-1.4-3.9-3-4.9c-1.3,0.6-2.3,1.6-2.9,2.9
		c-0.3,0.6-0.2,1-0.1,1.3l0.7,1.3c0.4,0.7-0.2,1.9-0.3,2.2c-0.6,1.3-2.2,1.8-3.8,1.8l-1.6-0.1c-0.8,0.5-2.3,0.7-3.8,0.7
		c-2.1,0-4.2-0.5-4.6-1.7c1.8,0,3.7,0,5.2-0.7l-0.5-0.8c-0.5-1-0.8-2.1,0.1-3.1l0.7-0.2l0.6,0.1l0.8,0.1c3.8,0,2.3-4-1.1-4l-1.4,0.2
		c-1.4,0.6-2.3,1.8-4,2.1l-0.2,0l-1.2-0.5l-0.2-0.3c-1.5,0.2-4.6,0.2-5.8,0.7c0.1-1.4,2.7-5.5,5.1-5.5c0.3-0.8,0.7-1.4,1.4-1.5
		l0.2,0l0.9,0.4c0.5,0.5,1.1,0.8,1.9,0.8c1.9,0,3.9-1.6,3.1-3.4l-0.8-1.3c-1.4-1.2-4.9-0.5-3.6-3.5c-1.2-0.6-2.5-0.8-3.8-0.9
		c-1,0-2.1,0.2-3.5,0.5c0.7-1.1,4.2-3.5,7.3-3.5c0.8,0,1.6,0.2,2.3,0.6c0.6-0.7,1.5-1.1,2.5-1.2c2,0,2.3,2.1,3.3,3.6
		c0.5,0.7,2.4,3.5,4.8,3.5c6.5,0,11.3-8.5,8.9-14.2c-1.9-4.5-6.5-5.1-11.6-5.1c-2,0-4.2,0.1-6.2,0.1c-1.7,0-3.4-0.1-5-0.3
		c-17-1.3-22.5-6.9-35.1-20.9c-0.2-0.2-3.8-3.4-5.6-3.4c-1.3,0-5.1,1.8-6.5,2.5c-9.6,4.2-24.5,8.7-29.2,8.7c4.1-3,7.8-5.4,7.6-9.9
		c-4.9,6.6-15.1,12.3-21.8,13c0.9-2.1,2.5-2.9,4-7.1l-0.1,0c-1.5,0-12.1,7.2-19.8,7.2c-0.6,0-1.2,0-1.8-0.1c0,1.4,3.2,4.7,7.6,4.7h0
		c-1.8,3.8-8.2,7.2-14.6,7.2c-2.1,0-4.1-0.4-6-1.2c3.6,3.1,6.9,4.1,9.9,4.1c1.3,0,2.5-0.2,3.7-0.4c-3,4.9-11.8,7.5-19.1,7.5
		c-3.7,0-7-0.7-9-2.1c-0.7,1.9,6.4,4.6,10.6,4.6l1-0.1c-2.4,2.1-10.1,5.9-17.2,5.9c-2.3,0-4.5-0.4-6.5-1.3c-1.6,0-7.3,5-7.3,5.7
		c-0.8,1.4,0.4,3.2-0.4,5.3c-0.7,1.3-4.9,4.5-5.8,4.7c2-3.1,0.9-5.7-0.3-6.1c-0.9-0.4-2-0.6-3-0.7c-3.8,0-3.2,5-5.8,6.8l-1.2,0.2
		c-1.1-0.1-2.1-0.4-2.9-0.9l-0.4,0.5c-0.7,0.6-2.6,0.9-4.4,0.9c-1.4,0-2.8-0.2-3.4-0.5c2.1-0.6,3.7-1.9,5.1-3.6
		c-0.5-0.7-0.8-1.3-0.8-1.6c0-0.5,0.4-1.6,1.3-1.6l1,0.3l0.9,0.6l0.4,0l0.6-0.1c1.4-0.3,1.4-1.4,1.4-2.1c0-1.7-0.5-3-2.5-3
		c-0.5,0-1.1,0.1-1.6,0.2c-0.7,0.3-0.8,1.3-2,1.5l-0.6,0.1l-0.6-0.2c-0.5-0.5-0.9-1.1-1.2-1.8l-0.2,0h-0.1c-0.7-0.2-1.3-0.3-2-0.3
		c-1.4,0-2.7,0.5-5.1,1.7c0.7-2.9,4.7-4.8,6.7-4.9c0.1-1.2,0.4-2.3,1.1-2.6l0.8-0.1c1.6,0,2.5,1.6,4.1,1.6l0.8-0.1
		c1.7-0.7,1.7-4.9,0-5.6l-0.6-0.1c-1,0-2.3,0.9-3.5,0.9l-1.1-0.4l-0.2-1.1l0.4-1c-0.7-0.1-2-0.5-3.6-0.5c-0.8,0-1.6,0.1-2.4,0.3
		c1.9-3.3,5.4-3.4,8.3-3.4c0.7-0.7,1.3-1.1,1.9-1.1c2.1,0,2.4,3.7,5.1,5.6c0.4,0.3,2.8,1.6,3.6,1.9c1.8,0.8,3.6,1.1,5.3,1.1
		c3.1,0,6-1,8.3-1.8c14.5-5.7,9.1-13.9,13.9-16.1c7.8-3.1,12-16.4,13.6-23c1.5-0.3,2.8-0.7,3.8-1.2c1,3.2,2.4,5.6,4.3,7.3
		c0.5,0.4,1.2,0.7,1.9,0.7l1.2-0.2c1-0.4,1.6-1.4,1.4-2.4c-0.2-1-0.3-2-0.4-2.9c1.4,1.5,3.3,2.5,5.5,2.8l0.4,0c0.9,0,1.7-0.4,2.2-1
		c0.6-0.7,0.6-1.7,0.2-2.5c-0.4-0.7-0.8-1.5-1.2-2.2c1.4,0.4,2.9,0.4,4.4,0c0.9-0.2,1.6-0.8,1.9-1.7c0.2-0.8,0-1.7-0.7-2.3
		c-2.3-2.1-3.1-4.5-3.3-7.3c1.1,1.7,2.6,3.1,5.3,5c0.5,0.3,1.1,0.5,1.7,0.5l1.5-0.4c1-0.6,1.4-1.6,1.1-2.6c-1.1-3.4-0.8-5.8-0.1-8.5
		c0.6,0.9,1.3,1.7,2.3,2.5c0.5,0.4,1.1,0.6,1.7,0.6l0.5,0c0.8-0.1,1.4-0.5,1.8-1.2c1.8-2.8,2.5-5.9,2.7-9c1.8,1.7,3.7,2.5,5.5,3
		l0.8,0.1c1.1,0,2-0.5,2.5-1.4c2.2,4.1,4,8.4,6.5,8.4l0.3,0c10.4-2.2,18.6-3.5,29.9-5.6c3.2-0.7,8.1-2.5,11.3-3.2
		c4.5,0,9.3,3.5,11.6,6.7c0.6,0.9,2.6,4.3,3.4,5.2c2.8,3.3,6.1,6.4,9.9,8.6c3.2,2.2,6.5,4.9,8,8.5c1.6,2.3,1.8,5.2,3.1,8
		c0.7,1.4,2.4,3.8,4.3,4.7c1.7,0.8,3.4,1.1,4.9,1.1c4.4,0,8-2.5,10.8-2.5c0.9,0,1.7,0.3,2.4,0.9l0.6,0.9l0.6,0.9
		c0.7,0.4,1.3,1.3,1.3,1.3c1.6,0.4,3,0.6,4.3,0.6c3.1,0,5.6-1.2,10.1-4.3c-0.5,4.4-1.4,11.7-13.6,12.8l-0.5-0.1
		c0.6,1.3,1.8,2.2,4,2.2c2.2,0,5.4-0.9,10.1-3c-1.5,3.8-7.4,10.9-13.3,10.9l-1.1-0.1c0.5,1.6,3.3,2.3,6.6,2.3c2.4,0,4.9-0.4,7-1.1
		C610.2,366.2,606.2,370.7,599.7,370.7"/>
	<path class="st1" d="M516.3,198.5l-11-4.1l4.7-10.3l-10.8,4.5l-4.3-10.5l-4.3,10.5l-10.8-4.5l4.7,10.3l-11,4.1l11,4.1l-4.7,10.3
		l10.8-4.5l4.3,10.5l4.3-10.5l10.8,4.5l-4.7-10.3L516.3,198.5 M516.3,431.6l-11-4.1l4.7-10.3l-10.8,4.5l-4.3-10.5l-4.3,10.5
		l-10.8-4.5l4.7,10.3l-11,4.1l11,4.1l-4.7,10.3l10.8-4.5l4.3,10.5l4.3-10.5L510,446l-4.7-10.3L516.3,431.6 M382.9,318.7l-11-4.1
		l4.7-10.3l-10.8,4.5l-4.3-10.5l-4.3,10.5l-10.8-4.5l4.7,10.3l-11,4.1l11,4.1l-4.7,10.3l10.8-4.5l4.3,10.5l4.3-10.5l10.8,4.5
		l-4.7-10.3L382.9,318.7 M656.5,318.7l-11-4.1l4.7-10.3l-10.8,4.5l-4.3-10.5l-4.3,10.5l-10.8-4.5l4.7,10.3l-11,4.1l11,4.1l-4.7,10.3
		l10.8-4.5l4.3,10.5l4.3-10.5l10.8,4.5l-4.7-10.3L656.5,318.7"/>
	<path class="st3" d="M257.7,775.8c-0.3,63-33.2,94.6-93.4,94.6c-59.6,0-94.4-25.5-94.4-84.2v-59.6c0-33.2-3.9-60.2-5.1-74.3
		c7.1,0.9,18.7,1.5,25.4,1.5c6.8,0,13.9-0.6,20.3-1.5c-3.2,29.2-4.2,68.2-4.2,108.7c0,58.3,11.3,91.5,67.9,91.5
		c61.3,0,62.8-58,62.8-106c0-43.3-0.3-74-2.3-94.3c4.8,0.9,10,1.5,14.8,1.5c4.5,0,8.7-0.6,12.9-1.5
		C260.3,675.6,258,726.9,257.7,775.8 M467.6,756.6c-0.6,32.8-0.3,82.8,0,112.1c-2.5-0.6-5.1-0.9-7.7-0.9c-2.2,0-5.4,0.3-7.4,0.9
		c-46.7-52.6-99.6-106.9-151.8-159.6c-0.7,17.2-1,39.2-1,66.9c0,37.7,1.3,78.8,2.6,90.6c-4.3-1-8.7-1.5-13.1-1.6
		c-4.5,0-9,0.6-13.5,1.6c2.2-11.7,6.8-90.6,6.8-142.1c0-33.1-0.6-57.4-1.3-71.5c2.2,0.3,6.1,0.6,8.3,0.6c2.5,0,6.1-0.3,8.6-0.6
		c49.4,51.5,108,112.6,151.6,155.8c0-51.8,0-123.3-2.6-154c4.2,0.9,8.6,1.5,12.8,1.5c4.2,0,8-0.6,12.2-1.5
		C470.2,684.5,467.9,730.2,467.6,756.6 M549.1,871.6c-28.1,0-57-12.9-70.9-22.5c5.5-4.2,7.7-5.5,13.9-13.2
		c4.5-5.8,7.4-15.4,7.4-15.4c5.8,16.3,23.2,32.3,54.5,32.3c31.2,0,53.2-22.5,53.2-43.4c0-51.7-118.6-28-118.6-99.1
		c0-38.5,35.4-59.7,82.5-59.7c25.1,0,46.1,7.6,60.9,16.9c-6.8,5.2-7.7,5.5-11.9,11.4c-3.2,4.6-7.1,14.5-7.1,14.5
		c-6.1-14.5-19.4-27.7-44.5-27.7c-25.5,0-43.5,15.1-43.5,33.8c0,51.4,123.1,30.8,122.8,97.6C647.4,849.7,608,871.6,549.1,871.6
		 M873.5,866.7c-4.5-0.6-9-1.5-13.2-1.5c-4.5,0-9,0.9-13.5,1.5C831.3,813,813.6,759,793.9,703.4h-0.6c-11.9,35-40.6,113-56.4,163.4
		c-4.5-0.6-8.7-1.5-13.5-1.5c-4.2,0-9,0.9-13.2,1.5c-9-33.1-22.2-81.7-39-133.9c-5.1-16.6-24.1-66.6-29.3-78
		c7.1,0.9,17.7,1.5,24.5,1.5c6.8,0,13.5-0.6,20.3-1.5c14.2,57.4,28.6,108.1,47.1,168.6h0.6c14.5-42.7,48-138.5,56.1-168.6
		c4.2,0.9,8.4,1.5,12.9,1.5c4.2,0,8.4-0.6,12.6-1.5c7.4,30.4,43.2,132.4,54.1,168.6h0.6c12.6-39.6,44.8-143.1,50.6-168.6
		c3.9,0.9,8.1,1.5,11.9,1.5c4.2,0,8.1-0.6,12.6-1.5C935.3,681.3,888.6,816.7,873.5,866.7 M287,925.7c-2-1.2-4.1-2.2-6.3-2.9
		c-2-0.7-3.9-1.5-5.7-2.5c-1.5-0.8-2.9-1.8-4.1-3.1c-0.9-1.1-1.4-2.6-1.4-4.6c0-1.1,0.2-2.2,0.6-3.2c0.4-0.9,0.9-1.8,1.7-2.4
		c0.8-0.7,1.7-1.2,2.6-1.6c1.9-0.7,4.7-0.8,6.3,0c0.8,0.4,1.6,0.9,2.2,1.5c0.6,0.6,1.1,1.2,1.5,1.9c0.4,0.8,0.7,1.5,1,2.2l0.4,1.2
		h3.9l0.3-1.5c0.3-1.4,0.6-2.6,0.9-3.6c0.3-0.8,0.6-1.7,1-2.5l0.7-1.3l-1.2-0.9c-1.7-1.3-3.6-2.4-5.7-3.1
		c-4.1-1.3-10.4-1.3-14.9,0.2c-2.2,0.7-4.3,1.9-6,3.4c-1.7,1.5-3,3.2-3.9,5.3c-0.9,2.1-1.4,4.4-1.3,6.6c0,3.4,0.7,6.2,2.2,8.3
		c1.4,2,3.1,3.7,5.2,5c2,1.2,4.1,2.3,6.3,3.1c2.1,0.8,4,1.6,5.8,2.5c1.6,0.8,3,1.8,4.1,3.1c0.9,1.1,1.4,2.6,1.4,4.5
		c0,1.3-0.2,2.6-0.7,3.8c-0.4,1.1-1,2.1-1.9,3c-0.8,0.8-1.8,1.5-2.9,2c-2.3,1-5.5,1-7.9,0.1c-2.1-0.8-4-2.1-5.3-3.9
		c-0.6-0.8-1.1-1.6-1.5-2.5l-0.5-1.1h-3.9l-0.2,1.6c-0.1,1.2-0.3,2.4-0.5,3.5c-0.2,1-0.5,2-0.9,2.9l-0.5,1.2l1,0.8
		c1.5,1.2,3.3,2.2,5.5,3.2c2.3,1,5.1,1.4,8.7,1.4c3.3,0,6.2-0.5,8.8-1.4c2.6-0.9,4.9-2.3,6.8-4.1c1.8-1.8,3.3-3.8,4.2-6.2
		c1-2.4,1.4-4.9,1.4-7.4c0-3.2-0.7-5.8-2.2-7.9C290.8,928.5,289,926.9,287,925.7 M376.3,899.4l-1.5-0.3l-0.6,1.3
		c-2.2,4.7-4.6,9.3-7.1,13.8c-1.3,2.3-2.6,4.6-3.9,6.8c-0.7,1.2-1.4,2.3-2.1,3.4c-2.2-3.7-4.2-7.3-6.2-10.8
		c-2.5-4.4-4.9-8.8-7.2-13.2l-0.6-1.2l-3.5,0.4c-1.3,0.1-2.6,0.1-3.9,0l-6.1-0.8l2.1,3.3l2.3,3.7l14.6,24l2.1,3.4
		c0,4,0,7.9-0.1,11.5c0,3.8-0.2,7-0.5,9.6l-0.3,2.2l2.3-0.2c2.3-0.2,5.1-0.2,7.4,0l2.3,0.2l-0.2-2.2c-0.1-1.4-0.2-2.8-0.3-4.2
		c-0.2-5.9-0.3-11.9-0.3-17.9c0.8-1.5,1.7-3.2,2.8-5c3-5.1,6-10,9.3-14.9c2-3.1,4.3-6.5,6.8-10.2l2.4-3.6l-4.4,0.9
		C378.8,900,379.2,900,376.3,899.4 M475.8,906.8L475.8,906.8c-2.5-2.5-5.5-4.4-8.8-5.6c-5-1.8-11.9-2.1-18.7-1.7
		c-3.9,0.3-7.8,0.2-11.7,0.1c-2-0.1-4-0.2-6-0.3l-2.1-0.1l0.5,12c0.1,3.3,0.2,6.6,0.2,10v13.4c0,3.4-0.1,6.7-0.2,10
		c-0.1,3.3-0.3,6.6-0.4,9.8l-0.1,2l2.1-0.1c1.8-0.1,3.5-0.2,5.2-0.2h5.3c1.8,0,3.5,0,5.2,0.1c4.9,0.1,10.1,0.1,15.6-1.3
		c3.6-1,7-2.6,10-5c3-2.3,5.5-5.4,7.5-9.2c1.9-3.8,2.9-8.4,2.9-13.9c0-4.1-0.5-7.9-1.5-11.3C479.9,912.4,478.1,909.4,475.8,906.8z
		 M468.8,938.7c-1.3,3-3.1,5.3-5.1,7c-2,1.6-4.4,2.8-7,3.4c-4.7,1.1-9.5,1.1-14,0.8c-0.9-0.1-1.9-0.2-2.8-0.3
		c-0.3-5-0.4-10-0.4-14.9v-13.4c0-4.8,0.1-9.6,0.4-14.5c1.2-0.1,2.5-0.2,3.9-0.3c4.7-0.4,10.5-0.4,15,0.7c2.5,0.6,4.5,1.6,6.3,3.1
		c1.7,1.5,3.1,3.6,4.2,6.2c1,2.7,1.6,6.2,1.6,10.5C470.8,931.7,470.2,935.7,468.8,938.7 M576.3,899.8c-0.6,0-1.3-0.1-2.2-0.3
		l-2.5-0.6l0.1,2.5c0.2,4.5,0.4,9.4,0.5,14.5c0.1,5.1,0.1,10.4,0.1,15.9v6c-1.6-1.6-3.3-3.4-5.2-5.4l-10.3-10.8
		c-3.6-3.8-7.2-7.7-10.9-11.6l-10.9-11.6H531l0.1,1.9c0.1,1.7,0.2,4.4,0.2,7.9c0,3.6,0,7.8,0,12.8c0,1.7,0,3.6-0.1,5.8l-0.2,6.7
		c-0.1,2.3-0.2,4.5-0.3,6.8l-0.3,6.3c-0.1,1.9-0.2,3.6-0.4,5c-0.1,0.9-0.2,1.8-0.3,2.7l-0.5,2.4l2.6-0.3c1.6-0.2,3.6-0.2,5.2,0
		l2.4,0.3l-0.3-2.3c-0.1-0.7-0.1-1.5-0.2-2.2l-0.3-9.1c-0.1-1.8-0.1-3.6-0.1-5.3l-0.1-5c-0.1-4.6-0.1-9.3,0-13.9l0-1.3
		c5.8,6.1,11.6,12.2,17.4,18.2c6.6,6.9,13,14,19.3,21.1l0.6,0.6h3.9V953c0-1.2,0-2.7,0-4.4l-0.1-11.2c-0.1-1.9-0.1-3.7-0.1-5.5v-4.7
		c0-1.5,0.1-3.5,0.2-5.9c0.1-2.5,0.2-5,0.3-7.6c0.2-4.1,0.5-8.2,0.7-12.3l0.2-2.5l-2.6,0.6C577.7,899.6,577,899.7,576.3,899.8
		 M663.1,950.6l0.8-2.9l-3,0.6c-1.2,0.2-2.6,0.4-4.2,0.6c-3.7,0.3-7.5,0.4-11.2,0.4h-3.7c-0.1-3.3-0.1-6.6-0.1-9.8v-7.7
		c0-0.7,0-1.2,0-1.7l2,0l5.1,0.1c1.8,0,3.6,0.1,5.4,0.2c1.8,0.1,3.3,0.2,4.7,0.4l2.6,0.3l-0.5-2.4c-0.3-1.3-0.3-2.7,0-4.1l0.5-2.3
		l-2.5,0.2c-1.1,0.1-2.4,0.2-3.6,0.3l-4.2,0.2c-1.5,0.1-3.2,0.2-5,0.2c-1.3,0-2.7,0-4.3,0.1l0-2.6c0-2,0-3.9,0-5.9
		c0-1.9,0-3.6,0.1-5l0.1-3c3.3,0,6.5,0.2,9.8,0.4l4.4,0.3c1.4,0.1,3,0.2,4.7,0.3l2.4,0.1l-0.5-2.3c-0.3-1.3-0.3-2.6,0-3.9l0.5-2.3
		l-9.4,0.4c-4.6,0.2-9.3,0.2-14,0c-2.4-0.1-4.7-0.2-7.1-0.3l-2.1-0.1l0.1,2c0.2,3.3,0.3,6.6,0.4,9.9c0.1,3.3,0.2,6.6,0.2,10v13.4
		c0,3.4-0.1,6.7-0.2,10c-0.1,3.3-0.3,6.6-0.4,9.9l-0.1,2l2.1-0.1c2.4-0.1,4.8-0.2,7.1-0.2h14.3c2.3,0,4.7,0.1,7,0.2l2.6,0.1
		l-0.7-2.4c-0.1-0.5-0.2-1-0.2-1.5l0-1.1L663.1,950.6 M750.7,899.4c-2.9,0.6-2.5,0.6-5.4,0l-1.5-0.3l-0.6,1.3
		c-2.2,4.7-4.6,9.3-7.1,13.8c-1.3,2.3-2.6,4.6-3.9,6.8c-0.7,1.2-1.4,2.3-2.1,3.4c-2.2-3.7-4.2-7.3-6.2-10.8
		c-2.5-4.4-4.9-8.8-7.2-13.2l-0.6-1.2l-3.4,0.4c-1.3,0.1-2.6,0.1-3.9,0l-6.1-0.8l2.1,3.3c0.5,0.8,1.3,2,2.3,3.7l14.6,24l2.1,3.4
		c0,4,0,7.8-0.1,11.5c0,3.7-0.2,6.9-0.5,9.6l-0.3,2.2l2.3-0.2c2.3-0.2,5.1-0.2,7.4,0l2.3,0.2l-0.2-2.2c-0.1-1.4-0.2-2.8-0.3-4.2
		c-0.1-1.8-0.1-3.7-0.2-5.8c-0.1-2.1-0.1-4.2-0.1-6.4c0-1.9,0-3.8,0-5.7c0.8-1.5,1.7-3.2,2.8-5c3-5.1,6.1-10,9.3-14.9
		c2-3.1,4.3-6.5,6.8-10.2l2.4-3.6L750.7,899.4"/>
</g>
</svg>
