<?xml version="1.0" encoding="UTF-8" standalone="no"?>
<!DOCTYPE svg PUBLIC "-//W3C//DTD SVG 1.1//EN"
 "http://www.w3.org/Graphics/SVG/1.1/DTD/svg11.dtd">
<!-- Generated by graphviz version 10.0.1 (20240210.2158)
 -->
<!-- Title: Tree Pages: 1 -->
<svg width="395pt" height="314pt"
 viewBox="0.00 0.00 395.00 314.00" xmlns="http://www.w3.org/2000/svg" xmlns:xlink="http://www.w3.org/1999/xlink">
<g id="graph0" class="graph" transform="scale(1 1) rotate(0) translate(4 310)">
<title>Tree</title>
<polygon fill="white" stroke="none" points="-4,4 -4,-310 391,-310 391,4 -4,4"/>
<!-- 0 -->
<g id="node1" class="node">
<title>0</title>
<path fill="#a3f3c4" stroke="black" d="M235.5,-306C235.5,-306 90.5,-306 90.5,-306 84.5,-306 78.5,-300 78.5,-294 78.5,-294 78.5,-235 78.5,-235 78.5,-229 84.5,-223 90.5,-223 90.5,-223 235.5,-223 235.5,-223 241.5,-223 247.5,-229 247.5,-235 247.5,-235 247.5,-294 247.5,-294 247.5,-300 241.5,-306 235.5,-306"/>
<text text-anchor="middle" x="163" y="-288.7" font-family="Helvetica,sans-Serif" font-size="14.00">critical &lt;= 3.5</text>
<text text-anchor="middle" x="163" y="-273.7" font-family="Helvetica,sans-Serif" font-size="14.00">gini = 0.55</text>
<text text-anchor="middle" x="163" y="-258.7" font-family="Helvetica,sans-Serif" font-size="14.00">samples = 4169</text>
<text text-anchor="middle" x="163" y="-243.7" font-family="Helvetica,sans-Serif" font-size="14.00">value = [1077, 2515, 577]</text>
<text text-anchor="middle" x="163" y="-228.7" font-family="Helvetica,sans-Serif" font-size="14.00">class = 2</text>
</g>
<!-- 1 -->
<g id="node2" class="node">
<title>1</title>
<path fill="#e99659" stroke="black" d="M142,-179.5C142,-179.5 12,-179.5 12,-179.5 6,-179.5 0,-173.5 0,-167.5 0,-167.5 0,-123.5 0,-123.5 0,-117.5 6,-111.5 12,-111.5 12,-111.5 142,-111.5 142,-111.5 148,-111.5 154,-117.5 154,-123.5 154,-123.5 154,-167.5 154,-167.5 154,-173.5 148,-179.5 142,-179.5"/>
<text text-anchor="middle" x="77" y="-162.2" font-family="Helvetica,sans-Serif" font-size="14.00">gini = 0.254</text>
<text text-anchor="middle" x="77" y="-147.2" font-family="Helvetica,sans-Serif" font-size="14.00">samples = 1174</text>
<text text-anchor="middle" x="77" y="-132.2" font-family="Helvetica,sans-Serif" font-size="14.00">value = [1004, 137, 33]</text>
<text text-anchor="middle" x="77" y="-117.2" font-family="Helvetica,sans-Serif" font-size="14.00">class = 1</text>
</g>
<!-- 0&#45;&gt;1 -->
<g id="edge1" class="edge">
<title>0&#45;&gt;1</title>
<path fill="none" stroke="black" d="M132.92,-222.58C124.9,-211.66 116.21,-199.85 108.14,-188.86"/>
<polygon fill="black" stroke="black" points="111.16,-187.07 102.42,-181.08 105.52,-191.21 111.16,-187.07"/>
<text text-anchor="middle" x="97.75" y="-198.77" font-family="Helvetica,sans-Serif" font-size="14.00">True</text>
</g>
<!-- 2 -->
<g id="node3" class="node">
<title>2</title>
<path fill="#6beca1" stroke="black" d="M314,-187C314,-187 184,-187 184,-187 178,-187 172,-181 172,-175 172,-175 172,-116 172,-116 172,-110 178,-104 184,-104 184,-104 314,-104 314,-104 320,-104 326,-110 326,-116 326,-116 326,-175 326,-175 326,-181 320,-187 314,-187"/>
<text text-anchor="middle" x="249" y="-169.7" font-family="Helvetica,sans-Serif" font-size="14.00">v3 &lt;= 0.5</text>
<text text-anchor="middle" x="249" y="-154.7" font-family="Helvetica,sans-Serif" font-size="14.00">gini = 0.336</text>
<text text-anchor="middle" x="249" y="-139.7" font-family="Helvetica,sans-Serif" font-size="14.00">samples = 2995</text>
<text text-anchor="middle" x="249" y="-124.7" font-family="Helvetica,sans-Serif" font-size="14.00">value = [73, 2378, 544]</text>
<text text-anchor="middle" x="249" y="-109.7" font-family="Helvetica,sans-Serif" font-size="14.00">class = 2</text>
</g>
<!-- 0&#45;&gt;2 -->
<g id="edge2" class="edge">
<title>0&#45;&gt;2</title>
<path fill="none" stroke="black" d="M193.08,-222.58C199.33,-214.07 205.99,-205.01 212.45,-196.23"/>
<polygon fill="black" stroke="black" points="215.08,-198.55 218.19,-188.42 209.44,-194.4 215.08,-198.55"/>
<text text-anchor="middle" x="222.86" y="-206.11" font-family="Helvetica,sans-Serif" font-size="14.00">False</text>
</g>
<!-- 3 -->
<g id="node4" class="node">
<title>3</title>
<path fill="#44e688" stroke="black" d="M233.25,-68C233.25,-68 110.75,-68 110.75,-68 104.75,-68 98.75,-62 98.75,-56 98.75,-56 98.75,-12 98.75,-12 98.75,-6 104.75,0 110.75,0 110.75,0 233.25,0 233.25,0 239.25,0 245.25,-6 245.25,-12 245.25,-12 245.25,-56 245.25,-56 245.25,-62 239.25,-68 233.25,-68"/>
<text text-anchor="middle" x="172" y="-50.7" font-family="Helvetica,sans-Serif" font-size="14.00">gini = 0.1</text>
<text text-anchor="middle" x="172" y="-35.7" font-family="Helvetica,sans-Serif" font-size="14.00">samples = 2506</text>
<text text-anchor="middle" x="172" y="-20.7" font-family="Helvetica,sans-Serif" font-size="14.00">value = [73, 2376, 57]</text>
<text text-anchor="middle" x="172" y="-5.7" font-family="Helvetica,sans-Serif" font-size="14.00">class = 2</text>
</g>
<!-- 2&#45;&gt;3 -->
<g id="edge3" class="edge">
<title>2&#45;&gt;3</title>
<path fill="none" stroke="black" d="M220.33,-103.73C214.3,-95.15 207.93,-86.09 201.85,-77.46"/>
<polygon fill="black" stroke="black" points="204.9,-75.7 196.29,-69.54 199.18,-79.73 204.9,-75.7"/>
</g>
<!-- 4 -->
<g id="node5" class="node">
<title>4</title>
<path fill="#823ae5" stroke="black" d="M375,-68C375,-68 275,-68 275,-68 269,-68 263,-62 263,-56 263,-56 263,-12 263,-12 263,-6 269,0 275,0 275,0 375,0 375,0 381,0 387,-6 387,-12 387,-12 387,-56 387,-56 387,-62 381,-68 375,-68"/>
<text text-anchor="middle" x="325" y="-50.7" font-family="Helvetica,sans-Serif" font-size="14.00">gini = 0.008</text>
<text text-anchor="middle" x="325" y="-35.7" font-family="Helvetica,sans-Serif" font-size="14.00">samples = 489</text>
<text text-anchor="middle" x="325" y="-20.7" font-family="Helvetica,sans-Serif" font-size="14.00">value = [0, 2, 487]</text>
<text text-anchor="middle" x="325" y="-5.7" font-family="Helvetica,sans-Serif" font-size="14.00">class = 3+</text>
</g>
<!-- 2&#45;&gt;4 -->
<g id="edge4" class="edge">
<title>2&#45;&gt;4</title>
<path fill="none" stroke="black" d="M277.3,-103.73C283.19,-95.24 289.41,-86.28 295.34,-77.73"/>
<polygon fill="black" stroke="black" points="298.2,-79.75 301.02,-69.54 292.45,-75.76 298.2,-79.75"/>
</g>
</g>
</svg>
