<?xml version="1.0" standalone="no"?><!DOCTYPE svg PUBLIC "-//W3C//DTD SVG 1.1//EN" "http://www.w3.org/Graphics/SVG/1.1/DTD/svg11.dtd"><svg xmlns:xlink="http://www.w3.org/1999/xlink" version="1.1" class="highcharts-root" style="font-family: &quot;Lucida Grande&quot;, &quot;Lucida Sans Unicode&quot;, Arial, Helvetica, sans-serif; font-size: 12px;" xmlns="http://www.w3.org/2000/svg" width="600" height="420" viewBox="0 0 600 420" role="img" aria-label="% PyTorch Papers of Total TensorFlow/PyTorch Papers"><desc>Created with Highcharts 10.2.0</desc><defs><clipPath id="highcharts-vg1lm6p-191-"><rect x="0" y="0" width="513" height="266" fill="none"></rect></clipPath><clipPath id="highcharts-vg1lm6p-193-"><rect x="0" y="0" width="513" height="266" fill="none"></rect></clipPath></defs><rect fill="#ffffff" class="highcharts-background" x="0" y="0" width="600" height="420" rx="0" ry="0"></rect><rect fill="none" class="highcharts-plot-background" x="77" y="46" width="513" height="266"></rect><g class="highcharts-grid highcharts-xaxis-grid" data-z-index="1"><path fill="none" stroke-dasharray="none" data-z-index="1" class="highcharts-grid-line" d="M 130.5 46 L 130.5 312" opacity="1"></path><path fill="none" stroke-dasharray="none" data-z-index="1" class="highcharts-grid-line" d="M 215.5 46 L 215.5 312" opacity="1"></path><path fill="none" stroke-dasharray="none" data-z-index="1" class="highcharts-grid-line" d="M 300.5 46 L 300.5 312" opacity="1"></path><path fill="none" stroke-dasharray="none" data-z-index="1" class="highcharts-grid-line" d="M 386.5 46 L 386.5 312" opacity="1"></path><path fill="none" stroke-dasharray="none" data-z-index="1" class="highcharts-grid-line" d="M 471.5 46 L 471.5 312" opacity="1"></path><path fill="none" stroke-dasharray="none" data-z-index="1" class="highcharts-grid-line" d="M 556.5 46 L 556.5 312" opacity="1"></path></g><g class="highcharts-grid highcharts-yaxis-grid" data-z-index="1"><path fill="none" stroke="#e6e6e6" stroke-width="1" stroke-dasharray="none" data-z-index="1" class="highcharts-grid-line" d="M 77 312.5 L 590 312.5" opacity="1"></path><path fill="none" stroke="#e6e6e6" stroke-width="1" stroke-dasharray="none" data-z-index="1" class="highcharts-grid-line" d="M 77 246.5 L 590 246.5" opacity="1"></path><path fill="none" stroke="#e6e6e6" stroke-width="1" stroke-dasharray="none" data-z-index="1" class="highcharts-grid-line" d="M 77 179.5 L 590 179.5" opacity="1"></path><path fill="none" stroke="#e6e6e6" stroke-width="1" stroke-dasharray="none" data-z-index="1" class="highcharts-grid-line" d="M 77 113.5 L 590 113.5" opacity="1"></path><path fill="none" stroke="#e6e6e6" stroke-width="1" stroke-dasharray="none" data-z-index="1" class="highcharts-grid-line" d="M 77 45.5 L 590 45.5" opacity="1"></path></g><rect fill="none" class="highcharts-plot-border" data-z-index="1" x="77" y="46" width="513" height="266"></rect><g class="highcharts-axis highcharts-xaxis" data-z-index="2"><path fill="none" class="highcharts-tick" stroke="#ccd6eb" stroke-width="1" d="M 130.5 312 L 130.5 322" opacity="1"></path><path fill="none" class="highcharts-tick" stroke="#ccd6eb" stroke-width="1" d="M 215.5 312 L 215.5 322" opacity="1"></path><path fill="none" class="highcharts-tick" stroke="#ccd6eb" stroke-width="1" d="M 300.5 312 L 300.5 322" opacity="1"></path><path fill="none" class="highcharts-tick" stroke="#ccd6eb" stroke-width="1" d="M 386.5 312 L 386.5 322" opacity="1"></path><path fill="none" class="highcharts-tick" stroke="#ccd6eb" stroke-width="1" d="M 471.5 312 L 471.5 322" opacity="1"></path><path fill="none" class="highcharts-tick" stroke="#ccd6eb" stroke-width="1" d="M 556.5 312 L 556.5 322" opacity="1"></path><text x="333.5" data-z-index="7" text-anchor="middle" transform="translate(0,0)" class="highcharts-axis-title" y="349.96875" style="color: rgb(102, 102, 102); fill: rgb(102, 102, 102);">Date</text><path fill="none" class="highcharts-axis-line" stroke="#ccd6eb" stroke-width="1" data-z-index="7" d="M 77 312.5 L 590 312.5"></path></g><g class="highcharts-axis highcharts-yaxis" data-z-index="2"><text x="23.765625" data-z-index="7" text-anchor="middle" transform="translate(0,0) rotate(270 23.765625 179)" class="highcharts-axis-title" y="179" style="color: rgb(102, 102, 102); fill: rgb(102, 102, 102);">% of total framework mentions</text><path fill="none" class="highcharts-axis-line" data-z-index="7" d="M 77 46 L 77 312"></path></g><g class="highcharts-series-group" data-z-index="3"><g class="highcharts-series highcharts-series-0 highcharts-line-series" data-z-index="0.1" opacity="1" transform="translate(77,46) scale(1 1)" clip-path="url(#highcharts-vg1lm6p-193-)"><path fill="none" d="M 196.05659269923 135.48598130841" class="highcharts-graph" data-z-index="1" stroke="#7cb5ec" stroke-width="2" stroke-dasharray="none"></path></g><g class="highcharts-markers highcharts-series-0 highcharts-line-series" data-z-index="0.1" opacity="1" transform="translate(77,46) scale(1 1)" clip-path="none"><path fill="#7cb5ec" d="M 196 139 A 4 4 0 1 1 196.00399999933333 138.99999800000018 Z" opacity="1" class="highcharts-point"></path></g><g class="highcharts-series highcharts-series-1 highcharts-line-series" data-z-index="0.1" opacity="1" transform="translate(77,46) scale(1 1)" clip-path="url(#highcharts-vg1lm6p-193-)"><path fill="none" d="M 47.233994219141 266 L 132.28379906407 233.092783505155 L 217.333603909 168.069651741294 L 302.38340875394 96.72727272726999 L 387.66617357562 61.58620689655001" class="highcharts-graph" data-z-index="1" stroke="#f7a35c" stroke-width="2" stroke-dasharray="none"></path></g><g class="highcharts-markers highcharts-series-1 highcharts-line-series" data-z-index="0.1" opacity="1" transform="translate(77,46) scale(1 1)" clip-path="none"><path fill="#f7a35c" d="M 47 262 L 51 266 L 47 270 L 43 266 Z" opacity="1" class="highcharts-point"></path><path fill="#f7a35c" d="M 132 229 L 136 233 L 132 237 L 128 233 Z" opacity="1" class="highcharts-point"></path><path fill="#f7a35c" d="M 217 164 L 221 168 L 217 172 L 213 168 Z" opacity="1" class="highcharts-point"></path><path fill="#f7a35c" d="M 302 93 L 306 97 L 302 101 L 298 97 Z" opacity="1" class="highcharts-point"></path><path fill="#f7a35c" d="M 387 58 L 391 62 L 387 66 L 383 62 Z" opacity="1" class="highcharts-point"></path></g><g class="highcharts-series highcharts-series-2 highcharts-line-series" data-z-index="0.1" opacity="1" transform="translate(77,46) scale(1 1)" clip-path="url(#highcharts-vg1lm6p-193-)"><path fill="none" d="M 167.53840887882 205.447154471545 L 252.58821372375 133 L 337.87097854543 95.71969696970001 L 422.92078339036 59.323741007189994 L 507.97058823529 42.59276366436001" class="highcharts-graph" data-z-index="1" stroke="#90ee7e" stroke-width="2" stroke-dasharray="none"></path></g><g class="highcharts-markers highcharts-series-2 highcharts-line-series" data-z-index="0.1" opacity="1" transform="translate(77,46) scale(1 1)" clip-path="none"><path fill="#90ee7e" d="M 163 201 L 171 201 L 171 209 L 163 209 Z" opacity="1" class="highcharts-point"></path><path fill="#90ee7e" d="M 248 129 L 256 129 L 256 137 L 248 137 Z" opacity="1" class="highcharts-point"></path><path fill="#90ee7e" d="M 333 92 L 341 92 L 341 100 L 333 100 Z" opacity="1" class="highcharts-point"></path><path fill="#90ee7e" d="M 418 55 L 426 55 L 426 63 L 418 63 Z" opacity="1" class="highcharts-point"></path><path fill="#90ee7e" d="M 503 39 L 511 39 L 511 47 L 503 47 Z" opacity="1" class="highcharts-point"></path></g><g class="highcharts-series highcharts-series-3 highcharts-line-series" data-z-index="0.1" opacity="1" transform="translate(77,46) scale(1 1)" clip-path="url(#highcharts-vg1lm6p-193-)"><path fill="none" d="M 104.03740188321 259.6666666666667 L 189.08720672814 149.39726027397 L 274.13701157307 75.14124293785 L 359.41977639475 46.03846153846001" class="highcharts-graph" data-z-index="1" stroke="#7798BF" stroke-width="2" stroke-dasharray="none"></path></g><g class="highcharts-markers highcharts-series-3 highcharts-line-series" data-z-index="0.1" opacity="1" transform="translate(77,46) scale(1 1)" clip-path="none"><path fill="#7798BF" d="M 104 256 L 108 264 L 100 264 Z" opacity="1" class="highcharts-point"></path><path fill="#7798BF" d="M 189 145 L 193 153 L 185 153 Z" opacity="1" class="highcharts-point"></path><path fill="#7798BF" d="M 274 71 L 278 79 L 270 79 Z" opacity="1" class="highcharts-point"></path><path fill="#7798BF" d="M 359 42 L 363 50 L 355 50 Z" opacity="1" class="highcharts-point"></path></g><g class="highcharts-series highcharts-series-4 highcharts-line-series" data-z-index="0.1" opacity="1" transform="translate(77,46) scale(1 1)" clip-path="url(#highcharts-vg1lm6p-193-)"><path fill="none" d="M 174.93488814061 195.588235294118 L 259.98469298554 82.81132075471999" class="highcharts-graph" data-z-index="1" stroke="#aacece" stroke-width="2" stroke-dasharray="none"></path></g><g class="highcharts-markers highcharts-series-4 highcharts-line-series" data-z-index="0.1" opacity="1" transform="translate(77,46) scale(1 1)" clip-path="none"><path fill="#aacece" d="M 170 192 L 178 192 L 174 200 Z" opacity="1" class="highcharts-point"></path><path fill="#aacece" d="M 255 79 L 263 79 L 259 87 Z" opacity="1" class="highcharts-point"></path></g><g class="highcharts-series highcharts-series-5 highcharts-line-series" data-z-index="0.1" opacity="1" transform="translate(77,46) scale(1 1)" clip-path="url(#highcharts-vg1lm6p-193-)"><path fill="none" d="M 89.943323289867 247.966101694915 L 174.9931281348 187.07692307692298 L 260.04293297973 133 L 345.32569780141 88.66666666667001 L 430.37550264634 59.338461538459995" class="highcharts-graph" data-z-index="1" stroke="#ff0066" stroke-width="2" stroke-dasharray="none"></path></g><g class="highcharts-markers highcharts-series-5 highcharts-line-series" data-z-index="0.1" opacity="1" transform="translate(77,46) scale(1 1)" clip-path="none"><path fill="#ff0066" d="M 89 252 A 4 4 0 1 1 89.00399999933333 251.99999800000018 Z" opacity="1" class="highcharts-point"></path><path fill="#ff0066" d="M 174 191 A 4 4 0 1 1 174.00399999933333 190.99999800000018 Z" opacity="1" class="highcharts-point"></path><path fill="#ff0066" d="M 260 137 A 4 4 0 1 1 260.00399999933336 136.99999800000018 Z" opacity="1" class="highcharts-point"></path><path fill="#ff0066" d="M 345 93 A 4 4 0 1 1 345.00399999933336 92.99999800000016 Z" opacity="1" class="highcharts-point"></path><path fill="#ff0066" d="M 430 63 A 4 4 0 1 1 430.00399999933336 62.99999800000017 Z" opacity="1" class="highcharts-point"></path></g><g class="highcharts-series highcharts-series-6 highcharts-line-series" data-z-index="0.1" opacity="1" transform="translate(77,46) scale(1 1)" clip-path="url(#highcharts-vg1lm6p-193-)"><path fill="none" d="M 5.0294117647059 266 L 90.079216609638 266 L 175.12902145457 161.24778761061998 L 260.1788262995 89.06787330316999 L 345.46159112118 56.60640301318" class="highcharts-graph" data-z-index="1" stroke="#eeaaee" stroke-width="2" stroke-dasharray="none"></path></g><g class="highcharts-markers highcharts-series-6 highcharts-line-series" data-z-index="0.1" opacity="1" transform="translate(77,46) scale(1 1)" clip-path="none"><path fill="#eeaaee" d="M 5 262 L 9 266 L 5 270 L 1 266 Z" opacity="1" class="highcharts-point"></path><path fill="#eeaaee" d="M 90 262 L 94 266 L 90 270 L 86 266 Z" opacity="1" class="highcharts-point"></path><path fill="#eeaaee" d="M 175 157 L 179 161 L 175 165 L 171 161 Z" opacity="1" class="highcharts-point"></path><path fill="#eeaaee" d="M 260 85 L 264 89 L 260 93 L 256 89 Z" opacity="1" class="highcharts-point"></path><path fill="#eeaaee" d="M 345 53 L 349 57 L 345 61 L 341 57 Z" opacity="1" class="highcharts-point"></path></g><g class="highcharts-series highcharts-series-7 highcharts-line-series" data-z-index="0.1" opacity="1" transform="translate(77,46) scale(1 1)" clip-path="url(#highcharts-vg1lm6p-193-)"><path fill="none" d="M 125.79974637788 238.857142857143 L 210.84955122281 118.22222222222001 L 295.89935606774 54.934782608700004 L 381.18212088943 33.014184397159994" class="highcharts-graph" data-z-index="1" stroke="#55BF3B" stroke-width="2" stroke-dasharray="none"></path></g><g class="highcharts-markers highcharts-series-7 highcharts-line-series" data-z-index="0.1" opacity="1" transform="translate(77,46) scale(1 1)" clip-path="none"><path fill="#55BF3B" d="M 121 235 L 129 235 L 129 243 L 121 243 Z" opacity="1" class="highcharts-point"></path><path fill="#55BF3B" d="M 206 114 L 214 114 L 214 122 L 206 122 Z" opacity="1" class="highcharts-point"></path><path fill="#55BF3B" d="M 291 51 L 299 51 L 299 59 L 291 59 Z" opacity="1" class="highcharts-point"></path><path fill="#55BF3B" d="M 377 29 L 385 29 L 385 37 L 377 37 Z" opacity="1" class="highcharts-point"></path></g><g class="highcharts-series highcharts-series-8 highcharts-line-series" data-z-index="0.1" opacity="1" transform="translate(77,46) scale(1 1)" clip-path="url(#highcharts-vg1lm6p-193-)"><path fill="none" d="M 125.87739970346 252.474576271186 L 295.95759606193 79.44533333333001" class="highcharts-graph" data-z-index="1" stroke="#5B5353" stroke-width="2" stroke-dasharray="none"></path></g><g class="highcharts-markers highcharts-series-8 highcharts-line-series" data-z-index="0.1" opacity="1" transform="translate(77,46) scale(1 1)" clip-path="none"><path fill="#5B5353" d="M 125 248 L 129 256 L 121 256 Z" opacity="1" class="highcharts-point"></path><path fill="#5B5353" d="M 295 75 L 299 83 L 291 83 Z" opacity="1" class="highcharts-point"></path></g></g><text x="300" text-anchor="middle" class="highcharts-title" data-z-index="4" y="24" style="color: rgb(51, 51, 51); font-size: 18px; fill: rgb(51, 51, 51);">% PyTorch Papers of Total TensorFlow/PyTorch Papers</text><text x="300" text-anchor="middle" class="highcharts-subtitle" data-z-index="4" y="45" style="color: rgb(102, 102, 102); fill: rgb(102, 102, 102);"></text><text x="10" text-anchor="start" class="highcharts-caption" data-z-index="4" y="417" style="color: rgb(102, 102, 102); fill: rgb(102, 102, 102);"></text><g class="highcharts-legend highcharts-no-tooltip" data-z-index="7" transform="translate(36,364)"><rect fill="none" class="highcharts-legend-box" rx="0" ry="0" x="0" y="0" width="528" height="41"></rect><g data-z-index="1"><g><g class="highcharts-legend-item highcharts-line-series highcharts-color-undefined highcharts-series-0" data-z-index="1" transform="translate(8,3)"><path fill="none" d="M 0 11 L 16 11" class="highcharts-graph" stroke-dasharray="none" stroke="#7cb5ec" stroke-width="2"></path><path fill="#7cb5ec" d="M 8 15 A 4 4 0 1 1 8.003999999333336 14.999998000000167 Z" class="highcharts-point" opacity="1"></path><text x="21" text-anchor="start" data-z-index="2" y="15" style="color: rgb(51, 51, 51); cursor: pointer; font-size: 12px; font-weight: bold; fill: rgb(51, 51, 51);">ECCV</text></g><g class="highcharts-legend-item highcharts-line-series highcharts-color-undefined highcharts-series-1" data-z-index="1" transform="translate(96.796875,3)"><path fill="none" d="M 0 11 L 16 11" class="highcharts-graph" stroke-dasharray="none" stroke="#f7a35c" stroke-width="2"></path><path fill="#f7a35c" d="M 8 7 L 12 11 L 8 15 L 4 11 Z" class="highcharts-point" opacity="1"></path><text x="21" y="15" text-anchor="start" data-z-index="2" style="color: rgb(51, 51, 51); cursor: pointer; font-size: 12px; font-weight: bold; fill: rgb(51, 51, 51);">NeurIPS</text></g><g class="highcharts-legend-item highcharts-line-series highcharts-color-undefined highcharts-series-2" data-z-index="1" transform="translate(185.59375,3)"><path fill="none" d="M 0 11 L 16 11" class="highcharts-graph" stroke-dasharray="none" stroke="#90ee7e" stroke-width="2"></path><path fill="#90ee7e" d="M 4 7 L 12 7 L 12 15 L 4 15 Z" class="highcharts-point" opacity="1"></path><text x="21" y="15" text-anchor="start" data-z-index="2" style="color: rgb(51, 51, 51); cursor: pointer; font-size: 12px; font-weight: bold; fill: rgb(51, 51, 51);">ICLR</text></g><g class="highcharts-legend-item highcharts-line-series highcharts-color-undefined highcharts-series-3" data-z-index="1" transform="translate(274.390625,3)"><path fill="none" d="M 0 11 L 16 11" class="highcharts-graph" stroke-dasharray="none" stroke="#7798BF" stroke-width="2"></path><path fill="#7798BF" d="M 8 7 L 12 15 L 4 15 Z" class="highcharts-point" opacity="1"></path><text x="21" y="15" text-anchor="start" data-z-index="2" style="color: rgb(51, 51, 51); cursor: pointer; font-size: 12px; font-weight: bold; fill: rgb(51, 51, 51);">ACL</text></g><g class="highcharts-legend-item highcharts-line-series highcharts-color-undefined highcharts-series-4" data-z-index="1" transform="translate(363.1875,3)"><path fill="none" d="M 0 11 L 16 11" class="highcharts-graph" stroke-dasharray="none" stroke="#aacece" stroke-width="2"></path><path fill="#aacece" d="M 4 7 L 12 7 L 8 15 Z" class="highcharts-point" opacity="1"></path><text x="21" y="15" text-anchor="start" data-z-index="2" style="color: rgb(51, 51, 51); cursor: pointer; font-size: 12px; font-weight: bold; fill: rgb(51, 51, 51);">NAACL</text></g><g class="highcharts-legend-item highcharts-line-series highcharts-color-undefined highcharts-series-5" data-z-index="1" transform="translate(451.984375,3)"><path fill="none" d="M 0 11 L 16 11" class="highcharts-graph" stroke-dasharray="none" stroke="#ff0066" stroke-width="2"></path><path fill="#ff0066" d="M 8 15 A 4 4 0 1 1 8.003999999333336 14.999998000000167 Z" class="highcharts-point" opacity="1"></path><text x="21" y="15" text-anchor="start" data-z-index="2" style="color: rgb(51, 51, 51); cursor: pointer; font-size: 12px; font-weight: bold; fill: rgb(51, 51, 51);">ICML</text></g><g class="highcharts-legend-item highcharts-line-series highcharts-color-undefined highcharts-series-6" data-z-index="1" transform="translate(8,18)"><path fill="none" d="M 0 11 L 16 11" class="highcharts-graph" stroke-dasharray="none" stroke="#eeaaee" stroke-width="2"></path><path fill="#eeaaee" d="M 8 7 L 12 11 L 8 15 L 4 11 Z" class="highcharts-point" opacity="1"></path><text x="21" y="15" text-anchor="start" data-z-index="2" style="color: rgb(51, 51, 51); cursor: pointer; font-size: 12px; font-weight: bold; fill: rgb(51, 51, 51);">CVPR</text></g><g class="highcharts-legend-item highcharts-line-series highcharts-color-undefined highcharts-series-7" data-z-index="1" transform="translate(96.796875,18)"><path fill="none" d="M 0 11 L 16 11" class="highcharts-graph" stroke-dasharray="none" stroke="#55BF3B" stroke-width="2"></path><path fill="#55BF3B" d="M 4 7 L 12 7 L 12 15 L 4 15 Z" class="highcharts-point" opacity="1"></path><text x="21" y="15" text-anchor="start" data-z-index="2" style="color: rgb(51, 51, 51); cursor: pointer; font-size: 12px; font-weight: bold; fill: rgb(51, 51, 51);">EMNLP</text></g><g class="highcharts-legend-item highcharts-line-series highcharts-color-undefined highcharts-series-8" data-z-index="1" transform="translate(185.59375,18)"><path fill="none" d="M 0 11 L 16 11" class="highcharts-graph" stroke-dasharray="none" stroke="#5B5353" stroke-width="2"></path><path fill="#5B5353" d="M 8 7 L 12 15 L 4 15 Z" class="highcharts-point" opacity="1"></path><text x="21" y="15" text-anchor="start" data-z-index="2" style="color: rgb(51, 51, 51); cursor: pointer; font-size: 12px; font-weight: bold; fill: rgb(51, 51, 51);">ICCV</text></g></g></g></g><g class="highcharts-axis-labels highcharts-xaxis-labels" data-z-index="7"><text x="131.41692683558" text-anchor="middle" transform="translate(0,0)" y="331" opacity="1" style="color: rgb(102, 102, 102); cursor: default; font-size: 11px; fill: rgb(102, 102, 102);">2017</text><text x="216.44731834912" text-anchor="middle" transform="translate(0,0)" y="331" opacity="1" style="color: rgb(102, 102, 102); cursor: default; font-size: 11px; fill: rgb(102, 102, 102);">2018</text><text x="301.47770986265" text-anchor="middle" transform="translate(0,0)" y="331" opacity="1" style="color: rgb(102, 102, 102); cursor: default; font-size: 11px; fill: rgb(102, 102, 102);">2019</text><text x="386.50810137619" text-anchor="middle" transform="translate(0,0)" y="331" opacity="1" style="color: rgb(102, 102, 102); cursor: default; font-size: 11px; fill: rgb(102, 102, 102);">2020</text><text x="471.77145286647" text-anchor="middle" transform="translate(0,0)" y="331" opacity="1" style="color: rgb(102, 102, 102); cursor: default; font-size: 11px; fill: rgb(102, 102, 102);">2021</text><text x="556.80184438001" text-anchor="middle" transform="translate(0,0)" y="331" opacity="1" style="color: rgb(102, 102, 102); cursor: default; font-size: 11px; fill: rgb(102, 102, 102);">2022</text></g><g class="highcharts-axis-labels highcharts-yaxis-labels" data-z-index="7"><text x="62" text-anchor="end" transform="translate(0,0)" y="317" opacity="1" style="color: rgb(102, 102, 102); cursor: default; font-size: 11px; fill: rgb(102, 102, 102);">0%</text><text x="62" text-anchor="end" transform="translate(0,0)" y="250" opacity="1" style="color: rgb(102, 102, 102); cursor: default; font-size: 11px; fill: rgb(102, 102, 102);">25%</text><text x="62" text-anchor="end" transform="translate(0,0)" y="184" opacity="1" style="color: rgb(102, 102, 102); cursor: default; font-size: 11px; fill: rgb(102, 102, 102);">50%</text><text x="62" text-anchor="end" transform="translate(0,0)" y="117" opacity="1" style="color: rgb(102, 102, 102); cursor: default; font-size: 11px; fill: rgb(102, 102, 102);">75%</text><text x="62" text-anchor="end" transform="translate(0,0)" y="51" opacity="1" style="color: rgb(102, 102, 102); cursor: default; font-size: 11px; fill: rgb(102, 102, 102);">100%</text></g></svg>