<svg xmlns="http://www.w3.org/2000/svg" width="1220" height="580" role="img"><rect width="1220" height="580" fill="transparent"></rect><g transform="translate(40,40)"><g><line opacity="1" x1="67.5" x2="67.5" y1="0" y2="500" stroke="#dddddd" stroke-width="1"></line><line opacity="1" x1="202.5" x2="202.5" y1="0" y2="500" stroke="#dddddd" stroke-width="1"></line><line opacity="1" x1="337.5" x2="337.5" y1="0" y2="500" stroke="#dddddd" stroke-width="1"></line><line opacity="1" x1="472.5" x2="472.5" y1="0" y2="500" stroke="#dddddd" stroke-width="1"></line><line opacity="1" x1="607.5" x2="607.5" y1="0" y2="500" stroke="#dddddd" stroke-width="1"></line><line opacity="1" x1="742.5" x2="742.5" y1="0" y2="500" stroke="#dddddd" stroke-width="1"></line><line opacity="1" x1="877.5" x2="877.5" y1="0" y2="500" stroke="#dddddd" stroke-width="1"></line><line opacity="1" x1="1012.5" x2="1012.5" y1="0" y2="500" stroke="#dddddd" stroke-width="1"></line></g><g><line opacity="1" x1="0" x2="1080" y1="25" y2="25" stroke="#dddddd" stroke-width="1"></line><line opacity="1" x1="0" x2="1080" y1="75" y2="75" stroke="#dddddd" stroke-width="1"></line><line opacity="1" x1="0" x2="1080" y1="125" y2="125" stroke="#dddddd" stroke-width="1"></line><line opacity="1" x1="0" x2="1080" y1="175" y2="175" stroke="#dddddd" stroke-width="1"></line><line opacity="1" x1="0" x2="1080" y1="225" y2="225" stroke="#dddddd" stroke-width="1"></line><line opacity="1" x1="0" x2="1080" y1="275" y2="275" stroke="#dddddd" stroke-width="1"></line><line opacity="1" x1="0" x2="1080" y1="325" y2="325" stroke="#dddddd" stroke-width="1"></line><line opacity="1" x1="0" x2="1080" y1="375" y2="375" stroke="#dddddd" stroke-width="1"></line><line opacity="1" x1="0" x2="1080" y1="425" y2="425" stroke="#dddddd" stroke-width="1"></line><line opacity="1" x1="0" x2="1080" y1="475" y2="475" stroke="#dddddd" stroke-width="1"></line></g><g transform="translate(0,0)"><g transform="translate(67.5,0)" style="opacity: 1;"><line x1="0" x2="0" y1="0" y2="0" style="stroke: rgb(119, 119, 119); stroke-width: 1px;"></line><text dominant-baseline="alphabetic" text-anchor="middle" transform="translate(0,-5) rotate(0)" style="font-family: sans-serif; font-size: 11px; fill: rgb(51, 51, 51);">2014</text></g><g transform="translate(202.5,0)" style="opacity: 1;"><line x1="0" x2="0" y1="0" y2="0" style="stroke: rgb(119, 119, 119); stroke-width: 1px;"></line><text dominant-baseline="alphabetic" text-anchor="middle" transform="translate(0,-5) rotate(0)" style="font-family: sans-serif; font-size: 11px; fill: rgb(51, 51, 51);">2015</text></g><g transform="translate(337.5,0)" style="opacity: 1;"><line x1="0" x2="0" y1="0" y2="0" style="stroke: rgb(119, 119, 119); stroke-width: 1px;"></line><text dominant-baseline="alphabetic" text-anchor="middle" transform="translate(0,-5) rotate(0)" style="font-family: sans-serif; font-size: 11px; fill: rgb(51, 51, 51);">2016</text></g><g transform="translate(472.5,0)" style="opacity: 1;"><line x1="0" x2="0" y1="0" y2="0" style="stroke: rgb(119, 119, 119); stroke-width: 1px;"></line><text dominant-baseline="alphabetic" text-anchor="middle" transform="translate(0,-5) rotate(0)" style="font-family: sans-serif; font-size: 11px; fill: rgb(51, 51, 51);">2017</text></g><g transform="translate(607.5,0)" style="opacity: 1;"><line x1="0" x2="0" y1="0" y2="0" style="stroke: rgb(119, 119, 119); stroke-width: 1px;"></line><text dominant-baseline="alphabetic" text-anchor="middle" transform="translate(0,-5) rotate(0)" style="font-family: sans-serif; font-size: 11px; fill: rgb(51, 51, 51);">2018</text></g><g transform="translate(742.5,0)" style="opacity: 1;"><line x1="0" x2="0" y1="0" y2="0" style="stroke: rgb(119, 119, 119); stroke-width: 1px;"></line><text dominant-baseline="alphabetic" text-anchor="middle" transform="translate(0,-5) rotate(0)" style="font-family: sans-serif; font-size: 11px; fill: rgb(51, 51, 51);">2019</text></g><g transform="translate(877.5,0)" style="opacity: 1;"><line x1="0" x2="0" y1="0" y2="0" style="stroke: rgb(119, 119, 119); stroke-width: 1px;"></line><text dominant-baseline="alphabetic" text-anchor="middle" transform="translate(0,-5) rotate(0)" style="font-family: sans-serif; font-size: 11px; fill: rgb(51, 51, 51);">2020</text></g><g transform="translate(1012.5,0)" style="opacity: 1;"><line x1="0" x2="0" y1="0" y2="0" style="stroke: rgb(119, 119, 119); stroke-width: 1px;"></line><text dominant-baseline="alphabetic" text-anchor="middle" transform="translate(0,-5) rotate(0)" style="font-family: sans-serif; font-size: 11px; fill: rgb(51, 51, 51);">2021</text></g><line x1="0" x2="1080" y1="0" y2="0" style="stroke: transparent; stroke-width: 1px;"></line><text transform="translate(540, -36) rotate(0)" text-anchor="middle" style="dominant-baseline: central; font-size: 12px; font-family: sans-serif; fill: rgb(51, 51, 51);"></text></g><g transform="translate(0,500)"><g transform="translate(67.5,0)" style="opacity: 1;"><line x1="0" x2="0" y1="0" y2="0" style="stroke: rgb(119, 119, 119); stroke-width: 1px;"></line><text dominant-baseline="text-before-edge" text-anchor="middle" transform="translate(0,5) rotate(0)" style="font-family: sans-serif; font-size: 11px; fill: rgb(51, 51, 51);">2014</text></g><g transform="translate(202.5,0)" style="opacity: 1;"><line x1="0" x2="0" y1="0" y2="0" style="stroke: rgb(119, 119, 119); stroke-width: 1px;"></line><text dominant-baseline="text-before-edge" text-anchor="middle" transform="translate(0,5) rotate(0)" style="font-family: sans-serif; font-size: 11px; fill: rgb(51, 51, 51);">2015</text></g><g transform="translate(337.5,0)" style="opacity: 1;"><line x1="0" x2="0" y1="0" y2="0" style="stroke: rgb(119, 119, 119); stroke-width: 1px;"></line><text dominant-baseline="text-before-edge" text-anchor="middle" transform="translate(0,5) rotate(0)" style="font-family: sans-serif; font-size: 11px; fill: rgb(51, 51, 51);">2016</text></g><g transform="translate(472.5,0)" style="opacity: 1;"><line x1="0" x2="0" y1="0" y2="0" style="stroke: rgb(119, 119, 119); stroke-width: 1px;"></line><text dominant-baseline="text-before-edge" text-anchor="middle" transform="translate(0,5) rotate(0)" style="font-family: sans-serif; font-size: 11px; fill: rgb(51, 51, 51);">2017</text></g><g transform="translate(607.5,0)" style="opacity: 1;"><line x1="0" x2="0" y1="0" y2="0" style="stroke: rgb(119, 119, 119); stroke-width: 1px;"></line><text dominant-baseline="text-before-edge" text-anchor="middle" transform="translate(0,5) rotate(0)" style="font-family: sans-serif; font-size: 11px; fill: rgb(51, 51, 51);">2018</text></g><g transform="translate(742.5,0)" style="opacity: 1;"><line x1="0" x2="0" y1="0" y2="0" style="stroke: rgb(119, 119, 119); stroke-width: 1px;"></line><text dominant-baseline="text-before-edge" text-anchor="middle" transform="translate(0,5) rotate(0)" style="font-family: sans-serif; font-size: 11px; fill: rgb(51, 51, 51);">2019</text></g><g transform="translate(877.5,0)" style="opacity: 1;"><line x1="0" x2="0" y1="0" y2="0" style="stroke: rgb(119, 119, 119); stroke-width: 1px;"></line><text dominant-baseline="text-before-edge" text-anchor="middle" transform="translate(0,5) rotate(0)" style="font-family: sans-serif; font-size: 11px; fill: rgb(51, 51, 51);">2020</text></g><g transform="translate(1012.5,0)" style="opacity: 1;"><line x1="0" x2="0" y1="0" y2="0" style="stroke: rgb(119, 119, 119); stroke-width: 1px;"></line><text dominant-baseline="text-before-edge" text-anchor="middle" transform="translate(0,5) rotate(0)" style="font-family: sans-serif; font-size: 11px; fill: rgb(51, 51, 51);">2021</text></g><line x1="0" x2="1080" y1="0" y2="0" style="stroke: transparent; stroke-width: 1px;"></line><text transform="translate(540, 32) rotate(0)" text-anchor="middle" style="dominant-baseline: central; font-size: 12px; font-family: sans-serif; fill: rgb(51, 51, 51);"></text></g><g transform="translate(0,0)"><g transform="translate(0,25)" style="opacity: 1;"><line x1="0" x2="0" y1="0" y2="0" style="stroke: rgb(119, 119, 119); stroke-width: 1px;"></line><text dominant-baseline="central" text-anchor="end" transform="translate(-20,0) rotate(0)" style="font-family: sans-serif; font-size: 11px; fill: rgb(51, 51, 51);">1</text></g><g transform="translate(0,75)" style="opacity: 1;"><line x1="0" x2="0" y1="0" y2="0" style="stroke: rgb(119, 119, 119); stroke-width: 1px;"></line><text dominant-baseline="central" text-anchor="end" transform="translate(-20,0) rotate(0)" style="font-family: sans-serif; font-size: 11px; fill: rgb(51, 51, 51);">2</text></g><g transform="translate(0,125)" style="opacity: 1;"><line x1="0" x2="0" y1="0" y2="0" style="stroke: rgb(119, 119, 119); stroke-width: 1px;"></line><text dominant-baseline="central" text-anchor="end" transform="translate(-20,0) rotate(0)" style="font-family: sans-serif; font-size: 11px; fill: rgb(51, 51, 51);">3</text></g><g transform="translate(0,175)" style="opacity: 1;"><line x1="0" x2="0" y1="0" y2="0" style="stroke: rgb(119, 119, 119); stroke-width: 1px;"></line><text dominant-baseline="central" text-anchor="end" transform="translate(-20,0) rotate(0)" style="font-family: sans-serif; font-size: 11px; fill: rgb(51, 51, 51);">4</text></g><g transform="translate(0,225)" style="opacity: 1;"><line x1="0" x2="0" y1="0" y2="0" style="stroke: rgb(119, 119, 119); stroke-width: 1px;"></line><text dominant-baseline="central" text-anchor="end" transform="translate(-20,0) rotate(0)" style="font-family: sans-serif; font-size: 11px; fill: rgb(51, 51, 51);">5</text></g><g transform="translate(0,275)" style="opacity: 1;"><line x1="0" x2="0" y1="0" y2="0" style="stroke: rgb(119, 119, 119); stroke-width: 1px;"></line><text dominant-baseline="central" text-anchor="end" transform="translate(-20,0) rotate(0)" style="font-family: sans-serif; font-size: 11px; fill: rgb(51, 51, 51);">6</text></g><g transform="translate(0,325)" style="opacity: 1;"><line x1="0" x2="0" y1="0" y2="0" style="stroke: rgb(119, 119, 119); stroke-width: 1px;"></line><text dominant-baseline="central" text-anchor="end" transform="translate(-20,0) rotate(0)" style="font-family: sans-serif; font-size: 11px; fill: rgb(51, 51, 51);">7</text></g><g transform="translate(0,375)" style="opacity: 1;"><line x1="0" x2="0" y1="0" y2="0" style="stroke: rgb(119, 119, 119); stroke-width: 1px;"></line><text dominant-baseline="central" text-anchor="end" transform="translate(-20,0) rotate(0)" style="font-family: sans-serif; font-size: 11px; fill: rgb(51, 51, 51);">8</text></g><g transform="translate(0,425)" style="opacity: 1;"><line x1="0" x2="0" y1="0" y2="0" style="stroke: rgb(119, 119, 119); stroke-width: 1px;"></line><text dominant-baseline="central" text-anchor="end" transform="translate(-20,0) rotate(0)" style="font-family: sans-serif; font-size: 11px; fill: rgb(51, 51, 51);">9</text></g><g transform="translate(0,475)" style="opacity: 1;"><line x1="0" x2="0" y1="0" y2="0" style="stroke: rgb(119, 119, 119); stroke-width: 1px;"></line><text dominant-baseline="central" text-anchor="end" transform="translate(-20,0) rotate(0)" style="font-family: sans-serif; font-size: 11px; fill: rgb(51, 51, 51);">10</text></g><line x1="0" x2="0" y1="0" y2="500" style="stroke: transparent; stroke-width: 1px;"></line></g><text x="1096" y="425" text-anchor="start" dominant-baseline="central" opacity="1" style="font-family: sans-serif; font-size: 11px; fill: rgb(32, 158, 134);">C</text><text x="1096" y="225" text-anchor="start" dominant-baseline="central" opacity="1" style="font-family: sans-serif; font-size: 11px; fill: rgb(142, 221, 216);">C#</text><text x="1096" y="325" text-anchor="start" dominant-baseline="central" opacity="1" style="font-family: sans-serif; font-size: 11px; fill: rgb(55, 124, 231);">C++</text><text x="1096" y="125" text-anchor="start" dominant-baseline="central" opacity="1" style="font-family: sans-serif; font-size: 11px; fill: rgb(160, 140, 252);">Java</text><text x="1096" y="25" text-anchor="start" dominant-baseline="central" opacity="1" style="font-family: sans-serif; font-size: 11px; fill: rgb(249, 154, 251);">JavaScript</text><text x="1096" y="275" text-anchor="start" dominant-baseline="central" opacity="1" style="font-family: sans-serif; font-size: 11px; fill: rgb(87, 203, 228);">PHP</text><text x="1096" y="75" text-anchor="start" dominant-baseline="central" opacity="1" style="font-family: sans-serif; font-size: 11px; fill: rgb(187, 76, 170);">Python</text><text x="1096" y="475" text-anchor="start" dominant-baseline="central" opacity="1" style="font-family: sans-serif; font-size: 11px; fill: rgb(194, 215, 73);">Ruby</text><text x="1096" y="375" text-anchor="start" dominant-baseline="central" opacity="1" style="font-family: sans-serif; font-size: 11px; fill: rgb(75, 206, 143);">Shell</text><text x="1096" y="175" text-anchor="start" dominant-baseline="central" opacity="1" style="font-family: sans-serif; font-size: 11px; fill: rgb(7, 34, 84);">TypeScript</text><path fill="none" d="M0,325L11.25,325C22.5,325,45,325,63,325C81,325,94.5,325,110.25,333.3333333333333C126,341.6666666666667,144,358.3333333333333,159.75,366.6666666666667C175.5,375,189,375,202.5,375C216,375,229.5,375,245.25,375C261,375,279,375,294.75,375C310.5,375,324,375,337.5,375C351,375,364.5,375,380.25,366.6666666666667C396,358.3333333333333,414,341.6666666666667,429.75,333.3333333333333C445.5,325,459,325,472.5,325C486,325,499.5,325,515.25,333.3333333333333C531,341.6666666666667,549,358.3333333333333,564.75,366.6666666666667C580.5,375,594,375,607.5,375C621,375,634.5,375,650.25,375C666,375,684,375,699.75,375C715.5,375,729,375,742.5,375C756,375,769.5,375,785.25,375C801,375,819,375,834.75,375C850.5,375,864,375,877.5,375C891,375,904.5,375,920.25,383.3333333333333C936,391.6666666666667,954,408.3333333333333,969.75,416.6666666666667C985.5,425,999,425,1017,425C1035,425,1057.5,425,1068.75,425L1080,425" stroke="rgba(32, 158, 134, 1)" stroke-width="3" stroke-linecap="round" stroke-opacity="1" style="pointer-events: none;"></path><path fill="none" stroke="red" stroke-opacity="0" stroke-width="50" d="M0,325L11.25,325C22.5,325,45,325,63,325C81,325,94.5,325,110.25,333.3333333333333C126,341.6666666666667,144,358.3333333333333,159.75,366.6666666666667C175.5,375,189,375,202.5,375C216,375,229.5,375,245.25,375C261,375,279,375,294.75,375C310.5,375,324,375,337.5,375C351,375,364.5,375,380.25,366.6666666666667C396,358.3333333333333,414,341.6666666666667,429.75,333.3333333333333C445.5,325,459,325,472.5,325C486,325,499.5,325,515.25,333.3333333333333C531,341.6666666666667,549,358.3333333333333,564.75,366.6666666666667C580.5,375,594,375,607.5,375C621,375,634.5,375,650.25,375C666,375,684,375,699.75,375C715.5,375,729,375,742.5,375C756,375,769.5,375,785.25,375C801,375,819,375,834.75,375C850.5,375,864,375,877.5,375C891,375,904.5,375,920.25,383.3333333333333C936,391.6666666666667,954,408.3333333333333,969.75,416.6666666666667C985.5,425,999,425,1017,425C1035,425,1057.5,425,1068.75,425L1080,425" stroke-linecap="butt"></path><path fill="none" d="M0,375L11.25,375C22.5,375,45,375,63,375C81,375,94.5,375,110.25,366.6666666666667C126,358.3333333333333,144,341.6666666666667,159.75,333.3333333333333C175.5,325,189,325,202.5,325C216,325,229.5,325,245.25,316.6666666666667C261,308.3333333333333,279,291.6666666666667,294.75,283.3333333333333C310.5,275,324,275,337.5,275C351,275,364.5,275,380.25,275C396,275,414,275,429.75,275C445.5,275,459,275,472.5,275C486,275,499.5,275,515.25,275C531,275,549,275,564.75,275C580.5,275,594,275,607.5,275C621,275,634.5,275,650.25,283.3333333333333C666,291.6666666666667,684,308.3333333333333,699.75,316.6666666666667C715.5,325,729,325,742.5,325C756,325,769.5,325,785.25,308.3333333333333C801,291.6666666666667,819,258.3333333333333,834.75,241.66666666666666C850.5,225,864,225,877.5,225C891,225,904.5,225,920.25,225C936,225,954,225,969.75,225C985.5,225,999,225,1017,225C1035,225,1057.5,225,1068.75,225L1080,225" stroke="rgba(142, 221, 216, 1)" stroke-width="3" stroke-linecap="round" stroke-opacity="1" style="pointer-events: none;"></path><path fill="none" stroke="red" stroke-opacity="0" stroke-width="50" d="M0,375L11.25,375C22.5,375,45,375,63,375C81,375,94.5,375,110.25,366.6666666666667C126,358.3333333333333,144,341.6666666666667,159.75,333.3333333333333C175.5,325,189,325,202.5,325C216,325,229.5,325,245.25,316.6666666666667C261,308.3333333333333,279,291.6666666666667,294.75,283.3333333333333C310.5,275,324,275,337.5,275C351,275,364.5,275,380.25,275C396,275,414,275,429.75,275C445.5,275,459,275,472.5,275C486,275,499.5,275,515.25,275C531,275,549,275,564.75,275C580.5,275,594,275,607.5,275C621,275,634.5,275,650.25,283.3333333333333C666,291.6666666666667,684,308.3333333333333,699.75,316.6666666666667C715.5,325,729,325,742.5,325C756,325,769.5,325,785.25,308.3333333333333C801,291.6666666666667,819,258.3333333333333,834.75,241.66666666666666C850.5,225,864,225,877.5,225C891,225,904.5,225,920.25,225C936,225,954,225,969.75,225C985.5,225,999,225,1017,225C1035,225,1057.5,225,1068.75,225L1080,225" stroke-linecap="butt"></path><path fill="none" d="M0,275L11.25,275C22.5,275,45,275,63,275C81,275,94.5,275,110.25,275C126,275,144,275,159.75,275C175.5,275,189,275,202.5,275C216,275,229.5,275,245.25,266.6666666666667C261,258.3333333333333,279,241.66666666666666,294.75,233.33333333333334C310.5,225,324,225,337.5,225C351,225,364.5,225,380.25,225C396,225,414,225,429.75,225C445.5,225,459,225,472.5,225C486,225,499.5,225,515.25,225C531,225,549,225,564.75,225C580.5,225,594,225,607.5,225C621,225,634.5,225,650.25,233.33333333333334C666,241.66666666666666,684,258.3333333333333,699.75,266.6666666666667C715.5,275,729,275,742.5,275C756,275,769.5,275,785.25,283.3333333333333C801,291.6666666666667,819,308.3333333333333,834.75,316.6666666666667C850.5,325,864,325,877.5,325C891,325,904.5,325,920.25,325C936,325,954,325,969.75,325C985.5,325,999,325,1017,325C1035,325,1057.5,325,1068.75,325L1080,325" stroke="rgba(55, 124, 231, 1)" stroke-width="3" stroke-linecap="round" stroke-opacity="1" style="pointer-events: none;"></path><path fill="none" stroke="red" stroke-opacity="0" stroke-width="50" d="M0,275L11.25,275C22.5,275,45,275,63,275C81,275,94.5,275,110.25,275C126,275,144,275,159.75,275C175.5,275,189,275,202.5,275C216,275,229.5,275,245.25,266.6666666666667C261,258.3333333333333,279,241.66666666666666,294.75,233.33333333333334C310.5,225,324,225,337.5,225C351,225,364.5,225,380.25,225C396,225,414,225,429.75,225C445.5,225,459,225,472.5,225C486,225,499.5,225,515.25,225C531,225,549,225,564.75,225C580.5,225,594,225,607.5,225C621,225,634.5,225,650.25,233.33333333333334C666,241.66666666666666,684,258.3333333333333,699.75,266.6666666666667C715.5,275,729,275,742.5,275C756,275,769.5,275,785.25,283.3333333333333C801,291.6666666666667,819,308.3333333333333,834.75,316.6666666666667C850.5,325,864,325,877.5,325C891,325,904.5,325,920.25,325C936,325,954,325,969.75,325C985.5,325,999,325,1017,325C1035,325,1057.5,325,1068.75,325L1080,325" stroke-linecap="butt"></path><path fill="none" d="M0,75L11.25,75C22.5,75,45,75,63,75C81,75,94.5,75,110.25,75C126,75,144,75,159.75,75C175.5,75,189,75,202.5,75C216,75,229.5,75,245.25,75C261,75,279,75,294.75,75C310.5,75,324,75,337.5,75C351,75,364.5,75,380.25,75C396,75,414,75,429.75,75C445.5,75,459,75,472.5,75C486,75,499.5,75,515.25,75C531,75,549,75,564.75,75C580.5,75,594,75,607.5,75C621,75,634.5,75,650.25,83.33333333333333C666,91.66666666666667,684,108.33333333333333,699.75,116.66666666666667C715.5,125,729,125,742.5,125C756,125,769.5,125,785.25,125C801,125,819,125,834.75,125C850.5,125,864,125,877.5,125C891,125,904.5,125,920.25,125C936,125,954,125,969.75,125C985.5,125,999,125,1017,125C1035,125,1057.5,125,1068.75,125L1080,125" stroke="rgba(160, 140, 252, 1)" stroke-width="3" stroke-linecap="round" stroke-opacity="1" style="pointer-events: none;"></path><path fill="none" stroke="red" stroke-opacity="0" stroke-width="50" d="M0,75L11.25,75C22.5,75,45,75,63,75C81,75,94.5,75,110.25,75C126,75,144,75,159.75,75C175.5,75,189,75,202.5,75C216,75,229.5,75,245.25,75C261,75,279,75,294.75,75C310.5,75,324,75,337.5,75C351,75,364.5,75,380.25,75C396,75,414,75,429.75,75C445.5,75,459,75,472.5,75C486,75,499.5,75,515.25,75C531,75,549,75,564.75,75C580.5,75,594,75,607.5,75C621,75,634.5,75,650.25,83.33333333333333C666,91.66666666666667,684,108.33333333333333,699.75,116.66666666666667C715.5,125,729,125,742.5,125C756,125,769.5,125,785.25,125C801,125,819,125,834.75,125C850.5,125,864,125,877.5,125C891,125,904.5,125,920.25,125C936,125,954,125,969.75,125C985.5,125,999,125,1017,125C1035,125,1057.5,125,1068.75,125L1080,125" stroke-linecap="butt"></path><path fill="none" d="M0,25L11.25,25C22.5,25,45,25,63,25C81,25,94.5,25,110.25,25C126,25,144,25,159.75,25C175.5,25,189,25,202.5,25C216,25,229.5,25,245.25,25C261,25,279,25,294.75,25C310.5,25,324,25,337.5,25C351,25,364.5,25,380.25,25C396,25,414,25,429.75,25C445.5,25,459,25,472.5,25C486,25,499.5,25,515.25,25C531,25,549,25,564.75,25C580.5,25,594,25,607.5,25C621,25,634.5,25,650.25,25C666,25,684,25,699.75,25C715.5,25,729,25,742.5,25C756,25,769.5,25,785.25,25C801,25,819,25,834.75,25C850.5,25,864,25,877.5,25C891,25,904.5,25,920.25,25C936,25,954,25,969.75,25C985.5,25,999,25,1017,25C1035,25,1057.5,25,1068.75,25L1080,25" stroke="rgba(249, 154, 251, 1)" stroke-width="3" stroke-linecap="round" stroke-opacity="1" style="pointer-events: none;"></path><path fill="none" stroke="red" stroke-opacity="0" stroke-width="50" d="M0,25L11.25,25C22.5,25,45,25,63,25C81,25,94.5,25,110.25,25C126,25,144,25,159.75,25C175.5,25,189,25,202.5,25C216,25,229.5,25,245.25,25C261,25,279,25,294.75,25C310.5,25,324,25,337.5,25C351,25,364.5,25,380.25,25C396,25,414,25,429.75,25C445.5,25,459,25,472.5,25C486,25,499.5,25,515.25,25C531,25,549,25,564.75,25C580.5,25,594,25,607.5,25C621,25,634.5,25,650.25,25C666,25,684,25,699.75,25C715.5,25,729,25,742.5,25C756,25,769.5,25,785.25,25C801,25,819,25,834.75,25C850.5,25,864,25,877.5,25C891,25,904.5,25,920.25,25C936,25,954,25,969.75,25C985.5,25,999,25,1017,25C1035,25,1057.5,25,1068.75,25L1080,25" stroke-linecap="butt"></path><path fill="none" d="M0,475L11.25,475C22.5,475,45,475,63,475C81,475,94.5,475,110.25,475C126,475,144,475,159.75,475C175.5,475,189,475,202.5,475C216,475,229.5,475,245.25,475C261,475,279,475,294.75,475C310.5,475,324,475,337.5,475C351,475,364.5,475,371.25,475L378,475" stroke="rgba(252, 205, 86, 1)" stroke-width="3" stroke-linecap="round" stroke-opacity="1" style="pointer-events: none;"></path><path fill="none" stroke="red" stroke-opacity="0" stroke-width="50" d="M0,475L11.25,475C22.5,475,45,475,63,475C81,475,94.5,475,110.25,475C126,475,144,475,159.75,475C175.5,475,189,475,202.5,475C216,475,229.5,475,245.25,475C261,475,279,475,294.75,475C310.5,475,324,475,337.5,475C351,475,364.5,475,371.25,475L378,475" stroke-linecap="butt"></path><path fill="none" d="M0,125L11.25,125C22.5,125,45,125,63,125C81,125,94.5,125,110.25,133.33333333333334C126,141.66666666666666,144,158.33333333333334,159.75,166.66666666666666C175.5,175,189,175,202.5,175C216,175,229.5,175,245.25,175C261,175,279,175,294.75,175C310.5,175,324,175,337.5,175C351,175,364.5,175,380.25,175C396,175,414,175,429.75,175C445.5,175,459,175,472.5,175C486,175,499.5,175,515.25,175C531,175,549,175,564.75,175C580.5,175,594,175,607.5,175C621,175,634.5,175,650.25,175C666,175,684,175,699.75,175C715.5,175,729,175,742.5,175C756,175,769.5,175,785.25,191.66666666666666C801,208.33333333333334,819,241.66666666666666,834.75,258.3333333333333C850.5,275,864,275,877.5,275C891,275,904.5,275,920.25,275C936,275,954,275,969.75,275C985.5,275,999,275,1017,275C1035,275,1057.5,275,1068.75,275L1080,275" stroke="rgba(87, 203, 228, 1)" stroke-width="3" stroke-linecap="round" stroke-opacity="1" style="pointer-events: none;"></path><path fill="none" stroke="red" stroke-opacity="0" stroke-width="50" d="M0,125L11.25,125C22.5,125,45,125,63,125C81,125,94.5,125,110.25,133.33333333333334C126,141.66666666666666,144,158.33333333333334,159.75,166.66666666666666C175.5,175,189,175,202.5,175C216,175,229.5,175,245.25,175C261,175,279,175,294.75,175C310.5,175,324,175,337.5,175C351,175,364.5,175,380.25,175C396,175,414,175,429.75,175C445.5,175,459,175,472.5,175C486,175,499.5,175,515.25,175C531,175,549,175,564.75,175C580.5,175,594,175,607.5,175C621,175,634.5,175,650.25,175C666,175,684,175,699.75,175C715.5,175,729,175,742.5,175C756,175,769.5,175,785.25,191.66666666666666C801,208.33333333333334,819,241.66666666666666,834.75,258.3333333333333C850.5,275,864,275,877.5,275C891,275,904.5,275,920.25,275C936,275,954,275,969.75,275C985.5,275,999,275,1017,275C1035,275,1057.5,275,1068.75,275L1080,275" stroke-linecap="butt"></path><path fill="none" d="M0,175L11.25,175C22.5,175,45,175,63,175C81,175,94.5,175,110.25,166.66666666666666C126,158.33333333333334,144,141.66666666666666,159.75,133.33333333333334C175.5,125,189,125,202.5,125C216,125,229.5,125,245.25,125C261,125,279,125,294.75,125C310.5,125,324,125,337.5,125C351,125,364.5,125,380.25,125C396,125,414,125,429.75,125C445.5,125,459,125,472.5,125C486,125,499.5,125,515.25,125C531,125,549,125,564.75,125C580.5,125,594,125,607.5,125C621,125,634.5,125,650.25,116.66666666666667C666,108.33333333333333,684,91.66666666666667,699.75,83.33333333333333C715.5,75,729,75,742.5,75C756,75,769.5,75,785.25,75C801,75,819,75,834.75,75C850.5,75,864,75,877.5,75C891,75,904.5,75,920.25,75C936,75,954,75,969.75,75C985.5,75,999,75,1017,75C1035,75,1057.5,75,1068.75,75L1080,75" stroke="rgba(187, 76, 170, 1)" stroke-width="3" stroke-linecap="round" stroke-opacity="1" style="pointer-events: none;"></path><path fill="none" stroke="red" stroke-opacity="0" stroke-width="50" d="M0,175L11.25,175C22.5,175,45,175,63,175C81,175,94.5,175,110.25,166.66666666666666C126,158.33333333333334,144,141.66666666666666,159.75,133.33333333333334C175.5,125,189,125,202.5,125C216,125,229.5,125,245.25,125C261,125,279,125,294.75,125C310.5,125,324,125,337.5,125C351,125,364.5,125,380.25,125C396,125,414,125,429.75,125C445.5,125,459,125,472.5,125C486,125,499.5,125,515.25,125C531,125,549,125,564.75,125C580.5,125,594,125,607.5,125C621,125,634.5,125,650.25,116.66666666666667C666,108.33333333333333,684,91.66666666666667,699.75,83.33333333333333C715.5,75,729,75,742.5,75C756,75,769.5,75,785.25,75C801,75,819,75,834.75,75C850.5,75,864,75,877.5,75C891,75,904.5,75,920.25,75C936,75,954,75,969.75,75C985.5,75,999,75,1017,75C1035,75,1057.5,75,1068.75,75L1080,75" stroke-linecap="butt"></path><path fill="none" d="M0,225L11.25,225C22.5,225,45,225,63,225C81,225,94.5,225,110.25,225C126,225,144,225,159.75,225C175.5,225,189,225,202.5,225C216,225,229.5,225,245.25,241.66666666666666C261,258.3333333333333,279,291.6666666666667,294.75,308.3333333333333C310.5,325,324,325,337.5,325C351,325,364.5,325,380.25,341.6666666666667C396,358.3333333333333,414,391.6666666666667,429.75,408.3333333333333C445.5,425,459,425,472.5,425C486,425,499.5,425,515.25,433.3333333333333C531,441.6666666666667,549,458.3333333333333,564.75,466.6666666666667C580.5,475,594,475,607.5,475C621,475,634.5,475,650.25,475C666,475,684,475,699.75,475C715.5,475,729,475,742.5,475C756,475,769.5,475,785.25,475C801,475,819,475,834.75,475C850.5,475,864,475,877.5,475C891,475,904.5,475,920.25,475C936,475,954,475,969.75,475C985.5,475,999,475,1017,475C1035,475,1057.5,475,1068.75,475L1080,475" stroke="rgba(194, 215, 73, 1)" stroke-width="3" stroke-linecap="round" stroke-opacity="1" style="pointer-events: none;"></path><path fill="none" stroke="red" stroke-opacity="0" stroke-width="50" d="M0,225L11.25,225C22.5,225,45,225,63,225C81,225,94.5,225,110.25,225C126,225,144,225,159.75,225C175.5,225,189,225,202.5,225C216,225,229.5,225,245.25,241.66666666666666C261,258.3333333333333,279,291.6666666666667,294.75,308.3333333333333C310.5,325,324,325,337.5,325C351,325,364.5,325,380.25,341.6666666666667C396,358.3333333333333,414,391.6666666666667,429.75,408.3333333333333C445.5,425,459,425,472.5,425C486,425,499.5,425,515.25,433.3333333333333C531,441.6666666666667,549,458.3333333333333,564.75,466.6666666666667C580.5,475,594,475,607.5,475C621,475,634.5,475,650.25,475C666,475,684,475,699.75,475C715.5,475,729,475,742.5,475C756,475,769.5,475,785.25,475C801,475,819,475,834.75,475C850.5,475,864,475,877.5,475C891,475,904.5,475,920.25,475C936,475,954,475,969.75,475C985.5,475,999,475,1017,475C1035,475,1057.5,475,1068.75,475L1080,475" stroke-linecap="butt"></path><path fill="none" d="M0,425L11.25,425C22.5,425,45,425,63,425C81,425,94.5,425,110.25,425C126,425,144,425,159.75,425C175.5,425,189,425,202.5,425C216,425,229.5,425,245.25,425C261,425,279,425,294.75,425C310.5,425,324,425,337.5,425C351,425,364.5,425,380.25,416.6666666666667C396,408.3333333333333,414,391.6666666666667,429.75,383.3333333333333C445.5,375,459,375,472.5,375C486,375,499.5,375,515.25,383.3333333333333C531,391.6666666666667,549,408.3333333333333,564.75,416.6666666666667C580.5,425,594,425,607.5,425C621,425,634.5,425,650.25,425C666,425,684,425,699.75,425C715.5,425,729,425,742.5,425C756,425,769.5,425,785.25,425C801,425,819,425,834.75,425C850.5,425,864,425,877.5,425C891,425,904.5,425,920.25,416.6666666666667C936,408.3333333333333,954,391.6666666666667,969.75,383.3333333333333C985.5,375,999,375,1017,375C1035,375,1057.5,375,1068.75,375L1080,375" stroke="rgba(75, 206, 143, 1)" stroke-width="3" stroke-linecap="round" stroke-opacity="1" style="pointer-events: none;"></path><path fill="none" stroke="red" stroke-opacity="0" stroke-width="50" d="M0,425L11.25,425C22.5,425,45,425,63,425C81,425,94.5,425,110.25,425C126,425,144,425,159.75,425C175.5,425,189,425,202.5,425C216,425,229.5,425,245.25,425C261,425,279,425,294.75,425C310.5,425,324,425,337.5,425C351,425,364.5,425,380.25,416.6666666666667C396,408.3333333333333,414,391.6666666666667,429.75,383.3333333333333C445.5,375,459,375,472.5,375C486,375,499.5,375,515.25,383.3333333333333C531,391.6666666666667,549,408.3333333333333,564.75,416.6666666666667C580.5,425,594,425,607.5,425C621,425,634.5,425,650.25,425C666,425,684,425,699.75,425C715.5,425,729,425,742.5,425C756,425,769.5,425,785.25,425C801,425,819,425,834.75,425C850.5,425,864,425,877.5,425C891,425,904.5,425,920.25,416.6666666666667C936,408.3333333333333,954,391.6666666666667,969.75,383.3333333333333C985.5,375,999,375,1017,375C1035,375,1057.5,375,1068.75,375L1080,375" stroke-linecap="butt"></path><path fill="none" d="M432,475L438.75,475C445.5,475,459,475,472.5,475C486,475,499.5,475,515.25,450C531,425,549,375,564.75,350C580.5,325,594,325,607.5,325C621,325,634.5,325,650.25,308.3333333333333C666,291.6666666666667,684,258.3333333333333,699.75,241.66666666666666C715.5,225,729,225,742.5,225C756,225,769.5,225,785.25,216.66666666666666C801,208.33333333333334,819,191.66666666666666,834.75,183.33333333333334C850.5,175,864,175,877.5,175C891,175,904.5,175,920.25,175C936,175,954,175,969.75,175C985.5,175,999,175,1017,175C1035,175,1057.5,175,1068.75,175L1080,175" stroke="rgba(7, 34, 84, 1)" stroke-width="3" stroke-linecap="round" stroke-opacity="1" style="pointer-events: none;"></path><path fill="none" stroke="red" stroke-opacity="0" stroke-width="50" d="M432,475L438.75,475C445.5,475,459,475,472.5,475C486,475,499.5,475,515.25,450C531,425,549,375,564.75,350C580.5,325,594,325,607.5,325C621,325,634.5,325,650.25,308.3333333333333C666,291.6666666666667,684,258.3333333333333,699.75,241.66666666666666C715.5,225,729,225,742.5,225C756,225,769.5,225,785.25,216.66666666666666C801,208.33333333333334,819,191.66666666666666,834.75,183.33333333333334C850.5,175,864,175,877.5,175C891,175,904.5,175,920.25,175C936,175,954,175,969.75,175C985.5,175,999,175,1017,175C1035,175,1057.5,175,1068.75,175L1080,175" stroke-linecap="butt"></path><circle cx="67.5" cy="325" r="0" fill="rgba(255, 255, 255, 1)" stroke-width="3" stroke="#209E86" style="pointer-events: none;"></circle><circle cx="202.5" cy="375" r="0" fill="rgba(255, 255, 255, 1)" stroke-width="3" stroke="#209E86" style="pointer-events: none;"></circle><circle cx="337.5" cy="375" r="0" fill="rgba(255, 255, 255, 1)" stroke-width="3" stroke="#209E86" style="pointer-events: none;"></circle><circle cx="472.5" cy="325" r="0" fill="rgba(255, 255, 255, 1)" stroke-width="3" stroke="#209E86" style="pointer-events: none;"></circle><circle cx="607.5" cy="375" r="0" fill="rgba(255, 255, 255, 1)" stroke-width="3" stroke="#209E86" style="pointer-events: none;"></circle><circle cx="742.5" cy="375" r="0" fill="rgba(255, 255, 255, 1)" stroke-width="3" stroke="#209E86" style="pointer-events: none;"></circle><circle cx="877.5" cy="375" r="0" fill="rgba(255, 255, 255, 1)" stroke-width="3" stroke="#209E86" style="pointer-events: none;"></circle><circle cx="1012.5" cy="425" r="0" fill="rgba(255, 255, 255, 1)" stroke-width="3" stroke="#209E86" style="pointer-events: none;"></circle><circle cx="67.5" cy="375" r="0" fill="rgba(255, 255, 255, 1)" stroke-width="3" stroke="#8EDDD8" style="pointer-events: none;"></circle><circle cx="202.5" cy="325" r="0" fill="rgba(255, 255, 255, 1)" stroke-width="3" stroke="#8EDDD8" style="pointer-events: none;"></circle><circle cx="337.5" cy="275" r="0" fill="rgba(255, 255, 255, 1)" stroke-width="3" stroke="#8EDDD8" style="pointer-events: none;"></circle><circle cx="472.5" cy="275" r="0" fill="rgba(255, 255, 255, 1)" stroke-width="3" stroke="#8EDDD8" style="pointer-events: none;"></circle><circle cx="607.5" cy="275" r="0" fill="rgba(255, 255, 255, 1)" stroke-width="3" stroke="#8EDDD8" style="pointer-events: none;"></circle><circle cx="742.5" cy="325" r="0" fill="rgba(255, 255, 255, 1)" stroke-width="3" stroke="#8EDDD8" style="pointer-events: none;"></circle><circle cx="877.5" cy="225" r="0" fill="rgba(255, 255, 255, 1)" stroke-width="3" stroke="#8EDDD8" style="pointer-events: none;"></circle><circle cx="1012.5" cy="225" r="0" fill="rgba(255, 255, 255, 1)" stroke-width="3" stroke="#8EDDD8" style="pointer-events: none;"></circle><circle cx="67.5" cy="275" r="0" fill="rgba(255, 255, 255, 1)" stroke-width="3" stroke="#377CE7" style="pointer-events: none;"></circle><circle cx="202.5" cy="275" r="0" fill="rgba(255, 255, 255, 1)" stroke-width="3" stroke="#377CE7" style="pointer-events: none;"></circle><circle cx="337.5" cy="225" r="0" fill="rgba(255, 255, 255, 1)" stroke-width="3" stroke="#377CE7" style="pointer-events: none;"></circle><circle cx="472.5" cy="225" r="0" fill="rgba(255, 255, 255, 1)" stroke-width="3" stroke="#377CE7" style="pointer-events: none;"></circle><circle cx="607.5" cy="225" r="0" fill="rgba(255, 255, 255, 1)" stroke-width="3" stroke="#377CE7" style="pointer-events: none;"></circle><circle cx="742.5" cy="275" r="0" fill="rgba(255, 255, 255, 1)" stroke-width="3" stroke="#377CE7" style="pointer-events: none;"></circle><circle cx="877.5" cy="325" r="0" fill="rgba(255, 255, 255, 1)" stroke-width="3" stroke="#377CE7" style="pointer-events: none;"></circle><circle cx="1012.5" cy="325" r="0" fill="rgba(255, 255, 255, 1)" stroke-width="3" stroke="#377CE7" style="pointer-events: none;"></circle><circle cx="67.5" cy="75" r="0" fill="rgba(255, 255, 255, 1)" stroke-width="3" stroke="#A08CFC" style="pointer-events: none;"></circle><circle cx="202.5" cy="75" r="0" fill="rgba(255, 255, 255, 1)" stroke-width="3" stroke="#A08CFC" style="pointer-events: none;"></circle><circle cx="337.5" cy="75" r="0" fill="rgba(255, 255, 255, 1)" stroke-width="3" stroke="#A08CFC" style="pointer-events: none;"></circle><circle cx="472.5" cy="75" r="0" fill="rgba(255, 255, 255, 1)" stroke-width="3" stroke="#A08CFC" style="pointer-events: none;"></circle><circle cx="607.5" cy="75" r="0" fill="rgba(255, 255, 255, 1)" stroke-width="3" stroke="#A08CFC" style="pointer-events: none;"></circle><circle cx="742.5" cy="125" r="0" fill="rgba(255, 255, 255, 1)" stroke-width="3" stroke="#A08CFC" style="pointer-events: none;"></circle><circle cx="877.5" cy="125" r="0" fill="rgba(255, 255, 255, 1)" stroke-width="3" stroke="#A08CFC" style="pointer-events: none;"></circle><circle cx="1012.5" cy="125" r="0" fill="rgba(255, 255, 255, 1)" stroke-width="3" stroke="#A08CFC" style="pointer-events: none;"></circle><circle cx="67.5" cy="25" r="0" fill="rgba(255, 255, 255, 1)" stroke-width="3" stroke="#F99AFB" style="pointer-events: none;"></circle><circle cx="202.5" cy="25" r="0" fill="rgba(255, 255, 255, 1)" stroke-width="3" stroke="#F99AFB" style="pointer-events: none;"></circle><circle cx="337.5" cy="25" r="0" fill="rgba(255, 255, 255, 1)" stroke-width="3" stroke="#F99AFB" style="pointer-events: none;"></circle><circle cx="472.5" cy="25" r="0" fill="rgba(255, 255, 255, 1)" stroke-width="3" stroke="#F99AFB" style="pointer-events: none;"></circle><circle cx="607.5" cy="25" r="0" fill="rgba(255, 255, 255, 1)" stroke-width="3" stroke="#F99AFB" style="pointer-events: none;"></circle><circle cx="742.5" cy="25" r="0" fill="rgba(255, 255, 255, 1)" stroke-width="3" stroke="#F99AFB" style="pointer-events: none;"></circle><circle cx="877.5" cy="25" r="0" fill="rgba(255, 255, 255, 1)" stroke-width="3" stroke="#F99AFB" style="pointer-events: none;"></circle><circle cx="1012.5" cy="25" r="0" fill="rgba(255, 255, 255, 1)" stroke-width="3" stroke="#F99AFB" style="pointer-events: none;"></circle><circle cx="67.5" cy="475" r="0" fill="rgba(255, 255, 255, 1)" stroke-width="3" stroke="#FCCD56" style="pointer-events: none;"></circle><circle cx="202.5" cy="475" r="0" fill="rgba(255, 255, 255, 1)" stroke-width="3" stroke="#FCCD56" style="pointer-events: none;"></circle><circle cx="337.5" cy="475" r="0" fill="rgba(255, 255, 255, 1)" stroke-width="3" stroke="#FCCD56" style="pointer-events: none;"></circle><circle cx="67.5" cy="125" r="0" fill="rgba(255, 255, 255, 1)" stroke-width="3" stroke="#57CBE4" style="pointer-events: none;"></circle><circle cx="202.5" cy="175" r="0" fill="rgba(255, 255, 255, 1)" stroke-width="3" stroke="#57CBE4" style="pointer-events: none;"></circle><circle cx="337.5" cy="175" r="0" fill="rgba(255, 255, 255, 1)" stroke-width="3" stroke="#57CBE4" style="pointer-events: none;"></circle><circle cx="472.5" cy="175" r="0" fill="rgba(255, 255, 255, 1)" stroke-width="3" stroke="#57CBE4" style="pointer-events: none;"></circle><circle cx="607.5" cy="175" r="0" fill="rgba(255, 255, 255, 1)" stroke-width="3" stroke="#57CBE4" style="pointer-events: none;"></circle><circle cx="742.5" cy="175" r="0" fill="rgba(255, 255, 255, 1)" stroke-width="3" stroke="#57CBE4" style="pointer-events: none;"></circle><circle cx="877.5" cy="275" r="0" fill="rgba(255, 255, 255, 1)" stroke-width="3" stroke="#57CBE4" style="pointer-events: none;"></circle><circle cx="1012.5" cy="275" r="0" fill="rgba(255, 255, 255, 1)" stroke-width="3" stroke="#57CBE4" style="pointer-events: none;"></circle><circle cx="67.5" cy="175" r="0" fill="rgba(255, 255, 255, 1)" stroke-width="3" stroke="#BB4CAA" style="pointer-events: none;"></circle><circle cx="202.5" cy="125" r="0" fill="rgba(255, 255, 255, 1)" stroke-width="3" stroke="#BB4CAA" style="pointer-events: none;"></circle><circle cx="337.5" cy="125" r="0" fill="rgba(255, 255, 255, 1)" stroke-width="3" stroke="#BB4CAA" style="pointer-events: none;"></circle><circle cx="472.5" cy="125" r="0" fill="rgba(255, 255, 255, 1)" stroke-width="3" stroke="#BB4CAA" style="pointer-events: none;"></circle><circle cx="607.5" cy="125" r="0" fill="rgba(255, 255, 255, 1)" stroke-width="3" stroke="#BB4CAA" style="pointer-events: none;"></circle><circle cx="742.5" cy="75" r="0" fill="rgba(255, 255, 255, 1)" stroke-width="3" stroke="#BB4CAA" style="pointer-events: none;"></circle><circle cx="877.5" cy="75" r="0" fill="rgba(255, 255, 255, 1)" stroke-width="3" stroke="#BB4CAA" style="pointer-events: none;"></circle><circle cx="1012.5" cy="75" r="0" fill="rgba(255, 255, 255, 1)" stroke-width="3" stroke="#BB4CAA" style="pointer-events: none;"></circle><circle cx="67.5" cy="225" r="0" fill="rgba(255, 255, 255, 1)" stroke-width="3" stroke="#C2D749" style="pointer-events: none;"></circle><circle cx="202.5" cy="225" r="0" fill="rgba(255, 255, 255, 1)" stroke-width="3" stroke="#C2D749" style="pointer-events: none;"></circle><circle cx="337.5" cy="325" r="0" fill="rgba(255, 255, 255, 1)" stroke-width="3" stroke="#C2D749" style="pointer-events: none;"></circle><circle cx="472.5" cy="425" r="0" fill="rgba(255, 255, 255, 1)" stroke-width="3" stroke="#C2D749" style="pointer-events: none;"></circle><circle cx="607.5" cy="475" r="0" fill="rgba(255, 255, 255, 1)" stroke-width="3" stroke="#C2D749" style="pointer-events: none;"></circle><circle cx="742.5" cy="475" r="0" fill="rgba(255, 255, 255, 1)" stroke-width="3" stroke="#C2D749" style="pointer-events: none;"></circle><circle cx="877.5" cy="475" r="0" fill="rgba(255, 255, 255, 1)" stroke-width="3" stroke="#C2D749" style="pointer-events: none;"></circle><circle cx="1012.5" cy="475" r="0" fill="rgba(255, 255, 255, 1)" stroke-width="3" stroke="#C2D749" style="pointer-events: none;"></circle><circle cx="67.5" cy="425" r="0" fill="rgba(255, 255, 255, 1)" stroke-width="3" stroke="#4BCE8F" style="pointer-events: none;"></circle><circle cx="202.5" cy="425" r="0" fill="rgba(255, 255, 255, 1)" stroke-width="3" stroke="#4BCE8F" style="pointer-events: none;"></circle><circle cx="337.5" cy="425" r="0" fill="rgba(255, 255, 255, 1)" stroke-width="3" stroke="#4BCE8F" style="pointer-events: none;"></circle><circle cx="472.5" cy="375" r="0" fill="rgba(255, 255, 255, 1)" stroke-width="3" stroke="#4BCE8F" style="pointer-events: none;"></circle><circle cx="607.5" cy="425" r="0" fill="rgba(255, 255, 255, 1)" stroke-width="3" stroke="#4BCE8F" style="pointer-events: none;"></circle><circle cx="742.5" cy="425" r="0" fill="rgba(255, 255, 255, 1)" stroke-width="3" stroke="#4BCE8F" style="pointer-events: none;"></circle><circle cx="877.5" cy="425" r="0" fill="rgba(255, 255, 255, 1)" stroke-width="3" stroke="#4BCE8F" style="pointer-events: none;"></circle><circle cx="1012.5" cy="375" r="0" fill="rgba(255, 255, 255, 1)" stroke-width="3" stroke="#4BCE8F" style="pointer-events: none;"></circle><circle cx="472.5" cy="475" r="0" fill="rgba(255, 255, 255, 1)" stroke-width="3" stroke="#072254" style="pointer-events: none;"></circle><circle cx="607.5" cy="325" r="0" fill="rgba(255, 255, 255, 1)" stroke-width="3" stroke="#072254" style="pointer-events: none;"></circle><circle cx="742.5" cy="225" r="0" fill="rgba(255, 255, 255, 1)" stroke-width="3" stroke="#072254" style="pointer-events: none;"></circle><circle cx="877.5" cy="175" r="0" fill="rgba(255, 255, 255, 1)" stroke-width="3" stroke="#072254" style="pointer-events: none;"></circle><circle cx="1012.5" cy="175" r="0" fill="rgba(255, 255, 255, 1)" stroke-width="3" stroke="#072254" style="pointer-events: none;"></circle></g></svg>