<?xml version="1.0" encoding="UTF-8" standalone="no"?>
<!DOCTYPE svg PUBLIC "-//W3C//DTD SVG 1.1//EN"
 "http://www.w3.org/Graphics/SVG/1.1/DTD/svg11.dtd">
<!-- Generated by graphviz version 2.43.0 (0)
 -->
<!-- Title: Tree Pages: 1 -->
<svg width="461pt" height="314pt"
 viewBox="0.00 0.00 461.00 314.00" xmlns="http://www.w3.org/2000/svg" xmlns:xlink="http://www.w3.org/1999/xlink">
<g id="graph0" class="graph" transform="scale(1 1) rotate(0) translate(4 310)">
<title>Tree</title>
<polygon fill="white" stroke="transparent" points="-4,4 -4,-310 457,-310 457,4 -4,4"/>
<!-- 0 -->
<g id="node1" class="node">
<title>0</title>
<path fill="#a3f3c4" stroke="black" d="M281,-306C281,-306 102,-306 102,-306 96,-306 90,-300 90,-294 90,-294 90,-235 90,-235 90,-229 96,-223 102,-223 102,-223 281,-223 281,-223 287,-223 293,-229 293,-235 293,-235 293,-294 293,-294 293,-300 287,-306 281,-306"/>
<text text-anchor="middle" x="191.5" y="-290.8" font-family="Helvetica,sans-Serif" font-size="14.00">v2 &lt;= 0.5</text>
<text text-anchor="middle" x="191.5" y="-275.8" font-family="Helvetica,sans-Serif" font-size="14.00">gini = 0.55</text>
<text text-anchor="middle" x="191.5" y="-260.8" font-family="Helvetica,sans-Serif" font-size="14.00">samples = 4169</text>
<text text-anchor="middle" x="191.5" y="-245.8" font-family="Helvetica,sans-Serif" font-size="14.00">value = [1077, 2515, 577]</text>
<text text-anchor="middle" x="191.5" y="-230.8" font-family="Helvetica,sans-Serif" font-size="14.00">class = 2</text>
</g>
<!-- 1 -->
<g id="node2" class="node">
<title>1</title>
<path fill="#eca470" stroke="black" d="M173,-179.5C173,-179.5 12,-179.5 12,-179.5 6,-179.5 0,-173.5 0,-167.5 0,-167.5 0,-123.5 0,-123.5 0,-117.5 6,-111.5 12,-111.5 12,-111.5 173,-111.5 173,-111.5 179,-111.5 185,-117.5 185,-123.5 185,-123.5 185,-167.5 185,-167.5 185,-173.5 179,-179.5 173,-179.5"/>
<text text-anchor="middle" x="92.5" y="-164.3" font-family="Helvetica,sans-Serif" font-size="14.00">gini = 0.366</text>
<text text-anchor="middle" x="92.5" y="-149.3" font-family="Helvetica,sans-Serif" font-size="14.00">samples = 1385</text>
<text text-anchor="middle" x="92.5" y="-134.3" font-family="Helvetica,sans-Serif" font-size="14.00">value = [1071, 258, 56]</text>
<text text-anchor="middle" x="92.5" y="-119.3" font-family="Helvetica,sans-Serif" font-size="14.00">class = 1</text>
</g>
<!-- 0&#45;&gt;1 -->
<g id="edge1" class="edge">
<title>0&#45;&gt;1</title>
<path fill="none" stroke="black" d="M157.15,-222.91C147.44,-211.43 136.87,-198.94 127.14,-187.44"/>
<polygon fill="black" stroke="black" points="129.7,-185.04 120.56,-179.67 124.35,-189.56 129.7,-185.04"/>
<text text-anchor="middle" x="118.49" y="-200.88" font-family="Helvetica,sans-Serif" font-size="14.00">True</text>
</g>
<!-- 2 -->
<g id="node3" class="node">
<title>2</title>
<path fill="#67eb9e" stroke="black" d="M366.5,-187C366.5,-187 214.5,-187 214.5,-187 208.5,-187 202.5,-181 202.5,-175 202.5,-175 202.5,-116 202.5,-116 202.5,-110 208.5,-104 214.5,-104 214.5,-104 366.5,-104 366.5,-104 372.5,-104 378.5,-110 378.5,-116 378.5,-116 378.5,-175 378.5,-175 378.5,-181 372.5,-187 366.5,-187"/>
<text text-anchor="middle" x="290.5" y="-171.8" font-family="Helvetica,sans-Serif" font-size="14.00">v3 &lt;= 0.5</text>
<text text-anchor="middle" x="290.5" y="-156.8" font-family="Helvetica,sans-Serif" font-size="14.00">gini = 0.308</text>
<text text-anchor="middle" x="290.5" y="-141.8" font-family="Helvetica,sans-Serif" font-size="14.00">samples = 2784</text>
<text text-anchor="middle" x="290.5" y="-126.8" font-family="Helvetica,sans-Serif" font-size="14.00">value = [6, 2257, 521]</text>
<text text-anchor="middle" x="290.5" y="-111.8" font-family="Helvetica,sans-Serif" font-size="14.00">class = 2</text>
</g>
<!-- 0&#45;&gt;2 -->
<g id="edge2" class="edge">
<title>0&#45;&gt;2</title>
<path fill="none" stroke="black" d="M225.85,-222.91C233.53,-213.83 241.74,-204.12 249.66,-194.77"/>
<polygon fill="black" stroke="black" points="252.43,-196.92 256.21,-187.02 247.08,-192.39 252.43,-196.92"/>
<text text-anchor="middle" x="258.29" y="-208.23" font-family="Helvetica,sans-Serif" font-size="14.00">False</text>
</g>
<!-- 3 -->
<g id="node4" class="node">
<title>3</title>
<path fill="#3be582" stroke="black" d="M274,-68C274,-68 131,-68 131,-68 125,-68 119,-62 119,-56 119,-56 119,-12 119,-12 119,-6 125,0 131,0 131,0 274,0 274,0 280,0 286,-6 286,-12 286,-12 286,-56 286,-56 286,-62 280,-68 274,-68"/>
<text text-anchor="middle" x="202.5" y="-52.8" font-family="Helvetica,sans-Serif" font-size="14.00">gini = 0.018</text>
<text text-anchor="middle" x="202.5" y="-37.8" font-family="Helvetica,sans-Serif" font-size="14.00">samples = 2274</text>
<text text-anchor="middle" x="202.5" y="-22.8" font-family="Helvetica,sans-Serif" font-size="14.00">value = [6, 2253, 15]</text>
<text text-anchor="middle" x="202.5" y="-7.8" font-family="Helvetica,sans-Serif" font-size="14.00">class = 2</text>
</g>
<!-- 2&#45;&gt;3 -->
<g id="edge3" class="edge">
<title>2&#45;&gt;3</title>
<path fill="none" stroke="black" d="M257.73,-103.73C250.55,-94.79 242.94,-85.32 235.74,-76.36"/>
<polygon fill="black" stroke="black" points="238.25,-73.9 229.26,-68.3 232.8,-78.29 238.25,-73.9"/>
</g>
<!-- 4 -->
<g id="node5" class="node">
<title>4</title>
<path fill="#823be5" stroke="black" d="M441,-68C441,-68 316,-68 316,-68 310,-68 304,-62 304,-56 304,-56 304,-12 304,-12 304,-6 310,0 316,0 316,0 441,0 441,0 447,0 453,-6 453,-12 453,-12 453,-56 453,-56 453,-62 447,-68 441,-68"/>
<text text-anchor="middle" x="378.5" y="-52.8" font-family="Helvetica,sans-Serif" font-size="14.00">gini = 0.016</text>
<text text-anchor="middle" x="378.5" y="-37.8" font-family="Helvetica,sans-Serif" font-size="14.00">samples = 510</text>
<text text-anchor="middle" x="378.5" y="-22.8" font-family="Helvetica,sans-Serif" font-size="14.00">value = [0, 4, 506]</text>
<text text-anchor="middle" x="378.5" y="-7.8" font-family="Helvetica,sans-Serif" font-size="14.00">class = 3+</text>
</g>
<!-- 2&#45;&gt;4 -->
<g id="edge4" class="edge">
<title>2&#45;&gt;4</title>
<path fill="none" stroke="black" d="M323.27,-103.73C330.45,-94.79 338.06,-85.32 345.26,-76.36"/>
<polygon fill="black" stroke="black" points="348.2,-78.29 351.74,-68.3 342.75,-73.9 348.2,-78.29"/>
</g>
</g>
</svg>
