<?xml version="1.0" encoding="utf-8"?>
<!-- Generator: Adobe Illustrator 26.3.1, SVG Export Plug-In . SVG Version: 6.00 Build 0)  -->
<svg version="1.1" id="Layer_1" xmlns="http://www.w3.org/2000/svg" xmlns:xlink="http://www.w3.org/1999/xlink" x="0px" y="0px"
	 viewBox="0 0 964.8 677.9" style="enable-background:new 0 0 964.8 677.9;" xml:space="preserve">
<style type="text/css">
	.st0{stroke:#505050;stroke-miterlimit:2;}
	.st1{fill:#FFFFFF;stroke:#333333;stroke-width:0.5;stroke-miterlimit:2;}
	.st2{enable-background:new    ;}
	.st3{font-family:'ArialMT';}
	.st4{font-size:33.6499px;}
	.st5{font-family:'MyriadPro-Regular';}
	.st6{font-size:32.0144px;}
	.st7{font-size:31.9454px;}
</style>
<g transform="translate(275.71833567239264,399.1654626986067) scale(0.5)">
	<path marker-end="" class="st0" d="M964.4-653.4L1095.1-113"/>
	<path marker-end="" class="st0" d="M964.4-653.4V-113"/>
	<path marker-end="" class="st0" d="M964.4-653.4L833.6-113"/>
	<path marker-end="" class="st0" d="M964.4-653.4L48.9-113"/>
	<path marker-end="" class="st0" d="M833.6-653.4L1095.1-113"/>
	<path marker-end="" class="st0" d="M833.6-653.4L964.4-113"/>
	<path marker-end="" class="st0" d="M833.6-653.4V-113"/>
	<path marker-end="" class="st0" d="M833.6-653.4L179.6-113"/>
	<path marker-end="" class="st0" d="M833.6-653.4L48.9-113"/>
	<path marker-end="" class="st0" d="M702.8-653.4L1095.1-113"/>
	<path marker-end="" class="st0" d="M702.8-653.4L964.4-113"/>
	<path marker-end="" class="st0" d="M702.8-653.4L833.6-113"/>
	<path marker-end="" class="st0" d="M702.8-653.4L179.6-113"/>
	<path marker-end="" class="st0" d="M702.8-653.4L48.9-113"/>
	<path marker-end="" class="st0" d="M572-653.4L1095.1-113"/>
	<path marker-end="" class="st0" d="M572-653.4L964.4-113"/>
	<path marker-end="" class="st0" d="M572-653.4L833.6-113"/>
	<path marker-end="" class="st0" d="M572-653.4L179.6-113"/>
	<path marker-end="" class="st0" d="M572-653.4L48.9-113"/>
	<path marker-end="" class="st0" d="M441.2-653.4L1095.1-113"/>
	<path marker-end="" class="st0" d="M441.2-653.4L964.4-113"/>
	<path marker-end="" class="st0" d="M441.2-653.4L833.6-113"/>
	<path marker-end="" class="st0" d="M441.2-653.4L179.6-113"/>
	<path marker-end="" class="st0" d="M441.2-653.4L48.9-113"/>
	<path marker-end="" class="st0" d="M310.4-653.4L1095.1-113"/>
	<path marker-end="" class="st0" d="M310.4-653.4L964.4-113"/>
	<path marker-end="" class="st0" d="M310.4-653.4L833.6-113"/>
	<path marker-end="" class="st0" d="M310.4-653.4L179.6-113"/>
	<path marker-end="" class="st0" d="M310.4-653.4L48.9-113"/>
	<path marker-end="" class="st0" d="M179.6-653.4L1095.1-113"/>
	<path marker-end="" class="st0" d="M179.6-653.4L964.4-113"/>
	<path marker-end="" class="st0" d="M179.6-653.4L833.6-113"/>
	<path marker-end="" class="st0" d="M179.6-653.4V-113"/>
	<path marker-end="" class="st0" d="M179.6-653.4L48.9-113"/>
	<path marker-end="" class="st0" d="M48.9-653.4L1095.1-113"/>
	<path marker-end="" class="st0" d="M48.9-653.4L964.4-113"/>
	<path marker-end="" class="st0" d="M48.9-653.4L833.6-113"/>
	<path marker-end="" class="st0" d="M48.9-653.4L179.6-113"/>
	<path marker-end="" class="st0" d="M48.9-653.4V-113"/>
	<path marker-end="" class="st0" d="M1225.9-113L506.6,427.5"/>
	<path marker-end="" class="st0" d="M1095.1-113L506.6,427.5"/>
	<path marker-end="" class="st0" d="M964.4-113L506.6,427.5"/>
	<path marker-end="" class="st0" d="M833.6-113l-327,540.4"/>
	<path marker-end="" class="st0" d="M179.6-113l327,540.4"/>
	<path marker-end="" class="st0" d="M48.9-113l457.8,540.4"/>
	<path marker-end="" class="st0" d="M964.4-653.4L1225.9-113"/>
	<path marker-end="" class="st0" d="M833.6-653.4L1225.9-113"/>
	<path marker-end="" class="st0" d="M702.8-653.4L1225.9-113"/>
	<path marker-end="" class="st0" d="M572-653.4L1225.9-113"/>
	<path marker-end="" class="st0" d="M441.2-653.4L1225.9-113"/>
	<path marker-end="" class="st0" d="M310.4-653.4L1225.9-113"/>
	<path marker-end="" class="st0" d="M179.6-653.4L1225.9-113"/>
	<path marker-end="" class="st0" d="M48.9-653.4L1225.9-113"/>
	<path marker-end="" class="st0" d="M964.4-653.4L-81.9-113"/>
	<path marker-end="" class="st0" d="M964.4-653.4L-212.7-113"/>
	<path marker-end="" class="st0" d="M833.6-653.4L-81.9-113"/>
	<path marker-end="" class="st0" d="M833.6-653.4L-212.7-113"/>
	<path marker-end="" class="st0" d="M702.8-653.4L-81.9-113"/>
	<path marker-end="" class="st0" d="M702.8-653.4L-212.7-113"/>
	<path marker-end="" class="st0" d="M572-653.4L-81.9-113"/>
	<path marker-end="" class="st0" d="M572-653.4L-212.7-113"/>
	<path marker-end="" class="st0" d="M441.2-653.4L-81.9-113"/>
	<path marker-end="" class="st0" d="M441.2-653.4L-212.7-113"/>
	<path marker-end="" class="st0" d="M310.4-653.4L-81.9-113"/>
	<path marker-end="" class="st0" d="M310.4-653.4L-212.7-113"/>
	<path marker-end="" class="st0" d="M179.6-653.4L-81.9-113"/>
	<path marker-end="" class="st0" d="M179.6-653.4L-212.7-113"/>
	<path marker-end="" class="st0" d="M48.9-653.4L-81.9-113"/>
	<path marker-end="" class="st0" d="M48.9-653.4L-212.7-113"/>
	<path marker-end="" class="st0" d="M-81.9-113l588.5,540.4"/>
	<path marker-end="" class="st0" d="M-212.7-113l719.3,540.4"/>
	<circle id="_x30__x5F_0" class="st1" cx="964.4" cy="-653.4" r="40.7"/>
	<circle id="_x30__x5F_1" class="st1" cx="833.6" cy="-653.4" r="40.7"/>
	<circle id="_x30__x5F_2" class="st1" cx="702.8" cy="-653.4" r="40.7"/>
	<circle id="_x30__x5F_3" class="st1" cx="572" cy="-653.4" r="40.7"/>
	<circle id="_x30__x5F_4" class="st1" cx="441.2" cy="-653.4" r="40.7"/>
	<circle id="_x30__x5F_5" class="st1" cx="310.4" cy="-653.4" r="40.7"/>
	<circle id="_x30__x5F_6" class="st1" cx="179.6" cy="-653.4" r="40.7"/>
	<circle id="_x30__x5F_7" class="st1" cx="48.9" cy="-653.4" r="40.7"/>
	<circle id="_x31__x5F_0" class="st1" cx="1225.9" cy="-113" r="40.7"/>
	<circle id="_x31__x5F_1" class="st1" cx="1095.1" cy="-113" r="40.7"/>
	<circle id="_x31__x5F_2" class="st1" cx="964.4" cy="-113" r="40.7"/>
	<circle id="_x31__x5F_3" class="st1" cx="833.6" cy="-113" r="40.7"/>
	<circle id="_x31__x5F_8" class="st1" cx="179.6" cy="-113" r="40.7"/>
	<circle id="_x31__x5F_9" class="st1" cx="48.9" cy="-113" r="40.7"/>
	<circle id="_x31__x5F_10" class="st1" cx="-81.9" cy="-113" r="40.7"/>
	<circle id="_x31__x5F_11" class="st1" cx="-212.7" cy="-113" r="40.7"/>
	<circle id="_x32__x5F_0" class="st1" cx="506.6" cy="427.5" r="40.7"/>
	<text transform="matrix(2 0 0 2 -512.0267 -542.7823)" class="st2"><tspan x="0" y="0" class="st3 st4">Input Layer </tspan><tspan x="177.7" y="0" class="st5 st4">∈</tspan><tspan x="194.5" y="0" class="st3 st4"> </tspan><tspan x="203.9" y="0" class="st5 st4">ℝ⁸</tspan></text>
	<text transform="matrix(1.8648 0 0 2 -525.9716 91.2831)" class="st3 st6">Hidden Layer </text>
	<text transform="matrix(1.8648 0 0 2 -154.2636 91.2831)" class="st5 st6">∈</text>
	<text transform="matrix(1.8648 0 0 2 -124.413 91.2831)" class="st3 st6"> </text>
	<text transform="matrix(1.8648 0 0 2 -107.8261 91.2831)" class="st5 st6">ℝ</text>
	<text transform="matrix(1.0872 0 0 1.166 -77.9746 69.9618)" class="st3 st6">30</text>
	<text transform="matrix(2 0 0 2 -179.6096 416.1626)" class="st2"><tspan x="0" y="0" class="st3 st7">Output Layer </tspan><tspan x="193.6" y="0" class="st5 st7">∈</tspan><tspan x="209.5" y="0" class="st3 st7"> </tspan><tspan x="218.4" y="0" class="st5 st7">ℝ</tspan><tspan x="234.4" y="0" class="st3 st7">¹</tspan></text>
</g>
<circle cx="571.6" cy="341.1" r="2.5"/>
<circle cx="534.6" cy="341.1" r="2.5"/>
<circle cx="493.1" cy="341.1" r="2.5"/>
</svg>
